<svg width="535" height="537" viewBox="0 0 535 537" fill="none" xmlns="http://www.w3.org/2000/svg">
<mask id="mask0_110_4285" style="mask-type:alpha" maskUnits="userSpaceOnUse" x="0" y="0" width="535" height="537">
<path d="M531.955 298.814C510.062 445.383 376.78 558.527 229.205 533.524C82.4404 506.797 -18.9195 367.136 2.97357 221.429C26.4883 75.7225 162.713 -21.7045 308.667 4.16066C455.432 30.0258 553.849 154.832 531.955 298.814Z" fill="#1B418E"/>
</mask>
<g mask="url(#mask0_110_4285)">
<path d="M518.155 320.225C497.694 456.696 373.131 562.044 235.21 538.764C98.0471 513.878 3.31823 383.84 23.779 248.173C45.7554 112.505 173.069 21.791 309.474 45.874C446.637 69.9569 538.615 186.164 518.155 320.225Z" fill="#F3F4F6"/>
<path d="M74.4607 282.635C44.3569 348.504 1.49301 435.275 -3.46235 468.312C-8.5416 501.246 24.0399 573.233 24.0399 573.233C24.0399 573.233 111.502 580.064 112.493 578.025C114.351 573.437 64.55 529.082 83.0087 490.336C88.2118 479.324 144.827 384.191 138.509 360.025C115.962 274.172 74.4607 282.635 74.4607 282.635Z" fill="#443716"/>
<path d="M456.92 275.032C484.29 284.807 547.478 440.691 552.523 473.579C557.694 506.466 519.1 561.143 519.1 561.143C519.1 561.143 429.93 568.067 429.047 566.03C427.281 561.449 471.173 519.601 452.38 480.91C447.083 469.812 396.128 372.473 402.56 348.342C425.515 262.611 456.92 275.032 456.92 275.032Z" fill="#443716"/>
<path d="M279.025 282.405L220 263.516C220 263.516 230.126 181.39 230.126 173.485L275.321 170.405H275.568H275.691L320.022 172.253C320.022 180.261 332 251.711 332 251.711L279.025 282.405Z" fill="#D09289"/>
<mask id="mask1_110_4285" style="mask-type:luminance" maskUnits="userSpaceOnUse" x="220" y="205" width="28" height="74">
<path d="M232.03 278.177C230.14 278.177 228.695 277.963 227.57 277.558C226.431 274.341 225.319 271.168 224.235 268.074C224.332 266.904 224.43 265.689 224.444 264.474L226.556 265.126L229.279 272.304L235.073 267.781L247.077 271.528C240.894 275.668 235.642 278.177 232.03 278.177ZM221.054 254.877C220.887 254.708 220.706 254.539 220.526 254.382C220.678 253.425 220.859 252.165 221.067 250.68L221.456 251.693C221.317 252.829 221.179 253.887 221.054 254.877ZM224.999 222.846L224.791 222.699C225.541 216.86 226.305 210.818 227.028 205.024C227.056 205.058 227.084 205.08 227.111 205.114C226.444 210.852 225.722 216.905 224.999 222.846Z" fill="white"/>
</mask>
<g mask="url(#mask1_110_4285)">
<path d="M232.03 278.177C230.14 278.177 228.695 277.963 227.57 277.558C226.431 274.341 225.319 271.168 224.235 268.074C224.332 266.904 224.43 265.689 224.444 264.474L226.556 265.126L229.279 272.304L235.073 267.781L247.077 271.528C240.894 275.668 235.642 278.177 232.03 278.177ZM221.054 254.877C220.887 254.708 220.706 254.539 220.526 254.382C220.678 253.425 220.859 252.165 221.067 250.68L221.456 251.693C221.317 252.829 221.179 253.887 221.054 254.877ZM224.999 222.846L224.791 222.699C225.541 216.86 226.305 210.818 227.028 205.024C227.056 205.058 227.084 205.08 227.111 205.114C226.444 210.852 225.722 216.905 224.999 222.846Z" fill="url(#paint0_linear_110_4285)"/>
</g>
<mask id="mask2_110_4285" style="mask-type:luminance" maskUnits="userSpaceOnUse" x="221" y="205" width="90" height="67">
<path d="M247.078 271.527L235.073 267.781L261.291 247.293L225 222.845C225.722 216.905 226.445 210.852 227.112 205.114C227.292 205.305 227.473 205.496 227.654 205.676C237.407 215.701 250.787 220.865 268.544 221.472L269.795 221.574H271.17H273.421V221.472C288.941 220.977 301.07 218.075 310.199 213.293C293.095 231.531 265.779 258.994 247.078 271.527ZM226.556 265.126L224.444 264.473C224.5 261.109 223.958 257.678 221.054 254.876C221.179 253.886 221.318 252.829 221.457 251.692L226.556 265.126Z" fill="white"/>
</mask>
<g mask="url(#mask2_110_4285)">
<path d="M247.078 271.527L235.073 267.781L261.291 247.293L225 222.845C225.722 216.905 226.445 210.852 227.112 205.114C227.292 205.305 227.473 205.496 227.654 205.676C237.407 215.701 250.787 220.865 268.544 221.472L269.795 221.574H271.17H273.421V221.472C288.941 220.977 301.07 218.075 310.199 213.293C293.095 231.531 265.779 258.994 247.078 271.527ZM226.556 265.126L224.444 264.473C224.5 261.109 223.958 257.678 221.054 254.876C221.179 253.886 221.318 252.829 221.457 251.692L226.556 265.126Z" fill="url(#paint1_linear_110_4285)"/>
</g>
<path d="M331.278 228.443C326.184 233.652 290.291 257.768 274.926 256.452C259.547 255.135 224.63 231.348 219.536 222.405C215.322 226.128 209 233.902 209 233.902L276.782 362.405L340 238.782L331.278 228.443Z" fill="#CBD6B7"/>
<path d="M219.857 222.405C225.057 231.18 260.871 250.301 276.586 251.583L278 358.405L209 232.886C209 232.886 215.6 226.04 219.857 222.405Z" fill="#B4C29D"/>
<mask id="mask3_110_4285" style="mask-type:luminance" maskUnits="userSpaceOnUse" x="212" y="214" width="132" height="151">
<path d="M325.404 215.114C320.402 220.278 293.767 236.986 278.511 235.669C263.13 234.353 237.746 223.316 232.744 214.405C228.492 218.152 212.611 228.075 212.611 228.075L280.387 364.267L343.036 232.834L325.404 215.114Z" fill="white"/>
</mask>
<g mask="url(#mask3_110_4285)">
<path d="M268.16 268.972H279.33V245.266H257.183L257.03 255.493L268.16 268.972Z" fill="#443716"/>
<path d="M266.729 265.349L247.277 414.794L278.108 434.382L278.761 433.819L279.928 265.45L266.729 265.349Z" fill="#443716"/>
<path d="M287.848 268.972H278.567V245.266H301.228L301.075 255.493L287.848 268.972Z" fill="#524422"/>
<path d="M289.474 265.349L308.953 414.794L278.108 434.382L278.581 265.349H289.474Z" fill="#524422"/>
</g>
<path d="M273.002 66.4053H272.757C271.164 66.4053 269.816 66.6098 268.346 66.6098C266.385 66.712 264.303 66.7114 262.465 66.9158C213.699 71.7173 204.632 110.232 210.635 148.645C210.88 150.586 211.125 156.92 211.493 158.861C214.801 178.987 218.967 196.354 228.647 206.366C238.204 216.48 251.315 221.69 268.714 222.303L269.939 222.405H271.287H273.492V222.303C298.61 221.486 314.662 214.028 323.361 202.382C331.325 191.655 335.369 179.804 336.594 156.205C338.677 114.217 334.879 66.4053 273.002 66.4053Z" fill="#D09289"/>
<path d="M209.12 150.405C209.12 140.677 211.925 132.936 207.779 125.823C203.632 118.815 210.462 111.493 213.388 102.706C219.486 84.1906 244.242 76.2403 251.437 74.462C258.754 72.6837 252.534 62.9555 252.534 62.9555C252.534 62.9555 240.096 60.3405 228.754 66.5122C217.413 72.6839 209.242 77.0774 199.974 93.9189C190.706 110.76 187.535 107.936 189.608 118.501C191.681 129.171 197.901 148.732 197.901 148.732H208.145L209.12 150.405Z" fill="#2B1A00"/>
<path d="M249.578 80.2879C257.979 88.7179 287.878 91.8913 293.437 85.3457C297.144 80.9819 304.186 83.2627 311.228 86.1388C327.166 92.7836 335.938 101.313 335.938 112.223C335.938 123.132 333.591 148.819 333.591 148.819L340.88 150.405C340.88 150.405 353.605 128.983 350.517 110.536C347.428 92.0895 346.934 97.9408 343.721 89.5109C340.633 81.1801 345.698 81.1801 335.32 72.7501C324.819 64.4193 286.148 57.6754 273.67 58.4688C261.192 59.3614 249.578 59.3613 247.601 64.4193C245.501 69.3781 249.578 80.2879 249.578 80.2879Z" fill="#2B1A00"/>
<path d="M334.653 134.54C340.86 131.526 345.737 126.144 347.621 136.37C349.506 146.596 343.964 161.666 339.641 165.972C335.207 170.17 329 171.462 329 169.524C329 167.802 334.653 134.54 334.653 134.54Z" fill="#D09289"/>
<path d="M211.378 138.545C205.205 135.527 200.245 130.138 198.371 140.378C196.497 150.617 202.119 165.706 206.418 169.909C210.827 174.221 217 175.406 217 173.574C217 171.849 211.378 138.545 211.378 138.545Z" fill="#D09289"/>
<path d="M248.728 594.405C248.728 594.405 116.781 592.064 116.781 587.891C116.781 523.051 78.0101 323.034 78.0101 323.034C78.0101 323.034 54.122 286.186 84.1383 272.75C125.411 254.326 160.055 248.218 211.708 230.405C211.708 230.405 242.099 324.255 250.854 332.297C259.484 343.392 285.998 364.259 285.998 364.259L290 380.138L282.371 497.4L274.5 597.405L248.728 594.405Z" fill="#443716"/>
<path d="M290.661 586.405L270 562.905L277.61 364.941C277.61 364.941 319.621 306.922 337.643 245.668L336.4 230.405C381.394 248.094 428.128 260.83 456.715 271.14C471.133 276.295 459.698 299.139 459.698 299.139C459.698 299.139 426.14 543.952 426.14 585.597L290.661 586.405Z" fill="#524422"/>
<path d="M263 245.423L230.014 270.405L217.773 239.151L217 224.182L220.092 217.405L263 245.423Z" fill="#9FB281"/>
<path d="M290 247.633L320.279 274.405L348 229.494L333.621 217.405L290 247.633Z" fill="#9FB281"/>
<path d="M217.862 217.478C217.862 216.088 186 235.101 186 235.101L187.632 284.198L219.135 280.911L186.678 305.843L286 370.405C286 370.405 235.253 279.34 226.371 259.028C215.552 234.13 217.862 217.478 217.862 217.478Z" fill="#524422"/>
<path d="M334.936 222.479C334.936 221.106 363.182 239.468 363.182 239.468L375 274.283L336.473 280.087L361.632 302.032L275 366.405C275 366.405 317.25 281.873 328.086 262.484C339.046 243.118 334.936 222.479 334.936 222.479Z" fill="#443716"/>
<path d="M273.148 0.405273H270.793C166.387 30.4053 167.137 67.2598 166.387 70.4053C163.07 84.4468 181.834 108.233 193.729 110.405L273.148 80.4893L354.58 100.901C366.517 98.7399 381 69.6413 381 66.4053C381 63.2032 371.333 26.4053 273.148 0.405273Z" fill="#443716"/>
<path d="M361.531 100.405C369.267 96.4051 373.135 84.4053 375.069 78.405C377.003 68.4052 358.13 57.1017 317.049 50.4051C309.883 49.26 307.378 76.4051 307.378 76.4051L361.531 100.405Z" fill="#524422"/>
<mask id="mask4_110_4285" style="mask-type:luminance" maskUnits="userSpaceOnUse" x="195" y="148" width="19" height="29">
<path d="M213.704 176.323C213.398 175.367 213.078 174.388 212.773 173.375C212.148 171.249 207.146 171.958 204.02 168.11C200.046 163.25 196.253 156.161 195.752 148.533C196.906 156.724 201.38 165.365 205.02 168.312C207.465 170.293 210.383 171.564 212.745 172.16C213.051 173.567 213.37 174.951 213.704 176.323Z" fill="white"/>
</mask>
<g mask="url(#mask4_110_4285)">
<path d="M213.704 176.323C213.398 175.367 213.078 174.388 212.773 173.375C212.148 171.249 207.146 171.958 204.02 168.11C200.046 163.25 196.253 156.161 195.752 148.533C196.906 156.724 201.38 165.365 205.02 168.312C207.465 170.293 210.383 171.564 212.745 172.16C213.051 173.567 213.37 174.951 213.704 176.323Z" fill="url(#paint2_linear_110_4285)"/>
</g>
<mask id="mask5_110_4285" style="mask-type:luminance" maskUnits="userSpaceOnUse" x="208" y="120" width="129" height="92">
<path d="M235.031 211.144C235.031 211.144 224.402 209.232 213.704 176.323C213.37 174.95 213.051 173.566 212.745 172.16C213.746 172.408 214.648 172.531 215.357 172.531C216.385 172.531 217.024 172.273 217.024 171.755C217.024 170.135 210.647 138.846 210.647 138.846C210.411 138.756 210.189 138.655 209.966 138.565C210.397 133.851 210.522 129.621 208.424 125.616C216.038 122.004 228.612 120.676 242.979 120.676C282.758 120.676 336.32 130.847 336.32 130.847L235.031 211.144Z" fill="white"/>
</mask>
<g mask="url(#mask5_110_4285)">
<path d="M235.031 211.144C235.031 211.144 224.402 209.232 213.704 176.323C213.37 174.95 213.051 173.566 212.745 172.16C213.746 172.408 214.648 172.531 215.357 172.531C216.385 172.531 217.024 172.273 217.024 171.755C217.024 170.135 210.647 138.846 210.647 138.846C210.411 138.756 210.189 138.655 209.966 138.565C210.397 133.851 210.522 129.621 208.424 125.616C216.038 122.004 228.612 120.676 242.979 120.676C282.758 120.676 336.32 130.847 336.32 130.847L235.031 211.144Z" fill="url(#paint3_linear_110_4285)"/>
</g>
<mask id="mask6_110_4285" style="mask-type:luminance" maskUnits="userSpaceOnUse" x="198" y="125" width="13" height="14">
<path d="M209.966 138.565C206.312 136.99 203.061 134.953 200.518 134.953C199.81 134.953 199.143 135.122 198.545 135.516C199.782 133.232 201.449 130.982 203.644 128.822C204.881 127.595 206.493 126.538 208.424 125.615C210.522 129.621 210.397 133.851 209.966 138.565Z" fill="white"/>
</mask>
<g mask="url(#mask6_110_4285)">
<path d="M209.966 138.565C206.312 136.99 203.061 134.953 200.518 134.953C199.81 134.953 199.143 135.122 198.545 135.516C199.782 133.232 201.449 130.982 203.644 128.822C204.881 127.595 206.493 126.538 208.424 125.615C210.522 129.621 210.397 133.851 209.966 138.565Z" fill="url(#paint4_linear_110_4285)"/>
</g>
<mask id="mask7_110_4285" style="mask-type:luminance" maskUnits="userSpaceOnUse" x="195" y="134" width="23" height="39">
<path d="M215.357 172.531C214.648 172.531 213.745 172.407 212.745 172.16C210.383 171.563 207.465 170.292 205.02 168.312C201.379 165.364 196.905 156.724 195.752 148.533C195.474 144.258 196.224 139.825 198.545 135.516C199.142 135.122 199.809 134.953 200.518 134.953C203.06 134.953 206.312 136.99 209.966 138.565C210.188 138.655 210.411 138.756 210.647 138.846C210.647 138.846 217.024 170.135 217.024 171.755C217.024 172.272 216.385 172.531 215.357 172.531Z" fill="white"/>
</mask>
<g mask="url(#mask7_110_4285)">
<path d="M215.357 172.531C214.648 172.531 213.745 172.407 212.745 172.16C210.383 171.563 207.465 170.292 205.02 168.312C201.379 165.364 196.905 156.724 195.752 148.533C195.474 144.258 196.224 139.825 198.545 135.516C199.142 135.122 199.809 134.953 200.518 134.953C203.06 134.953 206.312 136.99 209.966 138.565C210.188 138.655 210.411 138.756 210.647 138.846C210.647 138.846 217.024 170.135 217.024 171.755C217.024 172.272 216.385 172.531 215.357 172.531Z" fill="url(#paint5_linear_110_4285)"/>
</g>
<path d="M302 392.395C302 395.703 298.408 398.405 293.979 398.405C289.565 398.405 286 395.703 286 392.395C286 389.087 289.565 386.405 293.979 386.405C298.408 386.405 302 389.087 302 392.395Z" fill="#DDC170"/>
<path d="M302 450.912C302 455.063 298.408 458.405 293.979 458.405C289.565 458.405 286 455.063 286 450.912C286 446.76 289.565 443.405 293.979 443.405C298.408 443.405 302 446.76 302 450.912Z" fill="#DDC170"/>
<path d="M219.981 431.63C220.476 438.608 211.432 444.69 199.787 444.989L157.664 446.384C146.019 446.783 136.108 441.4 135.612 434.421L132.019 385.272C131.524 378.193 140.568 372.212 152.213 371.813L194.46 370.417C206.105 370.118 215.892 375.402 216.388 382.48L219.981 431.63Z" fill="#524422"/>
<mask id="mask8_110_4285" style="mask-type:luminance" maskUnits="userSpaceOnUse" x="130" y="372" width="87" height="48">
<path d="M133.09 419.071L130.616 385.004C130.422 382.213 131.686 379.603 133.965 377.409L201.518 372.549L215.802 382.618L216.191 387.839L133.09 419.071Z" fill="white"/>
</mask>
<g mask="url(#mask8_110_4285)">
<path d="M133.09 419.071L130.616 385.004C130.422 382.213 131.686 379.603 133.965 377.409L201.518 372.549L215.802 382.618L216.191 387.839L133.09 419.071Z" fill="#493A16"/>
</g>
<path d="M123.507 364.549C120.274 373.457 118.104 391.401 122.387 391.554C126.684 391.695 169.836 387.536 172.425 394.405C184.001 383.236 212.974 383.389 220 386.994C220 386.994 218.083 364.408 212.554 359.707C206.997 355.006 123.507 364.549 123.507 364.549Z" fill="#524422"/>
<path d="M176.998 382.586C176.899 384.79 174.336 386.492 171.311 386.402C168.269 386.312 165.888 384.455 166.004 382.238C166.103 380.02 168.649 378.318 171.675 378.409C174.733 378.512 177.081 380.368 176.998 382.586Z" fill="#DDC170"/>
<path d="M421.877 432.144C421.28 439.073 411.27 444.088 399.581 443.329L357.183 440.481C345.439 439.711 336.456 433.442 337.026 426.469L341.121 377.671C341.718 370.709 351.7 365.705 363.417 366.486L405.814 369.312C417.531 370.104 426.569 376.362 425.972 383.334L421.877 432.144Z" fill="#443716"/>
<path d="M338.559 354.441C334.173 363.231 329.445 381.469 333.612 382.079C337.725 382.69 380.153 383.105 381.67 390.405C394.446 380.2 422.526 383.496 428.798 387.964C428.798 387.964 430.219 364.537 425.519 359.117C420.846 353.684 338.559 354.441 338.559 354.441Z" fill="#3C2F10"/>
<path d="M385.961 379.087C385.676 381.269 383.904 382.719 381.983 382.347C380.073 381.949 378.754 379.87 379.039 377.701C379.345 375.532 381.118 374.082 383.017 374.467C384.927 374.852 386.246 376.944 385.961 379.087Z" fill="#DDC170"/>
<path d="M184.952 118.405L174 95.4426C174 95.4426 224 70.4053 272.441 70.4053L274 110.07L184.952 118.405Z" fill="#443716"/>
<path d="M356.071 118.405L367 95.4426C367 95.4426 317.007 70.4053 268.531 70.4053L267 110.07L356.071 118.405Z" fill="#524422"/>
<path d="M197.188 111.172C186.723 114.379 196.802 136.19 217.057 137.356C237.325 138.533 313.999 139.699 328.476 135.001C342.912 130.302 348 113.83 348 113.83C348 113.83 266.61 90.0005 197.188 111.172Z" fill="#271A01"/>
<path d="M180 108.191C194.243 100.596 219.437 88.0385 274 85.4053C274 94.2879 274 99.9053 274 99.9053C274 99.9053 210.432 99.2264 183.873 114.405C180.922 109.42 180 108.191 180 108.191Z" fill="#271A01"/>
<path d="M360 109.573C345.762 100.913 322.505 88.3762 267.892 85.4053C267.892 95.5038 267 99.8428 267 99.8428C267 99.8428 329.463 101.139 356.039 118.405C359.021 112.743 360 109.573 360 109.573Z" fill="#271A01"/>
<path d="M372 242.405C378.135 252.342 368.933 257.293 381.202 259.781C393.457 262.279 454.72 277.167 459.299 278.405C463.879 267.23 457.758 267.23 457.758 267.23L372 242.405Z" fill="#443716"/>
<path d="M177 242.405C170.864 251.223 180.04 255.638 167.795 257.84C155.551 260.062 94.299 273.314 89.7037 274.405C85.1226 264.476 91.2307 264.476 91.2307 264.476L177 242.405Z" fill="#524422"/>
<path d="M257.829 31.7713L257.829 31.7641C257.815 31.7484 256.883 33.2741 256.631 33.5248C256.368 33.7778 255.518 34.5258 255.355 34.8696C255.169 35.191 254.897 36.9569 254.857 37.0921C254.801 37.2231 254.902 37.804 254.903 37.8039C254.903 37.8039 254.915 37.8023 254.932 37.8006C255.407 36.7345 256.902 34.3382 257.063 33.8859C257.174 33.4458 257.581 32.3344 257.829 31.7713Z" fill="#BB9F50" stroke="#CDAE54" stroke-width="0.2"/>
<path d="M257.063 33.8858C256.902 34.338 255.407 36.7343 254.932 37.8005C255.118 37.7603 256.189 37.6509 256.662 36.9108C257.17 36.09 257.737 34.268 257.796 33.8695C257.837 33.4975 257.824 31.8482 257.829 31.7712C257.581 32.3343 257.173 33.4458 257.063 33.8858Z" fill="#BB9F50" stroke="#CDAE54" stroke-width="0.2"/>
<path d="M259.871 39.9849L259.873 39.9899C259.876 39.968 258.796 39.731 258.549 39.8345C258.313 39.9323 257.574 40.3249 257.35 40.3553C257.128 40.3485 256.102 39.8317 256.006 39.8615C255.914 39.8707 255.631 39.5114 255.63 39.512C255.63 39.512 255.636 39.498 255.644 39.4782C256.438 39.1785 258.354 38.9635 258.622 39.2064C258.875 39.3753 259.534 39.749 259.871 39.9849Z" fill="#BB9F50" stroke="#CDAE54" stroke-width="0.2"/>
<path d="M258.622 39.2064C258.354 38.9635 256.438 39.1785 255.644 39.4782C255.72 39.2579 256.304 37.9665 256.979 37.8272C257.716 37.6593 258.869 38.3063 259.044 38.5293C259.232 38.7464 259.848 39.9288 259.871 39.985C259.534 39.7491 258.875 39.3754 258.622 39.2064Z" fill="#BB9F50" stroke="#CDAE54" stroke-width="0.2"/>
<path d="M255.441 38.6171L255.745 38.7524C255.749 38.7296 257.166 38.6797 257.73 38.3879C258.23 38.0716 259.466 36.0126 259.687 35.7692C258.199 36.448 256.773 37.4168 255.441 38.6171Z" fill="#BB9F50" stroke="#CDAE54" stroke-width="0.2"/>
<path d="M259.709 35.7364C259.731 35.6549 257.129 35.2998 256.563 35.747C255.99 36.0939 255.467 38.2402 255.486 38.2384L255.421 38.609L255.441 38.6172C256.773 37.4167 258.199 36.4479 259.687 35.7692C259.701 35.7488 259.709 35.7364 259.709 35.7364Z" fill="#BB9F50" stroke="#CDAE54" stroke-width="0.2"/>
<path d="M255.089 33.36L255.089 33.3529C255.074 33.3394 254.253 35.0008 254.021 35.2889C253.777 35.5812 252.983 36.4563 252.845 36.8235C252.682 37.1719 252.536 38.9701 252.505 39.1108C252.459 39.2496 252.6 39.8118 252.6 39.8116C252.6 39.8116 252.612 39.8082 252.629 39.804C253.027 38.6703 254.347 36.0561 254.475 35.5815C254.554 35.1267 254.882 33.9584 255.089 33.36Z" fill="#BB9F50" stroke="#CDAE54" stroke-width="0.2"/>
<path d="M254.475 35.5816C254.347 36.0562 253.027 38.6704 252.629 39.8041C252.811 39.7354 253.869 39.4612 254.288 38.6521C254.736 37.7574 255.173 35.8576 255.203 35.4523C255.218 35.0759 255.09 33.4375 255.089 33.3602C254.882 33.9586 254.554 35.1269 254.475 35.5816Z" fill="#BB9F50" stroke="#CDAE54" stroke-width="0.2"/>
<path d="M257.694 41.2142L257.696 41.2188C257.698 41.1966 256.607 41.1275 256.368 41.2686C256.141 41.4024 255.433 41.9069 255.213 41.9716C254.991 41.9992 253.935 41.6436 253.841 41.688C253.75 41.7114 253.444 41.3978 253.443 41.3984C253.443 41.3984 253.448 41.3836 253.455 41.3626C254.223 40.9421 256.114 40.4324 256.397 40.6326C256.661 40.7616 257.343 41.0315 257.694 41.2142Z" fill="#BB9F50" stroke="#CDAE54" stroke-width="0.2"/>
<path d="M256.397 40.6325C256.114 40.4323 254.223 40.9419 253.455 41.3625C253.514 41.1318 254.006 39.7571 254.667 39.5143C255.388 39.2336 256.581 39.6991 256.77 39.894C256.972 40.0809 257.667 41.1618 257.694 41.2141C257.343 41.0315 256.661 40.7616 256.397 40.6325Z" fill="#BB9F50" stroke="#CDAE54" stroke-width="0.2"/>
<path d="M253.192 40.5377L253.504 40.6252C253.507 40.6019 254.912 40.3336 255.453 39.9563C255.928 39.5646 257.013 37.3259 257.216 37.0497C255.784 37.9544 254.433 39.1381 253.192 40.5377Z" fill="#BB9F50" stroke="#CDAE54" stroke-width="0.2"/>
<path d="M257.237 37.0134C257.252 36.9291 254.639 36.9776 254.108 37.5097C253.563 37.9431 253.192 40.1585 253.21 40.1539L253.172 40.5324L253.192 40.5376C254.433 39.138 255.784 37.9542 257.216 37.0495C257.229 37.0271 257.237 37.0134 257.237 37.0134Z" fill="#BB9F50" stroke="#CDAE54" stroke-width="0.2"/>
<path d="M253.077 35.4703L253.076 35.4633C253.059 35.4541 252.448 37.3038 252.253 37.6481C252.047 37.9995 251.369 39.0682 251.277 39.4657C251.157 39.8511 251.225 41.6598 251.212 41.8063C251.183 41.9549 251.388 42.4716 251.388 42.4713C251.388 42.4713 251.4 42.4649 251.416 42.4563C251.674 41.2364 252.664 38.3184 252.735 37.8175C252.759 37.3491 252.943 36.1136 253.077 35.4703Z" fill="#BB9F50" stroke="#CDAE54" stroke-width="0.2"/>
<path d="M252.735 37.8175C252.664 38.3182 251.674 41.2363 251.416 42.4563C251.587 42.341 252.596 41.7951 252.913 40.8893C253.248 39.8916 253.454 37.9072 253.436 37.5003C253.407 37.1257 253.086 35.5463 253.077 35.4703C252.943 36.1136 252.759 37.3492 252.735 37.8175Z" fill="#BB9F50" stroke="#CDAE54" stroke-width="0.2"/>
<path d="M256.568 42.5224L256.571 42.5263C256.57 42.504 255.489 42.7207 255.27 42.9219C255.061 43.1131 254.424 43.7945 254.215 43.9156C254 44.0006 252.918 43.9263 252.831 43.9945C252.744 44.0412 252.406 43.8124 252.405 43.8132C252.405 43.8132 252.408 43.7974 252.413 43.7749C253.119 43.1604 254.921 42.1651 255.223 42.2883C255.498 42.3465 256.201 42.4342 256.568 42.5224Z" fill="#BB9F50" stroke="#CDAE54" stroke-width="0.2"/>
<path d="M255.223 42.2883C254.921 42.1652 253.119 43.1605 252.413 43.775C252.444 43.5324 252.765 42.0508 253.388 41.6391C254.065 41.1745 255.294 41.3217 255.503 41.4641C255.724 41.5953 256.536 42.478 256.568 42.5226C256.201 42.4344 255.498 42.3466 255.223 42.2883Z" fill="#BB9F50" stroke="#CDAE54" stroke-width="0.2"/>
<path d="M252.057 43.0316L252.374 43.0364C252.374 43.0127 253.726 42.3817 254.214 41.8691C254.635 41.3597 255.439 38.8724 255.606 38.5475C254.304 39.8118 253.113 41.3298 252.057 43.0316Z" fill="#BB9F50" stroke="#CDAE54" stroke-width="0.2"/>
<path d="M255.622 38.5067C255.627 38.4197 253.061 39.1493 252.6 39.8119C252.115 40.3808 252.012 42.6586 252.029 42.6493L252.037 43.0318L252.057 43.0317C253.113 41.3299 254.304 39.8119 255.606 38.5476C255.616 38.5221 255.622 38.5067 255.622 38.5067Z" fill="#BB9F50" stroke="#CDAE54" stroke-width="0.2"/>
<path d="M251.437 38.0731L251.435 38.0665C251.418 38.0608 250.993 40.0227 250.834 40.4053C250.664 40.7974 250.098 42.0008 250.045 42.4139C249.965 42.8209 250.208 44.5959 250.209 44.7438C250.195 44.8971 250.448 45.3642 250.448 45.3638C250.448 45.3638 250.459 45.355 250.474 45.3431C250.61 44.0805 251.306 40.98 251.327 40.4692C251.306 40.0006 251.368 38.7384 251.437 38.0731Z" fill="#BB9F50" stroke="#CDAE54" stroke-width="0.2"/>
<path d="M251.327 40.4691C251.306 40.9798 250.61 44.0803 250.474 45.343C250.632 45.192 251.577 44.4347 251.803 43.4702C252.037 42.4109 252.048 40.403 251.99 40.0044C251.925 39.64 251.454 38.1462 251.437 38.073C251.367 38.7383 251.306 40.0005 251.327 40.4691Z" fill="#BB9F50" stroke="#CDAE54" stroke-width="0.2"/>
<path d="M255.579 44.2994L255.582 44.3027C255.579 44.2808 254.529 44.728 254.333 44.9742C254.145 45.2082 253.581 46.0197 253.386 46.1844C253.182 46.3148 252.104 46.4742 252.024 46.5603C251.943 46.6253 251.586 46.4718 251.585 46.4727C251.585 46.4727 251.587 46.4564 251.589 46.4333C252.228 45.6732 253.914 44.3006 254.225 44.3573C254.502 44.3557 255.207 44.2912 255.579 44.2994Z" fill="#BB9F50" stroke="#CDAE54" stroke-width="0.2"/>
<path d="M254.225 44.3573C253.914 44.3005 252.228 45.6731 251.589 46.4332C251.596 46.1865 251.77 44.6513 252.346 44.11C252.97 43.5045 254.2 43.3857 254.421 43.4815C254.653 43.5639 255.542 44.2624 255.579 44.2995C255.207 44.2913 254.502 44.3558 254.225 44.3573Z" fill="#BB9F50" stroke="#CDAE54" stroke-width="0.2"/>
<path d="M251.164 45.7744L251.479 45.7108C251.476 45.6874 252.753 44.772 253.185 44.1599C253.552 43.5651 254.106 40.9309 254.24 40.5735C253.074 42.1049 252.044 43.8631 251.164 45.7744Z" fill="#BB9F50" stroke="#CDAE54" stroke-width="0.2"/>
<path d="M254.251 40.5296C254.248 40.4423 251.78 41.7165 251.388 42.4714C250.964 43.1387 251.083 45.4148 251.1 45.4018L251.144 45.7787L251.164 45.7743C252.044 43.863 253.074 42.1048 254.24 40.5733C254.247 40.5459 254.251 40.5296 254.251 40.5296Z" fill="#BB9F50" stroke="#CDAE54" stroke-width="0.2"/>
<path d="M249.316 41.4294L249.313 41.424C249.295 41.4264 249.291 43.4875 249.217 43.9239C249.136 44.374 248.841 45.7763 248.875 46.1938C248.882 46.6178 249.476 48.1992 249.507 48.3399C249.525 48.4923 249.862 48.823 249.862 48.8225C249.862 48.8225 249.87 48.8095 249.882 48.7913C249.754 47.5267 249.784 44.2585 249.7 43.7622C249.584 43.3254 249.385 42.0948 249.316 41.4294Z" fill="#BB9F50" stroke="#CDAE54" stroke-width="0.2"/>
<path d="M249.7 43.7622C249.784 44.2583 249.754 47.5266 249.882 48.7913C250.002 48.576 250.748 47.4279 250.766 46.4073C250.773 45.2921 250.373 43.3742 250.237 43.0205C250.1 42.7027 249.347 41.4916 249.316 41.4294C249.385 42.0949 249.584 43.3255 249.7 43.7622Z" fill="#BB9F50" stroke="#CDAE54" stroke-width="0.2"/>
<path d="M254.533 45.4935L254.537 45.495C254.529 45.4756 253.621 46.3753 253.484 46.6985C253.353 47.0062 252.981 48.034 252.829 48.2789C252.661 48.4954 251.666 49.1337 251.608 49.2515C251.544 49.3502 251.172 49.3651 251.172 49.3662C251.172 49.3662 251.17 49.35 251.167 49.3271C251.621 48.3144 252.947 46.2458 253.255 46.1595C253.519 46.0327 254.177 45.6535 254.533 45.4935Z" fill="#BB9F50" stroke="#CDAE54" stroke-width="0.2"/>
<path d="M253.255 46.1594C252.947 46.2457 251.621 48.3143 251.167 49.327C251.123 49.0886 250.976 47.5473 251.414 46.7717C251.885 45.9129 253.033 45.2447 253.263 45.2364C253.501 45.2104 254.491 45.4747 254.533 45.4935C254.177 45.6535 253.519 46.0328 253.255 46.1594Z" fill="#BB9F50" stroke="#CDAE54" stroke-width="0.2"/>
<path d="M250.628 48.8906L250.914 48.6881C250.907 48.6667 251.937 47.2187 252.224 46.4402C252.452 45.7078 252.442 42.948 252.497 42.5471C251.698 44.5324 251.076 46.6724 250.628 48.8906Z" fill="#BB9F50" stroke="#CDAE54" stroke-width="0.2"/>
<path d="M252.499 42.5003C252.478 42.4186 250.386 44.7465 250.167 45.6423C249.899 46.4698 250.477 48.5846 250.49 48.5648L250.61 48.9038L250.628 48.8907C251.076 46.6725 251.698 44.5325 252.497 42.5472C252.498 42.5178 252.499 42.5003 252.499 42.5003Z" fill="#BB9F50" stroke="#CDAE54" stroke-width="0.2"/>
<path d="M248.272 45.354L248.268 45.3496C248.251 45.3568 248.504 47.3835 248.486 47.8326C248.462 48.2974 248.347 49.7565 248.433 50.1573C248.492 50.5722 249.273 51.9625 249.321 52.0922C249.358 52.237 249.73 52.4692 249.73 52.4686C249.73 52.4686 249.736 52.4536 249.746 52.4325C249.463 51.225 249.085 48.0051 248.94 47.5406C248.772 47.1434 248.423 45.9889 248.272 45.354Z" fill="#BB9F50" stroke="#CDAE54" stroke-width="0.2"/>
<path d="M248.94 47.5402C249.085 48.0045 249.463 51.2246 249.746 52.4321C249.837 52.1875 250.427 50.8538 250.317 49.8459C250.185 48.7481 249.553 46.9736 249.375 46.6636C249.201 46.3889 248.31 45.4063 248.272 45.3538C248.423 45.9886 248.772 47.1432 248.94 47.5402Z" fill="#BB9F50" stroke="#CDAE54" stroke-width="0.2"/>
<path d="M253.905 47.91L253.909 47.9104C253.899 47.8934 253.119 49.0278 253.024 49.3833C252.934 49.7218 252.697 50.8342 252.578 51.1168C252.439 51.3759 251.542 52.2772 251.499 52.4089C251.448 52.5236 251.085 52.6407 251.085 52.6418C251.085 52.6418 251.081 52.6264 251.075 52.6047C251.395 51.4844 252.44 49.0864 252.732 48.9166C252.976 48.7193 253.575 48.1653 253.905 47.91Z" fill="#BB9F50" stroke="#CDAE54" stroke-width="0.2"/>
<path d="M252.732 48.9164C252.44 49.0862 251.395 51.4843 251.075 52.6045C251.003 52.3823 250.665 50.9084 250.999 50.0254C251.356 49.0517 252.4 48.0788 252.625 48.0071C252.855 47.9162 253.861 47.9031 253.905 47.91C253.575 48.1653 252.976 48.7193 252.732 48.9164Z" fill="#BB9F50" stroke="#CDAE54" stroke-width="0.2"/>
<path d="M250.491 52.3243L250.748 52.0463C250.738 52.0273 251.569 50.3207 251.754 49.4765C251.887 48.694 251.533 45.9847 251.537 45.5758C251 47.7467 250.655 50.0211 250.491 52.3243Z" fill="#BB9F50" stroke="#CDAE54" stroke-width="0.2"/>
<path d="M251.533 45.5293C251.502 45.4548 249.737 48.3186 249.634 49.2593C249.473 50.1463 250.305 52.0651 250.315 52.0421L250.475 52.3423L250.491 52.3245C250.655 50.0213 251 47.7468 251.537 45.5759C251.535 45.5466 251.533 45.5293 251.533 45.5293Z" fill="#BB9F50" stroke="#CDAE54" stroke-width="0.2"/>
<path d="M247.488 49.9995L247.484 49.9969C247.469 50.011 248.1 51.8463 248.169 52.2844C248.235 52.7399 248.405 54.1869 248.564 54.5348C248.701 54.9073 249.716 55.9084 249.787 56.0124C249.85 56.1357 250.251 56.2003 250.251 56.1997C250.251 56.1997 250.254 56.1826 250.259 56.1584C249.756 55.1212 248.776 52.1954 248.548 51.8116C248.31 51.5025 247.755 50.5439 247.488 49.9995Z" fill="#BB9F50" stroke="#CDAE54" stroke-width="0.2"/>
<path d="M248.548 51.8114C248.776 52.195 249.756 55.121 250.259 56.1581C250.3 55.885 250.609 54.3565 250.31 53.4371C249.973 52.4409 249.027 51.0083 248.797 50.7867C248.577 50.5973 247.535 50.0336 247.488 49.9994C247.755 50.5438 248.31 51.5024 248.548 51.8114Z" fill="#BB9F50" stroke="#CDAE54" stroke-width="0.2"/>
<path d="M253.378 50.0595L253.382 50.0583C253.369 50.0461 252.839 51.4646 252.816 51.8453C252.795 52.2081 252.781 53.3749 252.721 53.6962C252.638 54.0032 251.951 55.2479 251.935 55.3921C251.909 55.5236 251.583 55.7901 251.583 55.7912C251.583 55.7912 251.576 55.7781 251.566 55.7597C251.658 54.5503 252.199 51.8085 252.447 51.5219C252.643 51.2294 253.111 50.4442 253.378 50.0595Z" fill="#BB9F50" stroke="#CDAE54" stroke-width="0.2"/>
<path d="M252.447 51.5217C252.199 51.8083 251.658 54.5501 251.566 55.7595C251.454 55.5772 250.848 54.3077 250.999 53.3197C251.153 52.2353 251.968 50.8597 252.17 50.6956C252.373 50.5108 253.334 50.0716 253.378 50.0594C253.11 50.4441 252.642 51.2293 252.447 51.5217Z" fill="#BB9F50" stroke="#CDAE54" stroke-width="0.2"/>
<path d="M250.953 55.7389L251.145 55.3636C251.132 55.3494 251.601 53.3612 251.617 52.4736C251.594 51.6671 250.735 49.2207 250.66 48.8273C250.562 51.1357 250.668 53.4619 250.953 55.7389Z" fill="#BB9F50" stroke="#CDAE54" stroke-width="0.2"/>
<path d="M250.647 48.7841C250.603 48.7258 249.461 52.2194 249.543 53.1648C249.559 54.0832 250.725 55.5691 250.73 55.5427L250.941 55.7627L250.953 55.7388C250.668 53.4619 250.562 51.1357 250.66 48.8272C250.652 48.8 250.647 48.7841 250.647 48.7841Z" fill="#BB9F50" stroke="#CDAE54" stroke-width="0.2"/>
<path d="M247.507 54.9719L247.502 54.9722C247.493 54.9942 248.572 56.2879 248.755 56.6461C248.94 57.022 249.492 58.2401 249.733 58.4616C249.96 58.719 251.161 59.018 251.255 59.0701C251.346 59.1446 251.73 58.9605 251.73 58.9599C251.73 58.9599 251.728 58.9423 251.726 58.9173C250.982 58.275 249.285 56.1969 248.972 55.9844C248.67 55.8463 247.9 55.3075 247.507 54.9719Z" fill="#BB9F50" stroke="#CDAE54" stroke-width="0.2"/>
<path d="M248.972 55.984C249.285 56.1965 250.982 58.2746 251.726 58.9169C251.688 58.6429 251.551 57.0597 251.027 56.401C250.446 55.6957 249.189 54.9607 248.918 54.8978C248.666 54.8577 247.559 54.9747 247.507 54.9717C247.9 55.3073 248.67 55.846 248.972 55.984Z" fill="#BB9F50" stroke="#CDAE54" stroke-width="0.2"/>
<path d="M252.902 51.4583L252.905 51.4548C252.89 51.4514 252.795 53.0681 252.879 53.4292C252.958 53.7737 253.265 54.8477 253.299 55.1773C253.307 55.5078 253.021 57.0611 253.046 57.2019C253.058 57.3382 252.833 57.779 252.834 57.7799C252.834 57.7799 252.824 57.7721 252.81 57.7611C252.562 56.6012 252.305 53.7694 252.453 53.3577C252.551 52.9721 252.763 51.9715 252.902 51.4583Z" fill="#BB9F50" stroke="#CDAE54" stroke-width="0.2"/>
<path d="M252.453 53.3575C252.305 53.7691 252.562 56.601 252.81 57.7609C252.658 57.6623 251.756 56.8703 251.623 55.8768C251.467 54.7928 251.834 53.0433 251.973 52.771C252.108 52.4793 252.866 51.4956 252.902 51.4582C252.763 51.9714 252.551 52.9719 252.453 53.3575Z" fill="#BB9F50" stroke="#CDAE54" stroke-width="0.2"/>
<path d="M252.244 58.1138L252.317 57.6545C252.302 57.6492 252.185 55.5496 251.956 54.7296C251.714 54.0068 250.259 52.2934 250.082 51.9796C250.625 54.1471 251.36 56.2071 252.244 58.1138Z" fill="#BB9F50" stroke="#CDAE54" stroke-width="0.2"/>
<path d="M250.059 51.9479C250.003 51.9212 249.918 55.8036 250.251 56.6175C250.518 57.4463 251.99 58.097 251.987 58.0695L252.24 58.1429L252.244 58.1139C251.36 56.2072 250.625 54.1472 250.082 51.9797C250.068 51.9595 250.059 51.9479 250.059 51.9479Z" fill="#BB9F50" stroke="#CDAE54" stroke-width="0.2"/>
<path d="M248.867 58.2674L248.862 58.2686C248.854 58.2922 250.036 59.37 250.248 59.6904C250.465 60.028 251.117 61.1311 251.375 61.305C251.622 61.5171 252.839 61.5851 252.936 61.6191C253.033 61.6756 253.398 61.42 253.398 61.4194C253.398 61.4194 253.395 61.4023 253.39 61.3778C252.597 60.8823 250.736 59.1441 250.407 58.9929C250.095 58.9133 249.285 58.5255 248.867 58.2674Z" fill="#BB9F50" stroke="#CDAE54" stroke-width="0.2"/>
<path d="M250.407 58.9926C250.735 59.1437 252.597 60.882 253.39 61.3775C253.329 61.1131 253.058 59.5688 252.48 59.0153C251.844 58.4263 250.534 57.9364 250.26 57.9256C250.006 57.9338 248.919 58.2603 248.867 58.2672C249.285 58.5253 250.095 58.9132 250.407 58.9926Z" fill="#BB9F50" stroke="#CDAE54" stroke-width="0.2"/>
<path d="M253.915 53.7565L253.918 53.7524C253.903 53.7518 253.947 55.3734 254.062 55.7156C254.17 56.0421 254.567 57.0489 254.629 57.3694C254.666 57.6956 254.515 59.2906 254.553 59.4254C254.576 59.5584 254.391 60.0383 254.391 60.0391C254.391 60.0391 254.381 60.0332 254.367 60.0249C254.021 58.9217 253.522 56.162 253.633 55.7258C253.697 55.3245 253.822 54.2919 253.915 53.7565Z" fill="#BB9F50" stroke="#CDAE54" stroke-width="0.2"/>
<path d="M253.633 55.7258C253.522 56.162 254.021 58.9217 254.366 60.0249C254.207 59.9562 253.245 59.3421 253.027 58.3821C252.779 57.3368 252.992 55.5318 253.107 55.2353C253.215 54.9204 253.882 53.8006 253.915 53.7566C253.822 54.292 253.697 55.3246 253.633 55.7258Z" fill="#BB9F50" stroke="#CDAE54" stroke-width="0.2"/>
<path d="M253.835 60.4825L253.868 60.0131C253.852 60.0108 253.556 57.9507 253.258 57.181C252.956 56.5101 251.365 55.0875 251.163 54.8099C251.888 56.8563 252.794 58.7597 253.835 60.4825Z" fill="#BB9F50" stroke="#CDAE54" stroke-width="0.2"/>
<path d="M251.137 54.7829C251.08 54.7671 251.329 58.6338 251.73 59.3776C252.065 60.1489 253.581 60.5142 253.577 60.4874L253.834 60.5121L253.835 60.4825C252.794 58.7598 251.888 56.8563 251.163 54.81C251.147 54.7928 251.137 54.7829 251.137 54.7829Z" fill="#BB9F50" stroke="#CDAE54" stroke-width="0.2"/>
<path d="M250.48 61.4664L250.475 61.4682C250.468 61.4926 251.701 62.4347 251.929 62.7304C252.162 63.0427 252.869 64.0694 253.134 64.2139C253.392 64.3978 254.609 64.3289 254.707 64.352C254.807 64.3974 255.158 64.1016 255.158 64.101C255.158 64.101 255.154 64.0843 255.148 64.0604C254.332 63.6553 252.388 62.131 252.052 62.0171C251.737 61.9727 250.91 61.6768 250.48 61.4664Z" fill="#BB9F50" stroke="#CDAE54" stroke-width="0.2"/>
<path d="M252.052 62.017C252.387 62.1308 254.332 63.6552 255.148 64.0603C255.074 63.8035 254.724 62.2941 254.121 61.807C253.456 61.2911 252.125 60.9495 251.851 60.9695C251.599 61.0061 250.531 61.4538 250.48 61.4664C250.91 61.6769 251.737 61.9727 252.052 62.017Z" fill="#BB9F50" stroke="#CDAE54" stroke-width="0.2"/>
<path d="M255.284 56.4019L255.287 56.3975C255.272 56.3986 255.399 58.0106 255.53 58.339C255.655 58.6524 256.102 59.6118 256.179 59.9245C256.233 60.2456 256.164 61.8529 256.208 61.9831C256.238 62.1132 256.078 62.6124 256.078 62.6132C256.078 62.6132 256.068 62.6084 256.053 62.6018C255.652 61.5405 255.015 58.8447 255.103 58.3972C255.147 57.9899 255.219 56.9462 255.284 56.4019Z" fill="#BB9F50" stroke="#CDAE54" stroke-width="0.2"/>
<path d="M255.103 58.3973C255.015 58.8447 255.652 61.5406 256.053 62.6019C255.89 62.5512 254.899 62.0468 254.634 61.114C254.333 60.0995 254.454 58.2758 254.554 57.9672C254.646 57.641 255.254 56.4497 255.284 56.402C255.218 56.9464 255.147 57.99 255.103 58.3973Z" fill="#BB9F50" stroke="#CDAE54" stroke-width="0.2"/>
<path d="M255.546 63.1178L255.555 62.646C255.539 62.6456 255.139 60.6246 254.803 59.8905C254.468 59.2554 252.809 58.0154 252.594 57.7612C253.421 59.7203 254.421 61.5167 255.546 63.1178Z" fill="#BB9F50" stroke="#CDAE54" stroke-width="0.2"/>
<path d="M252.567 57.737C252.508 57.7277 252.953 61.5554 253.391 62.2521C253.765 62.9835 255.295 63.1777 255.289 63.1516L255.546 63.1474L255.546 63.1176C254.421 61.5166 253.421 59.7202 252.594 57.7611C252.577 57.7457 252.567 57.737 252.567 57.737Z" fill="#BB9F50" stroke="#CDAE54" stroke-width="0.2"/>
<path d="M252.581 65.1104L252.577 65.1139C252.575 65.1399 253.926 65.5976 254.197 65.7999C254.474 66.0166 255.33 66.7504 255.612 66.7924C255.891 66.8756 257.059 66.3596 257.158 66.3457C257.262 66.353 257.553 65.9369 257.553 65.9364C257.553 65.9364 257.546 65.9217 257.537 65.9006C256.679 65.8092 254.54 65.0502 254.196 65.0636C253.884 65.1367 253.033 65.1555 252.581 65.1104Z" fill="#BB9F50" stroke="#CDAE54" stroke-width="0.2"/>
<path d="M254.196 65.0635C254.54 65.0499 256.679 65.809 257.537 65.9004C257.422 65.6791 256.831 64.3458 256.165 64.0966C255.435 63.8422 254.089 64.0024 253.827 64.1229C253.588 64.2515 252.629 65.0792 252.581 65.1104C253.033 65.1555 253.884 65.1366 254.196 65.0635Z" fill="#BB9F50" stroke="#CDAE54" stroke-width="0.2"/>
<path d="M256.39 58.4315L256.392 58.4262C256.378 58.4328 256.769 59.9477 256.951 60.2173C257.125 60.4748 257.718 61.2393 257.845 61.5135C257.951 61.8049 258.152 63.3875 258.216 63.4973C258.267 63.6122 258.196 64.1548 258.196 64.1554C258.196 64.1554 258.185 64.1547 258.17 64.1538C257.604 63.2736 256.537 60.8973 256.548 60.4313C256.522 60.0204 256.417 58.983 256.39 58.4315Z" fill="#BB9F50" stroke="#CDAE54" stroke-width="0.2"/>
<path d="M256.547 60.4313C256.537 60.8972 257.604 63.2736 258.169 64.1538C258.003 64.1647 256.96 64.0417 256.546 63.2362C256.086 62.3642 255.899 60.553 255.944 60.2173C255.978 59.8673 256.369 58.4889 256.39 58.4315C256.417 58.9831 256.522 60.0205 256.547 60.4313Z" fill="#BB9F50" stroke="#CDAE54" stroke-width="0.2"/>
<path d="M257.765 64.8405L257.695 64.3802C257.679 64.3856 256.954 62.5756 256.506 61.9885C256.076 61.4969 254.262 60.9077 254.011 60.741C255.139 62.3336 256.407 63.7049 257.765 64.8405Z" fill="#BB9F50" stroke="#CDAE54" stroke-width="0.2"/>
<path d="M253.981 60.7275C253.922 60.7401 254.992 64.2838 255.532 64.7973C256.017 65.3678 257.531 64.9914 257.521 64.9683L257.77 64.8692L257.765 64.8403C256.407 63.7048 255.139 62.3334 254.011 60.7408C253.992 60.7322 253.981 60.7275 253.981 60.7275Z" fill="#BB9F50" stroke="#CDAE54" stroke-width="0.2"/>
<path d="M255.052 67.6678L255.048 67.6722C255.049 67.6984 256.433 67.817 256.722 67.95C257.02 68.0954 257.946 68.6084 258.228 68.5805C258.513 68.5937 259.607 67.7974 259.703 67.7593C259.807 67.741 260.047 67.259 260.047 67.2586C260.047 67.2586 260.038 67.2458 260.027 67.2272C259.171 67.3483 256.977 67.1261 256.639 67.2241C256.34 67.3729 255.502 67.601 255.052 67.6678Z" fill="#BB9F50" stroke="#CDAE54" stroke-width="0.2"/>
<path d="M256.639 67.2238C256.977 67.1258 259.171 67.3481 260.027 67.227C259.889 67.037 259.158 65.8674 258.474 65.7856C257.725 65.7145 256.415 66.2038 256.17 66.3872C255.949 66.5726 255.095 67.6251 255.052 67.6676C255.502 67.6008 256.34 67.3728 256.639 67.2238Z" fill="#BB9F50" stroke="#CDAE54" stroke-width="0.2"/>
<path d="M258.065 60.1433L258.066 60.1376C258.052 60.1478 258.607 61.5454 258.817 61.7664C259.016 61.9777 259.687 62.5856 259.843 62.8247C259.979 63.0861 260.354 64.5973 260.43 64.6897C260.493 64.7906 260.482 65.3433 260.483 65.3437C260.483 65.3437 260.472 65.3458 260.457 65.3488C259.801 64.6198 258.484 62.539 258.442 62.0768C258.372 61.6779 258.153 60.6806 258.065 60.1433Z" fill="#BB9F50" stroke="#CDAE54" stroke-width="0.2"/>
<path d="M258.442 62.0768C258.484 62.539 259.801 64.6198 260.456 65.3488C260.294 65.4003 259.251 65.536 258.754 64.8433C258.202 64.0967 257.816 62.3566 257.823 62.0145C257.818 61.6607 258.05 60.2053 258.064 60.1434C258.153 60.6807 258.372 61.6779 258.442 62.0768Z" fill="#BB9F50" stroke="#CDAE54" stroke-width="0.2"/>
<path d="M260.134 66.1254L260.014 65.6888C259.999 65.698 259.082 64.0914 258.575 63.6226C258.096 63.2439 256.241 63.1091 255.975 63.0066C257.265 64.2995 258.669 65.3397 260.134 66.1254Z" fill="#BB9F50" stroke="#CDAE54" stroke-width="0.2"/>
<path d="M255.944 63.0011C255.888 63.0277 257.338 66.2592 257.927 66.6327C258.469 67.0761 259.92 66.3321 259.908 66.3117L260.142 66.1529L260.134 66.1255C258.669 65.3398 257.265 64.2996 255.975 63.0067C255.955 63.0029 255.944 63.0011 255.944 63.0011Z" fill="#BB9F50" stroke="#CDAE54" stroke-width="0.2"/>
<path d="M257.553 69.3429L257.55 69.348C257.552 69.3739 258.936 69.2514 259.234 69.3332C259.541 69.4259 260.501 69.7747 260.779 69.698C261.063 69.6616 262.088 68.6807 262.18 68.6261C262.281 68.59 262.482 68.0696 262.482 68.0692C262.482 68.0692 262.473 68.058 262.46 68.0415C261.619 68.3104 259.423 68.4706 259.095 68.6266C258.809 68.8265 257.996 69.1983 257.553 69.3429Z" fill="#BB9F50" stroke="#CDAE54" stroke-width="0.2"/>
<path d="M259.095 68.6265C259.423 68.4705 261.619 68.3104 262.46 68.0415C262.308 67.8768 261.49 66.842 260.804 66.8796C260.055 66.939 258.792 67.6524 258.563 67.877C258.359 68.0996 257.593 69.2932 257.553 69.3429C257.996 69.1983 258.809 68.8265 259.095 68.6265Z" fill="#BB9F50" stroke="#CDAE54" stroke-width="0.2"/>
<path d="M259.954 61.347L259.955 61.3411C259.942 61.3535 260.603 62.6452 260.829 62.8283C261.044 63.0035 261.757 63.4909 261.931 63.7012C262.087 63.9372 262.578 65.373 262.66 65.4515C262.731 65.5408 262.764 66.0915 262.765 66.0918C262.765 66.0918 262.754 66.0957 262.739 66.1014C262.03 65.4913 260.559 63.6535 260.481 63.2016C260.38 62.8177 260.084 61.8653 259.954 61.347Z" fill="#BB9F50" stroke="#CDAE54" stroke-width="0.2"/>
<path d="M260.481 63.2016C260.559 63.6535 262.03 65.4913 262.739 66.1014C262.581 66.1809 261.556 66.4967 261.008 65.8951C260.402 65.2493 259.881 63.5882 259.861 63.2473C259.829 62.8967 259.944 61.4111 259.954 61.347C260.084 61.8653 260.38 62.8177 260.481 63.2016Z" fill="#BB9F50" stroke="#CDAE54" stroke-width="0.2"/>
<path d="M262.479 66.9287L262.326 66.516C262.312 66.5276 261.275 65.0912 260.734 64.7138C260.229 64.4208 258.377 64.609 258.104 64.5533C259.487 65.6134 260.962 66.4028 262.479 66.9287Z" fill="#BB9F50" stroke="#CDAE54" stroke-width="0.2"/>
<path d="M258.072 64.5531C258.019 64.5893 259.713 67.5469 260.328 67.8155C260.9 68.1619 262.283 67.1709 262.269 67.1529L262.489 66.9544L262.48 66.9286C260.962 66.4027 259.487 65.6133 258.104 64.5533C258.084 64.5529 258.072 64.5531 258.072 64.5531Z" fill="#BB9F50" stroke="#CDAE54" stroke-width="0.2"/>
<path d="M260.272 70.7197L260.269 70.7256C260.275 70.7504 261.621 70.2564 261.923 70.2566C262.237 70.2648 263.223 70.3487 263.487 70.1983C263.762 70.0857 264.65 68.8447 264.734 68.7661C264.829 68.7032 264.963 68.1372 264.963 68.137C264.963 68.137 264.952 68.1284 264.938 68.1158C264.144 68.6071 262.004 69.3573 261.701 69.5991C261.444 69.8729 260.689 70.4582 260.272 70.7197Z" fill="#BB9F50" stroke="#CDAE54" stroke-width="0.2"/>
<path d="M261.7 69.5988C262.004 69.357 264.143 68.6069 264.938 68.1155C264.768 67.9946 263.838 67.1976 263.167 67.4198C262.438 67.6803 261.284 68.7226 261.086 69.0053C260.912 69.2794 260.305 70.6598 260.272 70.7195C260.689 70.4579 261.444 69.8727 261.7 69.5988Z" fill="#BB9F50" stroke="#CDAE54" stroke-width="0.2"/>
<path d="M261.656 62.2084L261.657 62.2024C261.646 62.218 262.453 63.3099 262.698 63.429C262.93 63.5434 263.691 63.8302 263.888 63.9901C264.07 64.1801 264.728 65.4595 264.819 65.5144C264.899 65.5833 264.999 66.1159 265 66.1159C265 66.1159 264.99 66.1227 264.975 66.1324C264.204 65.7235 262.533 64.3134 262.401 63.8899C262.255 63.5398 261.847 62.6831 261.656 62.2084Z" fill="#BB9F50" stroke="#CDAE54" stroke-width="0.2"/>
<path d="M262.401 63.8899C262.532 64.3134 264.204 65.7235 264.975 66.1323C264.83 66.2529 263.86 66.8402 263.248 66.3965C262.573 65.925 261.858 64.432 261.797 64.1022C261.722 63.7662 261.654 62.2741 261.656 62.2084C261.847 62.6831 262.255 63.5398 262.401 63.8899Z" fill="#BB9F50" stroke="#CDAE54" stroke-width="0.2"/>
<path d="M264.821 67.016L264.62 66.6516C264.607 66.6668 263.413 65.5341 262.835 65.3088C262.302 65.1573 260.503 65.8421 260.229 65.861C261.718 66.5302 263.265 66.9083 264.821 67.016Z" fill="#BB9F50" stroke="#CDAE54" stroke-width="0.2"/>
<path d="M260.197 65.8691C260.149 65.9192 262.176 68.3705 262.814 68.4686C263.419 68.6548 264.658 67.3069 264.642 67.293L264.834 67.0384L264.821 67.0157C263.265 66.9081 261.718 66.53 260.229 65.8608C260.209 65.8657 260.197 65.8691 260.197 65.8691Z" fill="#BB9F50" stroke="#CDAE54" stroke-width="0.2"/>
<path d="M262.814 71.1596L262.811 71.1657C262.818 71.1901 264.15 70.62 264.452 70.6029C264.766 70.5933 265.754 70.6211 266.014 70.4557C266.286 70.3277 267.141 69.0371 267.223 68.9537C267.316 68.8855 267.436 68.3123 267.435 68.3121C267.435 68.3121 267.425 68.3041 267.41 68.2923C266.629 68.8285 264.51 69.6997 264.213 69.9586C263.963 70.2468 263.224 70.8745 262.814 71.1596Z" fill="#BB9F50" stroke="#CDAE54" stroke-width="0.2"/>
<path d="M264.213 69.9586C264.51 69.6997 266.629 68.8285 267.41 68.2923C267.237 68.1811 266.287 67.4376 265.623 67.6978C264.901 67.9996 263.774 69.1067 263.584 69.4004C263.417 69.6842 262.845 71.0982 262.814 71.1597C263.224 70.8746 263.963 70.2468 264.213 69.9586Z" fill="#BB9F50" stroke="#CDAE54" stroke-width="0.2"/>
<path d="M263.979 62.5762L263.979 62.5702C263.968 62.5864 264.803 63.6316 265.051 63.7368C265.286 63.8378 266.054 64.0812 266.254 64.2297C266.441 64.4092 267.132 65.6504 267.224 65.7001C267.306 65.7643 267.419 66.2908 267.42 66.2909C267.42 66.2909 267.41 66.2982 267.396 66.3087C266.615 65.944 264.908 64.6299 264.766 64.2142C264.611 63.8727 264.182 63.0397 263.979 62.5762Z" fill="#BB9F50" stroke="#CDAE54" stroke-width="0.2"/>
<path d="M264.766 64.214C264.908 64.6298 266.615 65.9438 267.396 66.3085C267.254 66.4373 266.3 67.0793 265.677 66.6707C264.99 66.2379 264.238 64.7866 264.168 64.4605C264.085 64.129 263.979 62.6419 263.979 62.5761C264.182 63.0396 264.611 63.8725 264.766 64.214Z" fill="#BB9F50" stroke="#CDAE54" stroke-width="0.2"/>
<path d="M267.265 67.2001L267.054 66.8475C267.042 66.8634 265.819 65.7994 265.236 65.6071C264.699 65.486 262.92 66.2725 262.646 66.307C264.151 66.8911 265.707 67.1809 267.265 67.2001Z" fill="#BB9F50" stroke="#CDAE54" stroke-width="0.2"/>
<path d="M262.615 66.317C262.568 66.3698 264.656 68.7041 265.296 68.7658C265.906 68.9175 267.109 67.5001 267.093 67.4872L267.279 67.2219L267.265 67.1999C265.707 67.1808 264.151 66.891 262.646 66.3069C262.626 66.313 262.615 66.317 262.615 66.317Z" fill="#BB9F50" stroke="#CDAE54" stroke-width="0.2"/>
<path d="M265.542 70.8947L265.54 70.9009C265.547 70.9248 266.859 70.2598 267.161 70.2212C267.473 70.1891 268.461 70.146 268.715 69.9622C268.983 69.8147 269.795 68.4644 269.874 68.3752C269.965 68.3004 270.066 67.7193 270.066 67.7191C270.066 67.7191 270.055 67.7119 270.039 67.7012C269.277 68.2927 267.188 69.3148 266.9 69.5948C266.66 69.9005 265.943 70.5805 265.542 70.8947Z" fill="#BB9F50" stroke="#CDAE54" stroke-width="0.2"/>
<path d="M266.9 69.5948C267.188 69.3149 269.277 68.2928 270.039 67.7013C269.863 67.6026 268.89 66.9281 268.235 67.2355C267.524 67.5887 266.434 68.7754 266.254 69.0823C266.096 69.3778 265.571 70.8311 265.542 70.8948C265.942 70.5806 266.66 69.9006 266.9 69.5948Z" fill="#BB9F50" stroke="#CDAE54" stroke-width="0.2"/>
<path d="M266.608 63.9469L266.608 63.9409C266.598 63.957 267.433 65.0022 267.68 65.1074C267.915 65.2084 268.683 65.4518 268.884 65.6003C269.071 65.7798 269.761 67.021 269.853 67.0707C269.935 67.1349 270.049 67.6614 270.05 67.6615C270.05 67.6615 270.04 67.6688 270.026 67.6793C269.245 67.3146 267.538 66.0005 267.396 65.5848C267.24 65.2433 266.811 64.4104 266.608 63.9469Z" fill="#BB9F50" stroke="#CDAE54" stroke-width="0.2"/>
<path d="M267.396 65.5849C267.538 66.0006 269.245 67.3147 270.026 67.6794C269.884 67.8081 268.93 68.4501 268.306 68.0416C267.62 67.6088 266.867 66.1575 266.798 65.8314C266.714 65.4999 266.608 64.0127 266.608 63.9469C266.811 64.4104 267.24 65.2434 267.396 65.5849Z" fill="#BB9F50" stroke="#CDAE54" stroke-width="0.2"/>
<path d="M270.026 67.6793L269.815 67.3267C269.803 67.3426 268.58 66.2786 267.997 66.0863C267.46 65.9652 265.681 66.7518 265.407 66.7863C266.912 67.3704 268.468 67.6602 270.026 67.6793Z" fill="#BB9F50" stroke="#CDAE54" stroke-width="0.2"/>
<path d="M265.376 66.7964C265.329 66.8492 267.417 69.1835 268.057 69.2452C268.666 69.3969 269.87 67.9795 269.854 67.9665L270.039 67.7013L270.026 67.6793C268.468 67.6602 266.912 67.3704 265.406 66.7863C265.387 66.7924 265.376 66.7964 265.376 66.7964Z" fill="#BB9F50" stroke="#CDAE54" stroke-width="0.2"/>
<path d="M281.888 31.7418L281.888 31.7346C281.902 31.7189 282.834 33.2446 283.085 33.4953C283.348 33.7483 284.199 34.4962 284.362 34.8401C284.548 35.1615 284.819 36.9274 284.86 37.0625C284.915 37.1935 284.814 37.7745 284.814 37.7743C284.814 37.7743 284.802 37.7728 284.785 37.7711C284.31 36.705 282.815 34.3086 282.654 33.8564C282.543 33.4163 282.136 32.3049 281.888 31.7418Z" fill="#BB9F50" stroke="#CDAE54" stroke-width="0.2"/>
<path d="M282.654 33.8564C282.815 34.3085 284.31 36.7049 284.785 37.7711C284.599 37.7309 283.528 37.6215 283.054 36.8814C282.547 36.0606 281.979 34.2385 281.921 33.8401C281.879 33.4681 281.893 31.8187 281.888 31.7418C282.136 32.3049 282.543 33.4163 282.654 33.8564Z" fill="#BB9F50" stroke="#CDAE54" stroke-width="0.2"/>
<path d="M279.846 39.9553L279.844 39.9604C279.84 39.9385 280.92 39.7015 281.168 39.8049C281.404 39.9028 282.143 40.2954 282.366 40.3258C282.589 40.319 283.615 39.8022 283.711 39.832C283.803 39.8411 284.086 39.4819 284.086 39.4824C284.086 39.4824 284.081 39.4685 284.072 39.4486C283.279 39.149 281.362 38.934 281.095 39.1768C280.842 39.3458 280.182 39.7195 279.846 39.9553Z" fill="#BB9F50" stroke="#CDAE54" stroke-width="0.2"/>
<path d="M281.095 39.1766C281.362 38.9338 283.279 39.1487 284.072 39.4484C283.997 39.2281 283.412 37.9368 282.737 37.7974C282 37.6295 280.847 38.2766 280.673 38.4995C280.485 38.7166 279.869 39.899 279.846 39.9552C280.182 39.7193 280.842 39.3456 281.095 39.1766Z" fill="#BB9F50" stroke="#CDAE54" stroke-width="0.2"/>
<path d="M284.276 38.5877L283.972 38.723C283.967 38.7002 282.551 38.6503 281.987 38.3585C281.487 38.0422 280.251 35.9832 280.03 35.7397C281.517 36.4185 282.944 37.3873 284.276 38.5877Z" fill="#BB9F50" stroke="#CDAE54" stroke-width="0.2"/>
<path d="M280.007 35.7067C279.986 35.6253 282.588 35.2702 283.154 35.7173C283.726 36.0642 284.25 38.2105 284.231 38.2087L284.295 38.5794L284.276 38.5875C282.944 37.3871 281.517 36.4183 280.03 35.7395C280.016 35.7191 280.007 35.7067 280.007 35.7067Z" fill="#BB9F50" stroke="#CDAE54" stroke-width="0.2"/>
<path d="M284.627 33.3307L284.628 33.3236C284.643 33.3101 285.463 34.9715 285.696 35.2596C285.94 35.5519 286.734 36.427 286.872 36.7942C287.034 37.1426 287.181 38.9408 287.212 39.0815C287.258 39.2203 287.117 39.7825 287.116 39.7824C287.116 39.7824 287.105 39.7789 287.088 39.7747C286.69 38.641 285.37 36.0268 285.241 35.5522C285.162 35.0974 284.835 33.9291 284.627 33.3307Z" fill="#BB9F50" stroke="#CDAE54" stroke-width="0.2"/>
<path d="M285.241 35.5521C285.37 36.0266 286.69 38.6408 287.088 39.7746C286.905 39.7058 285.848 39.4317 285.429 38.6226C284.981 37.7279 284.544 35.828 284.514 35.4228C284.498 35.0464 284.627 33.408 284.627 33.3307C284.835 33.9291 285.162 35.0973 285.241 35.5521Z" fill="#BB9F50" stroke="#CDAE54" stroke-width="0.2"/>
<path d="M282.023 41.1846L282.02 41.1893C282.019 41.167 283.109 41.098 283.348 41.2391C283.576 41.3729 284.284 41.8774 284.504 41.9421C284.726 41.9697 285.782 41.6141 285.876 41.6585C285.967 41.6819 286.273 41.3682 286.274 41.3688C286.274 41.3688 286.269 41.3541 286.262 41.3331C285.494 40.9125 283.603 40.4029 283.319 40.6031C283.056 40.7321 282.374 41.002 282.023 41.1846Z" fill="#BB9F50" stroke="#CDAE54" stroke-width="0.2"/>
<path d="M283.319 40.6032C283.603 40.403 285.494 40.9127 286.262 41.3332C286.203 41.1025 285.711 39.7278 285.05 39.485C284.328 39.2043 283.136 39.6699 282.947 39.8647C282.745 40.0516 282.05 41.1325 282.023 41.1848C282.374 41.0022 283.056 40.7323 283.319 40.6032Z" fill="#BB9F50" stroke="#CDAE54" stroke-width="0.2"/>
<path d="M286.525 40.508L286.213 40.5956C286.21 40.5722 284.804 40.3039 284.264 39.9266C283.789 39.535 282.703 37.2962 282.5 37.02C283.932 37.9247 285.283 39.1085 286.525 40.508Z" fill="#BB9F50" stroke="#CDAE54" stroke-width="0.2"/>
<path d="M282.48 36.984C282.465 36.8997 285.077 36.9482 285.609 37.4803C286.154 37.9136 286.525 40.1291 286.506 40.1245L286.544 40.503L286.525 40.5081C285.283 39.1085 283.932 37.9248 282.5 37.0201C282.488 36.9976 282.48 36.984 282.48 36.984Z" fill="#BB9F50" stroke="#CDAE54" stroke-width="0.2"/>
<path d="M286.64 35.4408L286.641 35.4339C286.657 35.4246 287.269 37.2744 287.464 37.6187C287.67 37.9701 288.348 39.0388 288.44 39.4363C288.559 39.8217 288.491 41.6303 288.505 41.7769C288.534 41.9255 288.329 42.4422 288.328 42.4419C288.328 42.4419 288.317 42.4355 288.301 42.4269C288.043 41.2069 287.053 38.2889 286.982 37.7881C286.958 37.3197 286.774 36.0842 286.64 35.4408Z" fill="#BB9F50" stroke="#CDAE54" stroke-width="0.2"/>
<path d="M286.982 37.788C287.052 38.2887 288.043 41.2068 288.301 42.4268C288.13 42.3115 287.121 41.7656 286.804 40.8597C286.469 39.862 286.263 37.8776 286.281 37.4708C286.31 37.0962 286.63 35.5168 286.64 35.4408C286.773 36.0841 286.958 37.3196 286.982 37.788Z" fill="#BB9F50" stroke="#CDAE54" stroke-width="0.2"/>
<path d="M283.148 42.4931L283.145 42.497C283.146 42.4747 284.228 42.6914 284.447 42.8926C284.655 43.0838 285.292 43.7652 285.501 43.8863C285.716 43.9713 286.798 43.897 286.885 43.9652C286.972 44.0119 287.311 43.7831 287.311 43.7839C287.311 43.7839 287.308 43.7681 287.304 43.7456C286.597 43.1312 284.796 42.1358 284.493 42.259C284.219 42.3172 283.516 42.4049 283.148 42.4931Z" fill="#BB9F50" stroke="#CDAE54" stroke-width="0.2"/>
<path d="M284.493 42.2589C284.796 42.1358 286.597 43.1311 287.304 43.7456C287.273 43.503 286.951 42.0214 286.329 41.6097C285.652 41.145 284.423 41.2922 284.214 41.4346C283.993 41.5659 283.181 42.4486 283.148 42.4931C283.515 42.4049 284.219 42.3172 284.493 42.2589Z" fill="#BB9F50" stroke="#CDAE54" stroke-width="0.2"/>
<path d="M287.66 43.0022L287.343 43.007C287.343 42.9833 285.991 42.3523 285.503 41.8397C285.082 41.3302 284.277 38.8429 284.11 38.5181C285.413 39.7824 286.603 41.3004 287.66 43.0022Z" fill="#BB9F50" stroke="#CDAE54" stroke-width="0.2"/>
<path d="M284.095 38.4771C284.089 38.39 286.656 39.1196 287.116 39.7823C287.601 40.3511 287.705 42.6289 287.687 42.6196L287.68 43.0021L287.66 43.002C286.603 41.3002 285.413 39.7822 284.11 38.5179C284.1 38.4924 284.095 38.4771 284.095 38.4771Z" fill="#BB9F50" stroke="#CDAE54" stroke-width="0.2"/>
<path d="M288.279 38.0435L288.281 38.0369C288.299 38.0313 288.724 39.9932 288.883 40.3758C289.052 40.7679 289.619 41.9712 289.672 42.3844C289.752 42.7914 289.509 44.5663 289.508 44.7143C289.522 44.8676 289.269 45.3346 289.268 45.3343C289.268 45.3343 289.258 45.3255 289.243 45.3136C289.107 44.0509 288.411 40.9505 288.39 40.4397C288.411 39.971 288.349 38.7089 288.279 38.0435Z" fill="#BB9F50" stroke="#CDAE54" stroke-width="0.2"/>
<path d="M288.389 40.4396C288.41 40.9502 289.106 44.0508 289.243 45.3134C289.084 45.1625 288.139 44.4051 287.914 43.4406C287.68 42.3813 287.669 40.3735 287.727 39.9749C287.792 39.6105 288.263 38.1166 288.279 38.0435C288.349 38.7088 288.411 39.971 288.389 40.4396Z" fill="#BB9F50" stroke="#CDAE54" stroke-width="0.2"/>
<path d="M284.138 44.2699L284.135 44.2731C284.138 44.2513 285.187 44.6985 285.384 44.9447C285.571 45.1787 286.136 45.9901 286.331 46.1549C286.535 46.2853 287.613 46.4447 287.692 46.5308C287.774 46.5958 288.131 46.4422 288.131 46.4431C288.131 46.4431 288.13 46.4269 288.128 46.4037C287.489 45.6436 285.803 44.271 285.492 44.3278C285.214 44.3262 284.51 44.2617 284.138 44.2699Z" fill="#BB9F50" stroke="#CDAE54" stroke-width="0.2"/>
<path d="M285.492 44.3278C285.803 44.271 287.489 45.6436 288.128 46.4037C288.121 46.157 287.947 44.6217 287.371 44.0804C286.746 43.4749 285.516 43.3561 285.295 43.452C285.064 43.5343 284.175 44.2329 284.138 44.27C284.51 44.2618 285.214 44.3263 285.492 44.3278Z" fill="#BB9F50" stroke="#CDAE54" stroke-width="0.2"/>
<path d="M288.553 45.7447L288.238 45.6812C288.24 45.6577 286.964 44.7423 286.531 44.1302C286.164 43.5355 285.611 40.9012 285.477 40.5438C286.643 42.0753 287.673 43.8335 288.553 45.7447Z" fill="#BB9F50" stroke="#CDAE54" stroke-width="0.2"/>
<path d="M285.465 40.5001C285.469 40.4129 287.937 41.6871 288.328 42.442C288.753 43.1093 288.633 45.3854 288.617 45.3723L288.572 45.7492L288.553 45.7449C287.673 43.8335 286.643 42.0754 285.477 40.5439C285.469 40.5165 285.465 40.5001 285.465 40.5001Z" fill="#BB9F50" stroke="#CDAE54" stroke-width="0.2"/>
<path d="M290.401 41.3999L290.404 41.3945C290.421 41.397 290.426 43.4581 290.5 43.8945C290.581 44.3446 290.875 45.7469 290.841 46.1644C290.835 46.5884 290.241 48.1698 290.21 48.3105C290.192 48.4629 289.855 48.7936 289.855 48.7931C289.855 48.7931 289.847 48.78 289.835 48.7619C289.963 47.4973 289.932 44.229 290.017 43.7328C290.133 43.296 290.331 42.0654 290.401 41.3999Z" fill="#BB9F50" stroke="#CDAE54" stroke-width="0.2"/>
<path d="M290.016 43.7326C289.932 44.2286 289.963 47.497 289.835 48.7616C289.715 48.5463 288.969 47.3983 288.951 46.3776C288.944 45.2625 289.344 43.3445 289.48 42.9908C289.617 42.673 290.37 41.4619 290.401 41.3998C290.331 42.0652 290.133 43.2958 290.016 43.7326Z" fill="#BB9F50" stroke="#CDAE54" stroke-width="0.2"/>
<path d="M285.184 45.464L285.18 45.4656C285.187 45.4462 286.096 46.3459 286.233 46.6691C286.364 46.9768 286.736 48.0045 286.888 48.2495C287.056 48.466 288.051 49.1043 288.109 49.2221C288.173 49.3208 288.545 49.3357 288.545 49.3367C288.545 49.3367 288.547 49.3206 288.55 49.2977C288.096 48.2849 286.77 46.2164 286.462 46.1301C286.198 46.0033 285.54 45.624 285.184 45.464Z" fill="#BB9F50" stroke="#CDAE54" stroke-width="0.2"/>
<path d="M286.462 46.1298C286.77 46.2162 288.096 48.2847 288.55 49.2974C288.593 49.0591 288.741 47.5178 288.303 46.7421C287.831 45.8834 286.684 45.2152 286.453 45.2068C286.216 45.1808 285.226 45.4451 285.184 45.464C285.54 45.624 286.198 46.0032 286.462 46.1298Z" fill="#BB9F50" stroke="#CDAE54" stroke-width="0.2"/>
<path d="M289.089 48.8611L288.802 48.6586C288.809 48.6373 287.78 47.1892 287.493 46.4107C287.264 45.6784 287.274 42.9186 287.22 42.5177C288.018 44.503 288.641 46.643 289.089 48.8611Z" fill="#BB9F50" stroke="#CDAE54" stroke-width="0.2"/>
<path d="M287.218 42.4706C287.239 42.389 289.331 44.7168 289.549 45.6127C289.818 46.4401 289.239 48.5549 289.226 48.5351L289.107 48.8741L289.089 48.861C288.641 46.6429 288.018 44.5029 287.22 42.5175C287.219 42.4881 287.218 42.4706 287.218 42.4706Z" fill="#BB9F50" stroke="#CDAE54" stroke-width="0.2"/>
<path d="M291.445 45.3244L291.448 45.3199C291.465 45.3272 291.213 47.3538 291.231 47.803C291.255 48.2677 291.369 49.7268 291.284 50.1277C291.224 50.5425 290.443 51.9328 290.396 52.0626C290.359 52.2073 289.987 52.4395 289.987 52.439C289.987 52.439 289.98 52.4239 289.971 52.4029C290.254 51.1953 290.632 47.9754 290.776 47.511C290.945 47.1138 291.294 45.9592 291.445 45.3244Z" fill="#BB9F50" stroke="#CDAE54" stroke-width="0.2"/>
<path d="M290.776 47.5108C290.632 47.9751 290.254 51.1952 289.971 52.4027C289.88 52.158 289.29 50.8243 289.4 49.8165C289.532 48.7187 290.163 46.9441 290.342 46.6341C290.515 46.3595 291.407 45.3769 291.445 45.3243C291.294 45.9592 290.945 47.1137 290.776 47.5108Z" fill="#BB9F50" stroke="#CDAE54" stroke-width="0.2"/>
<path d="M285.811 47.8805L285.807 47.881C285.817 47.864 286.598 48.9984 286.692 49.3538C286.783 49.6923 287.02 50.8047 287.139 51.0874C287.277 51.3465 288.175 52.2477 288.217 52.3794C288.268 52.4942 288.632 52.6113 288.632 52.6123C288.632 52.6123 288.636 52.597 288.641 52.5753C288.322 51.455 287.276 49.057 286.984 48.8872C286.741 48.6899 286.141 48.1359 285.811 47.8805Z" fill="#BB9F50" stroke="#CDAE54" stroke-width="0.2"/>
<path d="M286.984 48.8869C287.276 49.0567 288.322 51.4547 288.642 52.575C288.714 52.3527 289.051 50.8789 288.717 49.9959C288.361 49.0221 287.316 48.0492 287.091 47.9776C286.861 47.8867 285.855 47.8736 285.811 47.8804C286.141 48.1358 286.741 48.6897 286.984 48.8869Z" fill="#BB9F50" stroke="#CDAE54" stroke-width="0.2"/>
<path d="M289.226 52.2949L288.969 52.0169C288.979 51.9979 288.148 50.2913 287.962 49.4471C287.829 48.6645 288.183 45.9553 288.18 45.5464C288.717 47.7173 289.062 49.9917 289.226 52.2949Z" fill="#BB9F50" stroke="#CDAE54" stroke-width="0.2"/>
<path d="M288.184 45.4998C288.214 45.4254 289.98 48.2892 290.083 49.2298C290.244 50.1169 289.412 52.0357 289.401 52.0127L289.242 52.3129L289.226 52.2951C289.062 49.9919 288.717 47.7174 288.18 45.5465C288.182 45.5172 288.184 45.4998 288.184 45.4998Z" fill="#BB9F50" stroke="#CDAE54" stroke-width="0.2"/>
<path d="M292.229 49.97L292.233 49.9673C292.248 49.9815 291.617 51.8168 291.548 52.2548C291.482 52.7104 291.311 54.1574 291.153 54.5053C291.016 54.8777 290.001 55.8788 289.93 55.9829C289.867 56.1061 289.466 56.1708 289.466 56.1701C289.466 56.1701 289.462 56.153 289.458 56.1288C289.961 55.0917 290.941 52.1659 291.168 51.7821C291.406 51.473 291.962 50.5143 292.229 49.97Z" fill="#BB9F50" stroke="#CDAE54" stroke-width="0.2"/>
<path d="M291.168 51.782C290.941 52.1656 289.961 55.0915 289.457 56.1287C289.417 55.8555 289.108 54.3271 289.406 53.4076C289.744 52.4115 290.69 50.9788 290.92 50.7573C291.139 50.5678 292.182 50.0042 292.229 49.97C291.962 50.5143 291.406 51.473 291.168 51.782Z" fill="#BB9F50" stroke="#CDAE54" stroke-width="0.2"/>
<path d="M286.339 50.0299L286.335 50.0286C286.348 50.0165 286.878 51.4349 286.9 51.8156C286.922 52.1784 286.936 53.3452 286.996 53.6666C287.079 53.9736 287.766 55.2183 287.781 55.3624C287.808 55.494 288.134 55.7604 288.134 55.7615C288.134 55.7615 288.141 55.7485 288.15 55.7301C288.059 54.5206 287.517 51.7789 287.27 51.4922C287.074 51.1997 286.606 50.4146 286.339 50.0299Z" fill="#BB9F50" stroke="#CDAE54" stroke-width="0.2"/>
<path d="M287.27 51.4922C287.517 51.7789 288.059 54.5207 288.15 55.7301C288.262 55.5478 288.868 54.2783 288.718 53.2903C288.563 52.2059 287.749 50.8303 287.547 50.6661C287.344 50.4814 286.382 50.0421 286.339 50.03C286.606 50.4147 287.074 51.1999 287.27 51.4922Z" fill="#BB9F50" stroke="#CDAE54" stroke-width="0.2"/>
<path d="M288.764 55.7092L288.571 55.3339C288.584 55.3197 288.115 53.3316 288.1 52.4439C288.122 51.6374 288.982 49.191 289.057 48.7976C289.155 51.1061 289.049 53.4323 288.764 55.7092Z" fill="#BB9F50" stroke="#CDAE54" stroke-width="0.2"/>
<path d="M289.07 48.7547C289.113 48.6964 290.255 52.19 290.174 53.1354C290.158 54.0537 288.992 55.5397 288.986 55.5132L288.776 55.7333L288.764 55.7094C289.049 53.4324 289.155 51.1063 289.057 48.7978C289.065 48.7706 289.07 48.7547 289.07 48.7547Z" fill="#BB9F50" stroke="#CDAE54" stroke-width="0.2"/>
<path d="M292.21 54.9423L292.214 54.9426C292.224 54.9645 291.145 56.2582 290.962 56.6164C290.776 56.9923 290.224 58.2104 289.984 58.4319C289.757 58.6893 288.555 58.9883 288.462 59.0405C288.371 59.1149 287.987 58.9308 287.987 58.9302C287.987 58.9302 287.989 58.9127 287.991 58.8876C288.735 58.2453 290.432 56.1673 290.745 55.9547C291.047 55.8166 291.817 55.2778 292.21 54.9423Z" fill="#BB9F50" stroke="#CDAE54" stroke-width="0.2"/>
<path d="M290.745 55.9546C290.432 56.167 288.735 58.2452 287.991 58.8875C288.029 58.6135 288.165 57.0303 288.69 56.3716C289.271 55.6663 290.528 54.9312 290.799 54.8684C291.051 54.8283 292.158 54.9453 292.21 54.9423C291.817 55.2778 291.047 55.8166 290.745 55.9546Z" fill="#BB9F50" stroke="#CDAE54" stroke-width="0.2"/>
<path d="M286.815 51.4286L286.811 51.4251C286.826 51.4217 286.922 53.0384 286.838 53.3995C286.758 53.744 286.451 54.8181 286.418 55.1477C286.409 55.4782 286.696 57.0314 286.67 57.1722C286.659 57.3086 286.883 57.7493 286.883 57.7503C286.883 57.7503 286.892 57.7424 286.906 57.7314C287.154 56.5715 287.411 53.7397 287.264 53.3281C287.165 52.9424 286.953 51.9419 286.815 51.4286Z" fill="#BB9F50" stroke="#CDAE54" stroke-width="0.2"/>
<path d="M287.264 53.3278C287.411 53.7395 287.154 56.5713 286.906 57.7312C287.059 57.6326 287.96 56.8406 288.093 55.8471C288.25 54.7632 287.883 53.0136 287.743 52.7413C287.609 52.4496 286.851 51.466 286.815 51.4285C286.953 51.9418 287.165 52.9423 287.264 53.3278Z" fill="#BB9F50" stroke="#CDAE54" stroke-width="0.2"/>
<path d="M287.472 58.0843L287.4 57.6249C287.415 57.6197 287.532 55.5201 287.761 54.7C288.003 53.9772 289.458 52.2638 289.634 51.9501C289.091 54.1175 288.357 56.1776 287.472 58.0843Z" fill="#BB9F50" stroke="#CDAE54" stroke-width="0.2"/>
<path d="M289.658 51.9183C289.714 51.8915 289.799 55.7739 289.466 56.5879C289.199 57.4166 287.727 58.0673 287.729 58.0399L287.477 58.1132L287.472 58.0842C288.357 56.1775 289.091 54.1175 289.634 51.95C289.649 51.9299 289.658 51.9183 289.658 51.9183Z" fill="#BB9F50" stroke="#CDAE54" stroke-width="0.2"/>
<path d="M290.85 58.2379L290.855 58.2392C290.862 58.2628 289.681 59.3406 289.468 59.661C289.252 59.9986 288.6 61.1016 288.342 61.2755C288.095 61.4877 286.877 61.5557 286.781 61.5897C286.684 61.6462 286.319 61.3905 286.319 61.39C286.319 61.39 286.322 61.3729 286.326 61.3484C287.119 60.8529 288.981 59.1147 289.31 58.9635C289.621 58.8839 290.432 58.4961 290.85 58.2379Z" fill="#BB9F50" stroke="#CDAE54" stroke-width="0.2"/>
<path d="M289.31 58.9633C288.981 59.1144 287.119 60.8527 286.326 61.3483C286.388 61.0838 286.659 59.5395 287.236 58.986C287.873 58.397 289.183 57.9071 289.457 57.8963C289.711 57.9045 290.798 58.231 290.85 58.2379C290.432 58.496 289.621 58.8839 289.31 58.9633Z" fill="#BB9F50" stroke="#CDAE54" stroke-width="0.2"/>
<path d="M285.802 53.7269L285.799 53.7228C285.814 53.7223 285.77 55.3439 285.655 55.6861C285.547 56.0126 285.15 57.0194 285.088 57.3399C285.051 57.6661 285.202 59.2611 285.164 59.3958C285.141 59.5289 285.326 60.0087 285.325 60.0096C285.325 60.0096 285.336 60.0037 285.35 59.9954C285.696 58.8922 286.195 56.1325 286.084 55.6962C286.019 55.295 285.895 54.2623 285.802 53.7269Z" fill="#BB9F50" stroke="#CDAE54" stroke-width="0.2"/>
<path d="M286.084 55.6962C286.195 56.1325 285.696 58.8922 285.35 59.9954C285.51 59.9266 286.472 59.3125 286.69 58.3526C286.938 57.3072 286.725 55.5023 286.61 55.2057C286.501 54.8908 285.835 53.7711 285.802 53.7271C285.895 54.2624 286.019 55.2951 286.084 55.6962Z" fill="#BB9F50" stroke="#CDAE54" stroke-width="0.2"/>
<path d="M285.881 60.4531L285.849 59.9836C285.864 59.9814 286.161 57.9213 286.459 57.1515C286.761 56.4807 288.351 55.0581 288.553 54.7805C287.828 56.8268 286.923 58.7303 285.881 60.4531Z" fill="#BB9F50" stroke="#CDAE54" stroke-width="0.2"/>
<path d="M288.579 54.7534C288.637 54.7375 288.388 58.6043 287.987 59.3481C287.651 60.1193 286.135 60.4847 286.14 60.4579L285.883 60.4826L285.881 60.453C286.923 58.7302 287.828 56.8268 288.553 54.7805C288.57 54.7632 288.579 54.7534 288.579 54.7534Z" fill="#BB9F50" stroke="#CDAE54" stroke-width="0.2"/>
<path d="M289.237 61.437L289.242 61.4387C289.248 61.4632 288.015 62.4053 287.787 62.701C287.554 63.0133 286.848 64.04 286.582 64.1845C286.325 64.3683 285.108 64.2995 285.009 64.3226C284.91 64.368 284.559 64.0722 284.559 64.0716C284.559 64.0716 284.563 64.0549 284.569 64.031C285.384 63.6259 287.329 62.1016 287.665 61.9876C287.979 61.9433 288.807 61.6474 289.237 61.437Z" fill="#BB9F50" stroke="#CDAE54" stroke-width="0.2"/>
<path d="M287.665 61.9876C287.329 62.1014 285.384 63.6258 284.569 64.0309C284.643 63.7741 284.992 62.2647 285.596 61.7775C286.261 61.2617 287.592 60.9201 287.866 60.9401C288.118 60.9767 289.186 61.4243 289.237 61.437C288.807 61.6475 287.979 61.9433 287.665 61.9876Z" fill="#BB9F50" stroke="#CDAE54" stroke-width="0.2"/>
<path d="M284.432 56.3724L284.43 56.3679C284.445 56.3691 284.318 57.9811 284.187 58.3094C284.062 58.6228 283.615 59.5822 283.537 59.8949C283.484 60.216 283.553 61.8234 283.509 61.9536C283.479 62.0836 283.639 62.5828 283.638 62.5836C283.638 62.5836 283.649 62.5789 283.664 62.5723C284.065 61.511 284.702 58.8151 284.614 58.3677C284.57 57.9603 284.498 56.9167 284.432 56.3724Z" fill="#BB9F50" stroke="#CDAE54" stroke-width="0.2"/>
<path d="M284.614 58.3676C284.702 58.8151 284.065 61.5109 283.664 62.5722C283.827 62.5215 284.817 62.0172 285.083 61.0844C285.383 60.0698 285.263 58.2461 285.163 57.9375C285.071 57.6113 284.463 56.42 284.432 56.3724C284.498 56.9167 284.57 57.9604 284.614 58.3676Z" fill="#BB9F50" stroke="#CDAE54" stroke-width="0.2"/>
<path d="M284.17 63.0882L284.161 62.6165C284.177 62.616 284.578 60.595 284.914 59.8609C285.249 59.2258 286.907 57.9858 287.123 57.7317C286.296 59.6908 285.296 61.4872 284.17 63.0882Z" fill="#BB9F50" stroke="#CDAE54" stroke-width="0.2"/>
<path d="M287.15 57.7077C287.208 57.6984 286.763 61.5261 286.326 62.2228C285.952 62.9542 284.422 63.1484 284.428 63.1223L284.171 63.1181L284.17 63.0883C285.296 61.4873 286.296 59.6909 287.123 57.7318C287.14 57.7164 287.15 57.7077 287.15 57.7077Z" fill="#BB9F50" stroke="#CDAE54" stroke-width="0.2"/>
<path d="M287.136 65.0808L287.14 65.0842C287.142 65.1103 285.79 65.5679 285.52 65.7702C285.242 65.9869 284.386 66.7207 284.105 66.7627C283.825 66.8459 282.657 66.33 282.558 66.316C282.454 66.3234 282.164 65.9072 282.164 65.9067C282.164 65.9067 282.171 65.8921 282.18 65.871C283.038 65.7795 285.176 65.0205 285.52 65.034C285.832 65.1071 286.684 65.1259 287.136 65.0808Z" fill="#BB9F50" stroke="#CDAE54" stroke-width="0.2"/>
<path d="M285.52 65.034C285.176 65.0205 283.038 65.7796 282.18 65.871C282.295 65.6497 282.885 64.3164 283.551 64.0672C284.282 63.8128 285.628 63.973 285.89 64.0935C286.128 64.2221 287.088 65.0497 287.136 65.0809C286.684 65.126 285.832 65.1072 285.52 65.034Z" fill="#BB9F50" stroke="#CDAE54" stroke-width="0.2"/>
<path d="M283.326 58.4019L283.325 58.3966C283.339 58.4033 282.947 59.9182 282.765 60.1878C282.592 60.4453 281.999 61.2098 281.871 61.484C281.766 61.7754 281.565 63.358 281.5 63.4677C281.45 63.5827 281.521 64.1253 281.52 64.1259C281.52 64.1259 281.531 64.1252 281.547 64.1243C282.112 63.2441 283.18 60.8677 283.169 60.4017C283.194 59.9909 283.299 58.9535 283.326 58.4019Z" fill="#BB9F50" stroke="#CDAE54" stroke-width="0.2"/>
<path d="M283.169 60.4016C283.18 60.8676 282.113 63.2439 281.547 64.1242C281.713 64.1351 282.757 64.012 283.17 63.2065C283.631 62.3346 283.818 60.5233 283.773 60.1877C283.738 59.8377 283.348 58.4592 283.326 58.4018C283.299 58.9534 283.194 59.9908 283.169 60.4016Z" fill="#BB9F50" stroke="#CDAE54" stroke-width="0.2"/>
<path d="M281.952 64.8108L282.022 64.3505C282.037 64.356 282.762 62.546 283.21 61.9588C283.641 61.4672 285.455 60.878 285.706 60.7113C284.578 62.3039 283.309 63.6752 281.952 64.8108Z" fill="#BB9F50" stroke="#CDAE54" stroke-width="0.2"/>
<path d="M285.736 60.698C285.794 60.7105 284.724 64.2543 284.184 64.7678C283.7 65.3383 282.185 64.9619 282.196 64.9387L281.947 64.8397L281.952 64.8108C283.309 63.6752 284.578 62.3039 285.706 60.7113C285.725 60.7027 285.736 60.698 285.736 60.698Z" fill="#BB9F50" stroke="#CDAE54" stroke-width="0.2"/>
<path d="M284.665 67.6382L284.669 67.6426C284.668 67.6689 283.284 67.7875 282.995 67.9205C282.697 68.0659 281.771 68.5789 281.489 68.551C281.204 68.5642 280.109 67.7679 280.013 67.7298C279.91 67.7114 279.67 67.2294 279.67 67.229C279.67 67.229 279.678 67.2162 279.69 67.1977C280.546 67.3187 282.739 67.0965 283.077 67.1945C283.377 67.3434 284.214 67.5715 284.665 67.6382Z" fill="#BB9F50" stroke="#CDAE54" stroke-width="0.2"/>
<path d="M283.077 67.1945C282.74 67.0965 280.546 67.3188 279.69 67.1977C279.828 67.0077 280.558 65.8381 281.243 65.7563C281.992 65.6852 283.301 66.1745 283.546 66.3579C283.767 66.5433 284.621 67.5958 284.665 67.6383C284.214 67.5716 283.377 67.3435 283.077 67.1945Z" fill="#BB9F50" stroke="#CDAE54" stroke-width="0.2"/>
<path d="M281.652 60.1138L281.651 60.1081C281.664 60.1182 281.109 61.5158 280.9 61.7368C280.7 61.9482 280.03 62.5561 279.874 62.7952C279.738 63.0566 279.363 64.5678 279.287 64.6602C279.224 64.7611 279.234 65.3138 279.234 65.3142C279.234 65.3142 279.245 65.3162 279.26 65.3192C279.916 64.5903 281.233 62.5095 281.274 62.0473C281.345 61.6483 281.564 60.6511 281.652 60.1138Z" fill="#BB9F50" stroke="#CDAE54" stroke-width="0.2"/>
<path d="M281.274 62.0473C281.233 62.5095 279.916 64.5903 279.26 65.3192C279.423 65.3708 280.466 65.5064 280.963 64.8137C281.514 64.0671 281.901 62.327 281.894 61.9849C281.898 61.6312 281.667 60.1758 281.652 60.1138C281.564 60.6511 281.345 61.6484 281.274 62.0473Z" fill="#BB9F50" stroke="#CDAE54" stroke-width="0.2"/>
<path d="M279.583 66.0959L279.703 65.6592C279.718 65.6684 280.634 64.0619 281.142 63.5931C281.621 63.2143 283.475 63.0796 283.742 62.9771C282.451 64.27 281.048 65.3102 279.583 66.0959Z" fill="#BB9F50" stroke="#CDAE54" stroke-width="0.2"/>
<path d="M283.773 62.9714C283.829 62.9981 282.379 66.2295 281.789 66.603C281.248 67.0465 279.796 66.3024 279.809 66.2821L279.575 66.1232L279.583 66.0958C281.048 65.3102 282.451 64.27 283.741 62.977C283.761 62.9732 283.773 62.9714 283.773 62.9714Z" fill="#BB9F50" stroke="#CDAE54" stroke-width="0.2"/>
<path d="M282.164 69.3133L282.167 69.3184C282.164 69.3444 280.78 69.2218 280.483 69.3037C280.176 69.3964 279.216 69.7451 278.938 69.6684C278.653 69.632 277.629 68.6512 277.537 68.5966C277.435 68.5604 277.234 68.04 277.235 68.0397C277.235 68.0397 277.244 68.0284 277.257 68.012C278.098 68.2809 280.294 68.441 280.622 68.597C280.908 68.7969 281.721 69.1688 282.164 69.3133Z" fill="#BB9F50" stroke="#CDAE54" stroke-width="0.2"/>
<path d="M280.622 68.5972C280.294 68.4412 278.098 68.2811 277.257 68.0122C277.409 67.8475 278.227 66.8127 278.913 66.8503C279.662 66.9097 280.924 67.6231 281.153 67.8477C281.358 68.0703 282.124 69.2639 282.164 69.3136C281.721 69.169 280.908 68.7972 280.622 68.5972Z" fill="#BB9F50" stroke="#CDAE54" stroke-width="0.2"/>
<path d="M279.763 61.3174L279.762 61.3115C279.774 61.3239 279.113 62.6156 278.888 62.7987C278.673 62.9739 277.96 63.4614 277.786 63.6717C277.63 63.9077 277.139 65.3435 277.056 65.422C276.986 65.5113 276.953 66.062 276.952 66.0623C276.952 66.0623 276.963 66.0662 276.978 66.0719C277.686 65.4618 279.158 63.6239 279.235 63.172C279.337 62.7881 279.633 61.8357 279.763 61.3174Z" fill="#BB9F50" stroke="#CDAE54" stroke-width="0.2"/>
<path d="M279.235 63.172C279.158 63.6239 277.686 65.4618 276.978 66.0719C277.135 66.1513 278.161 66.4672 278.709 65.8655C279.315 65.2197 279.835 63.5586 279.855 63.2177C279.888 62.8672 279.772 61.3815 279.762 61.3174C279.633 61.8358 279.337 62.7881 279.235 63.172Z" fill="#BB9F50" stroke="#CDAE54" stroke-width="0.2"/>
<path d="M277.237 66.8992L277.391 66.4864C277.405 66.4981 278.442 65.0617 278.982 64.6842C279.488 64.3913 281.34 64.5794 281.613 64.5238C280.23 65.5839 278.754 66.3733 277.237 66.8992Z" fill="#BB9F50" stroke="#CDAE54" stroke-width="0.2"/>
<path d="M281.644 64.5238C281.698 64.56 280.004 67.5176 279.389 67.7862C278.817 68.1326 277.433 67.1416 277.447 67.1236L277.227 66.9251L277.237 66.8993C278.754 66.3735 280.23 65.5841 281.613 64.524C281.633 64.5236 281.644 64.5238 281.644 64.5238Z" fill="#BB9F50" stroke="#CDAE54" stroke-width="0.2"/>
<path d="M279.445 70.6902L279.448 70.6961C279.442 70.7209 278.096 70.2269 277.793 70.2271C277.48 70.2353 276.493 70.3192 276.229 70.1687C275.954 70.0562 275.067 68.8152 274.982 68.7365C274.887 68.6737 274.753 68.1077 274.754 68.1075C274.754 68.1075 274.764 68.0989 274.779 68.0862C275.573 68.5776 277.713 69.3277 278.016 69.5696C278.273 69.8433 279.028 70.4286 279.445 70.6902Z" fill="#BB9F50" stroke="#CDAE54" stroke-width="0.2"/>
<path d="M278.016 69.5694C277.713 69.3276 275.573 68.5775 274.779 68.0861C274.949 67.9652 275.879 67.1682 276.549 67.3904C277.278 67.6509 278.433 68.6932 278.63 68.9758C278.805 69.25 279.412 70.6304 279.445 70.6901C279.028 70.4285 278.273 69.8432 278.016 69.5694Z" fill="#BB9F50" stroke="#CDAE54" stroke-width="0.2"/>
<path d="M278.06 62.1789L278.06 62.1729C278.071 62.1884 277.263 63.2803 277.019 63.3995C276.787 63.5138 276.026 63.8007 275.829 63.9605C275.647 64.1505 274.989 65.43 274.898 65.4849C274.818 65.5537 274.718 66.0863 274.717 66.0864C274.717 66.0864 274.727 66.0932 274.741 66.1029C275.512 65.694 277.184 64.2839 277.315 63.8604C277.462 63.5103 277.869 62.6536 278.06 62.1789Z" fill="#BB9F50" stroke="#CDAE54" stroke-width="0.2"/>
<path d="M277.315 63.8606C277.184 64.2841 275.513 65.6942 274.741 66.103C274.886 66.2236 275.856 66.8109 276.469 66.3672C277.144 65.8957 277.858 64.4027 277.92 64.0729C277.994 63.7369 278.062 62.2448 278.06 62.1791C277.869 62.6538 277.462 63.5105 277.315 63.8606Z" fill="#BB9F50" stroke="#CDAE54" stroke-width="0.2"/>
<path d="M274.895 66.9866L275.097 66.6222C275.109 66.6374 276.304 65.5047 276.882 65.2794C277.415 65.1279 279.213 65.8127 279.488 65.8315C277.999 66.5008 276.451 66.8788 274.895 66.9866Z" fill="#BB9F50" stroke="#CDAE54" stroke-width="0.2"/>
<path d="M279.519 65.8398C279.567 65.8899 277.541 68.3412 276.903 68.4393C276.298 68.6255 275.058 67.2776 275.075 67.2637L274.882 67.0091L274.895 66.9864C276.451 66.8788 277.999 66.5007 279.488 65.8315C279.508 65.8365 279.519 65.8398 279.519 65.8398Z" fill="#BB9F50" stroke="#CDAE54" stroke-width="0.2"/>
<path d="M276.903 71.1301L276.905 71.1361C276.899 71.1606 275.567 70.5904 275.264 70.5734C274.951 70.5638 273.963 70.5916 273.703 70.4262C273.431 70.2981 272.576 69.0075 272.494 68.9242C272.4 68.856 272.281 68.2828 272.281 68.2826C272.281 68.2826 272.292 68.2746 272.307 68.2628C273.088 68.7989 275.207 69.6701 275.504 69.9291C275.753 70.2172 276.492 70.845 276.903 71.1301Z" fill="#BB9F50" stroke="#CDAE54" stroke-width="0.2"/>
<path d="M275.504 69.9291C275.207 69.6702 273.088 68.799 272.307 68.2628C272.48 68.1516 273.43 67.4081 274.094 67.6682C274.816 67.97 275.943 69.0772 276.133 69.3709C276.3 69.6547 276.871 71.0687 276.903 71.1301C276.492 70.845 275.753 70.2173 275.504 69.9291Z" fill="#BB9F50" stroke="#CDAE54" stroke-width="0.2"/>
<path d="M275.738 62.5466L275.738 62.5406C275.748 62.5567 274.913 63.6019 274.666 63.7071C274.431 63.8082 273.663 64.0515 273.462 64.2001C273.275 64.3796 272.585 65.6207 272.493 65.6704C272.411 65.7347 272.297 66.2611 272.297 66.2612C272.297 66.2612 272.307 66.2685 272.321 66.279C273.102 65.9143 274.808 64.6003 274.95 64.1845C275.106 63.843 275.535 63.0101 275.738 62.5466Z" fill="#BB9F50" stroke="#CDAE54" stroke-width="0.2"/>
<path d="M274.95 64.1845C274.808 64.6002 273.102 65.9143 272.321 66.279C272.462 66.4077 273.416 67.0497 274.04 66.6412C274.726 66.2084 275.479 64.7571 275.549 64.431C275.632 64.0995 275.738 62.6124 275.738 62.5466C275.535 63.0101 275.106 63.843 274.95 64.1845Z" fill="#BB9F50" stroke="#CDAE54" stroke-width="0.2"/>
<path d="M272.452 67.1705L272.663 66.8179C272.674 66.8338 273.897 65.7698 274.481 65.5775C275.017 65.4564 276.797 66.243 277.071 66.2775C275.565 66.8616 274.009 67.1514 272.452 67.1705Z" fill="#BB9F50" stroke="#CDAE54" stroke-width="0.2"/>
<path d="M277.102 66.2877C277.149 66.3405 275.06 68.6748 274.42 68.7366C273.811 68.8882 272.607 67.4709 272.624 67.4579L272.438 67.1926L272.452 67.1706C274.009 67.1515 275.565 66.8617 277.071 66.2776C277.09 66.2837 277.102 66.2877 277.102 66.2877Z" fill="#BB9F50" stroke="#CDAE54" stroke-width="0.2"/>
<path d="M274.175 70.8654L274.177 70.8716C274.17 70.8956 272.858 70.2305 272.556 70.1919C272.243 70.1598 271.256 70.1167 271.001 69.9329C270.734 69.7854 269.922 68.4351 269.842 68.3459C269.751 68.2711 269.651 67.69 269.651 67.6898C269.651 67.6898 269.662 67.6826 269.677 67.6719C270.44 68.2634 272.528 69.2855 272.816 69.5655C273.056 69.8712 273.774 70.5512 274.175 70.8654Z" fill="#BB9F50" stroke="#CDAE54" stroke-width="0.2"/>
<path d="M272.816 69.5654C272.528 69.2855 270.44 68.2634 269.678 67.6718C269.854 67.5732 270.827 66.8986 271.481 67.2061C272.193 67.5593 273.282 68.746 273.463 69.0529C273.621 69.3484 274.145 70.8017 274.175 70.8654C273.774 70.5512 273.056 69.8712 272.816 69.5654Z" fill="#BB9F50" stroke="#CDAE54" stroke-width="0.2"/>
<path d="M273.108 63.9174L273.108 63.9114C273.119 63.9276 272.284 64.9728 272.037 65.078C271.801 65.179 271.034 65.4224 270.833 65.5709C270.646 65.7504 269.955 66.9916 269.863 67.0413C269.782 67.1055 269.668 67.632 269.667 67.632C269.667 67.632 269.677 67.6394 269.691 67.6499C270.472 67.2851 272.179 65.9711 272.321 65.5554C272.476 65.2139 272.905 64.3809 273.108 63.9174Z" fill="#BB9F50" stroke="#CDAE54" stroke-width="0.2"/>
<path d="M272.321 65.5552C272.179 65.971 270.472 67.285 269.691 67.6497C269.833 67.7784 270.787 68.4205 271.41 68.0119C272.097 67.5791 272.849 66.1278 272.919 65.8017C273.002 65.4702 273.109 63.9831 273.108 63.9173C272.905 64.3808 272.476 65.2137 272.321 65.5552Z" fill="#BB9F50" stroke="#CDAE54" stroke-width="0.2"/>
<path d="M269.691 67.6499L269.902 67.2973C269.914 67.3132 271.137 66.2492 271.72 66.0569C272.257 65.9358 274.036 66.7224 274.31 66.7568C272.805 67.3409 271.249 67.6307 269.691 67.6499Z" fill="#BB9F50" stroke="#CDAE54" stroke-width="0.2"/>
<path d="M274.341 66.767C274.388 66.8197 272.3 69.154 271.66 69.2158C271.05 69.3675 269.847 67.9501 269.863 67.9371L269.678 67.6718L269.691 67.6499C271.249 67.6308 272.805 67.341 274.31 66.7569C274.33 66.763 274.341 66.767 274.341 66.767Z" fill="#BB9F50" stroke="#CDAE54" stroke-width="0.2"/>
<path d="M277.817 65.0116C277.817 65.0116 275.663 64.9427 272.427 62.6987C272.427 62.6987 271.76 62.312 270.246 60.7547C270.433 60.5503 270.618 60.3468 270.83 60.0961C270.83 60.0961 272.898 57.7553 274.367 55.0135C275.419 55.1638 275.797 54.1236 275.797 54.1236L275.868 54.1741L276.068 54.2836C276.068 54.2836 276.599 54.5125 276.757 55.2228C276.757 55.2228 276.683 56.5006 278.079 56.6315C278.079 56.6315 278.796 56.7842 279.051 57.3726L283.151 63.4614C283.151 63.4614 281.474 65.3704 277.817 65.0116ZM269.115 59.5411C269.115 59.5411 267.263 57.4421 265.829 54.8891C266.078 54.7455 266.893 54.1968 266.801 53.1437L266.75 52.9546C266.75 52.9546 266.671 52.6469 266.721 52.3979L268.469 51.3146L269.849 50.4337H269.9L271.259 51.2731L273.048 52.4065C273.086 52.6565 272.962 52.9307 272.962 52.9307L272.92 53.1094C272.807 54.3622 273.962 54.9093 273.962 54.9093L274 54.9254C272.566 57.4717 270.725 59.5411 270.725 59.5411C270.442 59.8738 270.179 60.1673 269.925 60.4309C269.678 60.1673 269.406 59.8738 269.115 59.5411ZM267.406 62.6987C264.181 64.9485 261.833 65.0867 261.833 65.0867C258.167 65.4657 256.659 63.3472 256.659 63.3472C257.549 62.0022 260.681 57.4055 260.681 57.4055C260.918 56.8142 261.644 56.6614 261.644 56.6614C263.031 56.5264 262.949 55.2487 262.949 55.2487C263.113 54.5361 263.643 54.3182 263.643 54.3182L263.834 54.1883C263.834 54.1883 263.909 54.1481 263.918 54.1481C263.943 54.2073 264.373 55.253 265.478 55.0135C266.955 57.7553 269.012 60.0923 269.012 60.0923C269.223 60.3349 269.407 60.5412 269.604 60.7397C268.101 62.2868 267.406 62.6987 267.406 62.6987ZM265.374 54.7997L265.332 54.8136C265.332 54.8136 264.49 55.0135 264.127 54.0194L264.798 53.5915C264.973 53.9988 265.169 54.4018 265.374 54.7997ZM265.074 53.4168L265.411 53.2132C265.411 53.2132 265.169 53.8897 265.908 54.1331C265.908 54.1331 266.061 54.2636 265.933 54.0744C265.933 54.0744 265.399 53.7103 265.745 53.0046C265.745 53.0046 266.288 52.6715 266.303 52.6715C266.303 52.6715 266.612 52.9592 266.57 53.4267C266.57 53.4267 266.421 54.3622 265.708 54.6959C265.478 54.2773 265.278 53.8396 265.074 53.4168ZM262.638 45.931C262.621 45.931 262.792 46.0406 262.792 46.0406L266.563 48.3428L267.201 48.7468L265.912 49.4377L265.757 49.2548C265.644 49.0539 265.532 49.1285 265.532 49.1285L265.362 49.2196L265.307 49.4082L263.851 50.1945C263.363 48.7904 262.813 47.0558 262.638 45.931ZM275.035 53.6366C275.035 53.6366 275.568 53.9794 275.589 53.9794C275.231 54.9949 274.534 54.8258 274.466 54.8056C274.671 54.4222 274.858 54.0279 275.035 53.6366ZM273.746 54.1783C274.276 53.9994 274.421 53.3716 274.443 53.2788L274.742 53.4558C274.552 53.8897 274.33 54.322 274.103 54.7213C273.211 54.4313 273.086 53.3935 273.086 53.3935C273.048 53.0398 273.283 52.7361 273.39 52.6065L274.016 53.0096C274.313 53.6658 273.779 54.0188 273.779 54.0188C273.65 54.2223 273.746 54.1783 273.746 54.1783ZM273.14 48.3729L276.918 46.056C276.918 46.056 277.077 45.9603 277.09 45.9603C276.906 47.0708 276.382 48.816 275.935 50.2032L274.418 49.3675L274.35 49.2103L274.178 49.1001C274.178 49.1001 274.067 49.04 273.941 49.2493L273.804 49.4082L272.557 48.7461C272.543 48.7461 273.14 48.3729 273.14 48.3729ZM287.102 60.0923L286.577 59.6733L280.573 54.567C280.573 54.567 280.181 54.1976 279.655 54.4313C279.655 54.4313 279.113 54.6749 278.68 54.0985L277.671 52.5228L277.357 52.0494C277.357 52.0494 276.774 51.6508 277.045 50.6463L276.432 50.2529L276.202 50.3487L276.144 50.3177C276.648 48.7312 277.241 46.8567 277.417 45.7471L281.179 43.4183C281.466 43.3043 281.264 42.982 281.264 42.982L282.685 42.1758C282.909 42.0516 282.892 41.9072 282.892 41.9072L286.055 40.2513L286.088 40.3601L286.585 40.0814L286.368 39.5838L285.871 39.8574L285.924 39.9718L282.789 41.6487L282.556 41.0665L286.763 38.7837L286.613 38.3257L286.122 38.519L285.95 38.3056C285.087 37.5197 284.965 38.6694 284.965 38.6694L285.087 39.0663L280.76 41.4838L280.581 41.4193L280.056 41.7134L280.099 41.8874L279.719 42.1114L279.665 41.9869L279.255 42.2099L279.231 42.414L276.982 43.6338L276.573 43.5236L276.34 43.8169H276.055L272.602 45.5775C272.487 45.9019 271.851 45.8412 271.851 45.8412L270.547 46.3743C270.476 46.6228 270.266 46.7767 270.266 46.7767L269.875 46.991L269.453 46.7521C269.453 46.7521 269.241 46.5831 269.165 46.3491L267.86 45.8211C267.86 45.8211 267.223 45.8862 267.113 45.5474L263.654 43.8023H263.363L263.133 43.5032L262.738 43.6029L260.485 42.3883L260.459 42.1951L260.056 41.9574L259.989 42.0862L259.617 41.8522L259.651 41.6879L259.134 41.3903L258.95 41.4577L254.624 39.0361L254.75 38.6329C254.75 38.6329 254.624 37.4995 253.765 38.2663L253.59 38.4997L253.106 38.3103L252.888 38.7337L257.114 41.0312L256.927 41.6136L253.785 39.9412L253.836 39.817L253.356 39.5539L253.13 40.061L253.615 40.325L253.657 40.2297L256.827 41.8874C256.827 41.8874 256.811 42.0255 257.048 42.1368L258.454 42.9657C258.454 42.9657 258.249 43.2839 258.545 43.404L262.271 45.7169C262.458 46.8207 263.049 48.7312 263.612 50.3177L263.517 50.3723L263.288 50.2744L262.684 50.678C262.933 51.6715 262.358 52.0947 262.358 52.0947L262.049 52.5458L261.041 54.1236C260.606 54.7008 260.056 54.4612 260.056 54.4612C259.533 54.2334 259.134 54.5912 259.134 54.5912L253.13 59.6913L252.617 60.1063C252.18 60.7136 252.748 61.0332 252.748 61.0332C254.14 61.8078 255.038 64.5557 255.038 64.5557C255.412 65.1711 255.843 64.5446 255.843 64.5446L256.406 63.7099C256.406 63.7099 258.266 65.9036 261.933 65.5239C261.933 65.5239 264.29 65.4988 267.517 63.2508C267.517 63.2508 268.259 62.8392 269.92 61.0864L272.323 63.2508C275.552 65.4988 277.925 65.5239 277.925 65.5239C281.445 65.8924 283.251 63.9223 283.372 63.7881L283.864 64.5197C283.864 64.5197 284.29 65.142 284.682 64.5298C284.682 64.5298 285.574 61.789 286.964 61.0221C286.964 61.0221 287.536 60.6796 287.102 60.0923Z" fill="#A28530"/>
</g>
<defs>
<linearGradient id="paint0_linear_110_4285" x1="248.439" y1="262.977" x2="278.028" y2="143.163" gradientUnits="userSpaceOnUse">
<stop stop-color="white"/>
<stop offset="0.67033" stop-color="#C4BDB4"/>
<stop offset="1" stop-color="#C4BDB4"/>
</linearGradient>
<linearGradient id="paint1_linear_110_4285" x1="248.439" y1="262.977" x2="278.028" y2="143.163" gradientUnits="userSpaceOnUse">
<stop stop-color="#D09288"/>
<stop offset="0.67033" stop-color="#9D6B60"/>
<stop offset="1" stop-color="#9D6B60"/>
</linearGradient>
<linearGradient id="paint2_linear_110_4285" x1="247.453" y1="190.544" x2="268.04" y2="99.745" gradientUnits="userSpaceOnUse">
<stop stop-color="white"/>
<stop offset="0.67033" stop-color="#C4BDB4"/>
<stop offset="1" stop-color="#C4BDB4"/>
</linearGradient>
<linearGradient id="paint3_linear_110_4285" x1="247.453" y1="190.544" x2="268.039" y2="99.7454" gradientUnits="userSpaceOnUse">
<stop stop-color="#D09288"/>
<stop offset="0.67033" stop-color="#9D6B60"/>
<stop offset="1" stop-color="#9D6B60"/>
</linearGradient>
<linearGradient id="paint4_linear_110_4285" x1="247.453" y1="190.543" x2="268.039" y2="99.7457" gradientUnits="userSpaceOnUse">
<stop stop-color="#2A1513"/>
<stop offset="0.67033" stop-color="#231311"/>
<stop offset="1" stop-color="#231311"/>
</linearGradient>
<linearGradient id="paint5_linear_110_4285" x1="247.453" y1="190.544" x2="268.039" y2="99.7451" gradientUnits="userSpaceOnUse">
<stop stop-color="#D09288"/>
<stop offset="0.67033" stop-color="#9D6B60"/>
<stop offset="1" stop-color="#9D6B60"/>
</linearGradient>
</defs>
</svg>
