<svg width="550" height="550" viewBox="0 0 550 550" fill="none" xmlns="http://www.w3.org/2000/svg">
<mask id="mask0_110_3994" style="mask-type:alpha" maskUnits="userSpaceOnUse" x="0" y="0" width="550" height="550">
<path d="M546.959 321.883C524.573 471.878 385.276 571.585 234.373 545.997C84.2993 518.645 -19.3461 375.719 3.04062 226.606C27.0856 77.4928 166.382 -22.2119 315.627 4.25789C465.701 30.7277 569.346 174.534 546.959 321.883Z" fill="#23458A"/>
</mask>
<g mask="url(#mask0_110_3994)">
<path d="M522.236 344.621C501.884 480.98 375.251 571.622 238.066 548.361C101.636 523.495 7.41265 393.563 27.7642 258.005C49.6233 122.448 176.257 31.8074 311.934 55.8708C448.364 79.9343 542.587 210.667 522.236 344.621Z" fill="#F3F4F6"/>
<path d="M238.026 129.808C247.885 138.21 282.975 141.372 289.5 134.849C293.849 130.5 302.114 132.773 310.379 135.639C329.084 142.262 334.453 150.944 334.453 161.817C334.453 172.689 295 293.5 295 293.5L356.488 281.409L343.494 245.531C343.494 245.531 363.554 202.29 359.929 183.906C356.304 165.522 352.283 147.401 348.513 139C344.888 130.697 350.833 130.698 338.654 122.296C326.329 113.994 280.945 107.273 266.3 108.063C251.655 108.953 238.026 108.953 235.706 113.994C233.241 118.936 238.026 129.808 238.026 129.808Z" fill="#704B13"/>
<path d="M251.5 293C251.5 283.188 205.732 188.256 200.904 181.081C196.076 174.013 204.028 166.628 207.436 157.765C214.536 139.091 243.361 131.072 251.739 129.278C260.259 127.485 253.017 117.673 253.017 117.673C253.017 117.673 238.533 115.035 225.328 121.26C212.122 127.485 202.608 131.916 191.816 148.903C181.024 165.889 177.332 163.04 179.746 173.696C172.257 208.805 191.816 254.649 191.816 254.649L185.819 298.499L219.5 309.5L251.5 293Z" fill="#704B13"/>
<path d="M89.335 307.007C67.4469 375.314 31.9102 462.103 28.3073 496.362C24.6142 530.515 55.4309 627.913 55.4309 627.913C55.4309 627.913 120.259 630.028 120.979 627.913C122.33 623.155 87.2153 536.542 100.636 496.362C104.42 484.942 127.476 408.573 122.882 383.514C106.489 294.483 89.335 307.007 89.335 307.007Z" fill="#443716"/>
<path d="M450.79 297C470.454 307.676 496.891 467.46 500.516 503.378C504.231 539.297 457.57 614.997 457.57 614.997C457.57 614.997 392.657 617.221 392.022 614.997C390.754 609.993 443.95 545.635 430.447 503.378C426.641 491.257 408.146 396.133 412.767 369.778C429.26 276.146 450.79 297 450.79 297Z" fill="#443716"/>
<path d="M275.522 325.197L223.358 306.405C223.358 306.405 232.307 224.702 232.307 216.838L272.249 213.774H272.467H272.576L311.754 215.613C311.754 223.579 322.34 294.66 322.34 294.66L275.522 325.197Z" fill="#D09289"/>
<mask id="mask1_110_3994" style="mask-type:luminance" maskUnits="userSpaceOnUse" x="212" y="231" width="106" height="104">
<path d="M243.353 334.946L229.323 329.132L259.964 297.338L217.551 259.397C218.395 250.178 219.239 240.785 220.019 231.88C220.23 232.177 220.441 232.474 220.652 232.753C232.051 248.31 247.688 256.324 268.441 257.267L269.902 257.424H271.51H274.14V257.267C292.278 256.499 306.454 251.994 317.122 244.573C297.133 272.876 265.209 315.496 243.353 334.946ZM219.369 325.011L216.901 323.999C216.966 318.778 216.333 313.453 212.939 309.106C213.085 307.569 213.247 305.928 213.41 304.164L219.369 325.011Z" fill="white"/>
</mask>
<g mask="url(#mask1_110_3994)">
<path d="M254.119 350.354L240.365 344.58L237.684 313.21L227.973 270.146C228.676 260.227 229.375 250.12 230.018 240.54C230.228 240.852 230.438 241.163 230.647 241.456C241.964 257.771 258.312 230.976 278.555 231.302L278.983 266.298L280.551 266.245L283.292 261.51L282.974 235.49C300.646 234.066 308.965 230.418 318.782 234.276C310.147 273.762 275.171 328.762 254.119 350.354ZM230.607 340.487L228.188 339.483C228.183 333.879 227.496 328.186 224.13 323.634C224.252 321.98 224.389 320.214 224.524 318.316L230.607 340.487Z" fill="url(#paint0_linear_110_3994)"/>
</g>
<path d="M333.726 279.13C328.206 283.846 289.309 305.678 272.659 304.486C255.993 303.295 216.02 288.596 210.5 280.5C205.933 283.87 201.218 284.072 201.218 284.072L274.67 400.406L343.178 288.49L333.726 279.13Z" fill="#CBD6B7"/>
<path d="M208.714 277.842C214.799 285.48 256.711 302.125 275.101 303.241L276.756 396.228L196.008 286.965C196.008 286.965 203.732 281.006 208.714 277.842Z" fill="#B4C29D"/>
<mask id="mask2_110_3994" style="mask-type:luminance" maskUnits="userSpaceOnUse" x="199" y="264" width="154" height="170">
<path d="M331.736 264.718C325.89 270.573 294.762 289.517 276.932 288.024C258.957 286.532 221.346 289.103 215.5 279C210.531 283.248 199.915 279.413 199.915 279.413L279.124 433.833L352.342 284.81L331.736 264.718Z" fill="white"/>
</mask>
<g mask="url(#mask2_110_3994)">
<path d="M264.834 325.784H277.89V298.905H252.006L251.828 310.501L264.834 325.784Z" fill="#443716"/>
<path d="M263.162 321.676L240.429 491.123L276.461 513.332L277.224 512.694L278.588 321.791L263.162 321.676Z" fill="#443716"/>
<path d="M287.844 325.784H276.997V298.905H303.481L303.303 310.501L287.844 325.784Z" fill="#524422"/>
<path d="M289.744 321.676L312.51 491.123L276.461 513.332L277.014 321.676H289.744Z" fill="#524422"/>
</g>
<path d="M341.018 177.678C348.402 174.674 354.204 169.31 356.446 179.501C358.687 189.693 352.094 204.712 346.952 209.003C341.677 213.187 334.293 214.474 334.293 212.543C334.293 210.827 341.018 177.678 341.018 177.678Z" fill="#D09289"/>
<path d="M203.915 180.126C196.571 177.118 190.67 171.748 188.441 181.952C186.212 192.156 192.9 207.194 198.014 211.383C203.259 215.68 210.603 216.862 210.603 215.036C210.603 213.317 203.915 180.126 203.915 180.126Z" fill="#D09289"/>
<path d="M247.219 633C247.219 633 169.706 627.913 157.144 627.913C157.144 562.742 125.5 474.436 125.5 474.436C125.5 474.436 85.8851 326.78 91.5953 305.014C134.877 286.496 166.586 292.264 220.753 274.36C220.753 274.36 240.268 361.472 249.449 369.555C258.499 380.706 286.304 401.679 286.304 401.679L290.501 417.64L282.5 535.5L252.072 631.568L247.219 633Z" fill="#443716"/>
<path d="M289.932 625.92L272.418 568.67L275.337 402.729C275.337 402.729 322.317 344.257 342.472 282.525L324.293 272.967C374.609 290.794 417.031 285.11 449 295.5C465.123 300.695 412 486.5 412 486.5C412 486.5 387.693 583.95 387.693 625.92H289.932Z" fill="#524422"/>
<path d="M276.671 299.354L244.5 326L223.08 296.164L221.364 281.599L224.641 274.782L276.671 299.354Z" fill="#9FB281"/>
<path d="M277 299.596L312.4 325.81L344.809 281.836L327.998 270L277 299.596Z" fill="#9FB281"/>
<path d="M222.449 275.072C222.449 273.696 185 292.521 185 292.521L186.919 341.131L223.945 337.876L185.797 362.561L276 400C276 400 242.889 336.321 232.45 316.21C219.733 291.559 222.449 275.072 222.449 275.072Z" fill="#524422"/>
<path d="M335.678 272.073C335.678 270.705 368.876 289.004 368.876 289.004L382.767 323.701L337.484 329.486L367.054 351.356L276.5 399.5C276.5 399.5 314.891 331.266 327.627 311.943C340.509 292.642 335.678 272.073 335.678 272.073Z" fill="#443716"/>
<path d="M270.651 16.0161C187.02 16.0161 158.512 72.6773 157.636 75.8121C153.758 89.8059 166.653 147.396 180.559 149.561C216.817 137.917 237.145 131.389 273.403 119.746L368.601 140.089C382.555 137.935 388.186 79.0371 388.186 75.8121C388.186 72.6209 365.582 16.0161 270.651 16.0161Z" fill="#443716"/>
<path d="M370.301 136.761C377.512 132.278 379.602 120.229 380.647 114.204C381.085 104.256 360.302 94.5343 317.778 90.9361C310.364 90.331 311.948 117.136 311.948 117.136L370.301 136.761Z" fill="#524422"/>
<mask id="mask3_110_3994" style="mask-type:luminance" maskUnits="userSpaceOnUse" x="188" y="176" width="23" height="39">
<path d="M209.133 214.45C208.371 214.45 207.4 214.323 206.325 214.07C203.786 213.46 200.65 212.159 198.021 210.133C194.108 207.117 189.299 198.276 188.059 189.895C187.76 185.52 188.567 180.985 191.061 176.576C191.703 176.173 192.42 176 193.182 176C195.915 176 199.41 178.084 203.338 179.695C203.577 179.787 203.816 179.891 204.07 179.983C204.07 179.983 210.925 211.998 210.925 213.656C210.925 214.185 210.238 214.45 209.133 214.45Z" fill="white"/>
</mask>
<g mask="url(#mask3_110_3994)">
<path d="M209.133 214.45C208.371 214.45 207.4 214.323 206.325 214.07C203.786 213.46 200.65 212.159 198.021 210.133C194.108 207.117 189.299 198.276 188.059 189.895C187.76 185.52 188.567 180.985 191.061 176.576C191.703 176.173 192.42 176 193.182 176C195.915 176 199.41 178.084 203.338 179.695C203.577 179.787 203.816 179.891 204.07 179.983C204.07 179.983 210.925 211.998 210.925 213.656C210.925 214.185 210.238 214.45 209.133 214.45Z" fill="url(#paint1_linear_110_3994)"/>
</g>
<path d="M275.071 117H274.803C273.059 117 271.583 117.191 269.973 117.191C267.827 117.287 265.547 117.287 263.535 117.478C210.144 121.972 200.217 158.02 206.791 193.972C207.059 195.789 207.327 201.717 207.729 203.534C212.414 224.681 221.561 239.037 232.158 248.407C244.543 259.358 253.391 264.833 274.624 268.483C293.734 264.833 313.936 253.832 323.46 242.932C332.18 232.892 338.768 222.856 344.693 201.048C346.974 161.749 342.815 117 275.071 117Z" fill="#D09289"/>
<mask id="mask4_110_3994" style="mask-type:luminance" maskUnits="userSpaceOnUse" x="191" y="158" width="159" height="80">
<path d="M223.984 237.334C223.984 237.334 210.807 235.657 197.545 206.798C197.132 205.595 196.736 204.381 196.357 203.148C197.597 203.365 198.716 203.473 199.595 203.473C200.869 203.473 201.662 203.246 201.662 202.793C201.662 201.372 193.756 173.934 193.756 173.934C193.463 173.855 193.188 173.766 192.912 173.687C193.446 169.553 193.601 165.844 191 162.331C200.439 159.164 216.026 158 233.836 158C283.147 158 349.545 166.919 349.545 166.919L223.984 237.334Z" fill="white"/>
</mask>
<g mask="url(#mask4_110_3994)">
<path d="M249.693 238.677C249.693 238.677 222.125 239.474 208.863 210.616C208.45 209.412 206.311 205.354 206.311 203.6C205.363 203.559 213.714 203.926 206.311 203.6C203.759 201.846 193.756 173.934 193.756 173.934C193.463 173.855 193.188 173.766 192.912 173.687C193.446 169.553 193.601 165.844 191 162.331C200.439 159.164 216.026 158 233.836 158C283.147 158 349.545 166.919 349.545 166.919L249.693 238.677Z" fill="url(#paint2_linear_110_3994)"/>
</g>
<path d="M304.062 430.576C304.062 433.873 300.003 436.566 294.998 436.566C290.009 436.566 285.98 433.873 285.98 430.576C285.98 427.279 290.009 424.606 294.998 424.606C300.003 424.606 304.062 427.279 304.062 430.576Z" fill="#DDC170"/>
<path d="M304.062 488.395C304.062 492.809 300.003 496.362 294.998 496.362C290.009 496.362 285.98 492.809 285.98 488.395C285.98 483.982 290.009 480.416 294.998 480.416C300.003 480.416 304.062 483.982 304.062 488.395Z" fill="#DDC170"/>
<path d="M231.71 471.671C232.296 478.625 221.61 484.686 207.851 484.984L158.083 486.375C144.323 486.772 132.613 481.407 132.028 474.453L127.783 425.47C127.197 418.416 137.883 412.455 151.642 412.057L201.557 410.666C215.316 410.368 226.88 415.634 227.465 422.688L231.71 471.671Z" fill="#524422"/>
<mask id="mask5_110_3994" style="mask-type:luminance" maskUnits="userSpaceOnUse" x="127" y="410" width="101" height="48">
<path d="M130.673 457.018L127.783 423.066C127.555 420.286 129.033 417.684 131.696 415.498L210.646 410.654L227.338 420.689L227.793 425.892L130.673 457.018Z" fill="white"/>
</mask>
<g mask="url(#mask5_110_3994)">
<path d="M130.673 457.018L127.783 423.066C127.555 420.286 129.033 417.684 131.696 415.498L210.646 410.654L227.338 420.689L227.793 425.892L130.673 457.018Z" fill="#493A16"/>
</g>
<path d="M118.32 404.818C114.52 413.695 111.97 431.578 117.004 431.731C122.054 431.872 172.773 427.727 175.816 434.573C189.421 423.441 223.475 423.594 231.733 427.187C231.733 427.187 229.479 404.677 222.981 399.992C216.45 395.307 118.32 404.818 118.32 404.818Z" fill="#524422"/>
<path d="M179 420.453C178.878 422.65 175.719 424.346 171.989 424.256C168.238 424.166 165.303 422.316 165.446 420.106C165.568 417.896 168.707 416.2 172.437 416.29C176.208 416.393 179.102 418.243 179 420.453Z" fill="#DDC170"/>
<path d="M411.156 468.665C410.459 475.48 398.765 480.413 385.11 479.667L335.579 476.865C321.858 476.108 311.365 469.941 312.03 463.083L316.814 415.081C317.512 408.233 329.173 403.311 342.861 404.079L392.392 406.859C406.08 407.638 416.638 413.794 415.941 420.653L411.156 468.665Z" fill="#443716"/>
<path d="M319.502 394.744C314.392 403.504 308.884 421.68 313.739 422.288C318.531 422.897 367.964 423.311 369.731 430.586C384.616 420.415 417.333 423.7 424.64 428.153C424.64 428.153 426.296 404.805 420.819 399.404C415.375 393.99 319.502 394.744 319.502 394.744Z" fill="#3C2F10"/>
<path d="M372.991 412.666C372.623 414.84 370.333 416.286 367.853 415.915C365.386 415.518 363.682 413.447 364.05 411.285C364.445 409.123 366.735 407.678 369.188 408.062C371.655 408.445 373.359 410.53 372.991 412.666Z" fill="#DDC170"/>
<g filter="url(#filter0_d_110_3994)">
<path d="M180.157 156L168 133.037C168 133.037 223.5 108 277.27 108L279 147.665L180.157 156Z" fill="#443716"/>
</g>
<path d="M364.69 153.837L370.754 141.878L375.275 131.912C375.275 131.912 318.776 106 261.8 106L260 145.53L364.69 153.837Z" fill="#524422"/>
<path d="M184.053 150.767C171.428 153.974 183.587 175.784 208.023 176.951C232.476 178.128 324.98 179.294 342.446 174.596C359.862 169.897 366 153.424 366 153.424C366 153.424 267.807 129.595 184.053 150.767Z" fill="#271A01"/>
<path d="M175 146C189.395 138.667 214.856 126.542 270 124C270 132.576 270 138 270 138C270 138 205.755 137.345 178.914 152C175.932 147.186 175 146 175 146Z" fill="#271A01"/>
<path d="M366 147.435C350.231 139.038 324.473 126.881 263.988 124C263.988 133.792 263 138 263 138C263 138 332.179 139.257 361.613 156C364.915 150.509 366 147.435 366 147.435Z" fill="#271A01"/>
<path d="M379 278.77C385.08 286.491 380.868 291.959 388.731 292.472C396.589 292.997 436.461 297.679 439.473 298.136C439.416 287.935 435.8 288.745 435.8 288.745L379 278.77Z" fill="#443716"/>
<path d="M154.221 280.201C149.66 288.579 154.174 293.473 147.09 294.953C140.003 296.453 104.275 306.073 101.582 306.89C100.341 296.799 103.73 297.148 103.73 297.148L154.221 280.201Z" fill="#524422"/>
<path d="M261.547 56.0411L261.547 56.0331C261.531 56.0156 260.485 57.7113 260.203 57.9899C259.907 58.2711 258.953 59.1024 258.77 59.4845C258.561 59.8417 258.256 61.8044 258.211 61.9546C258.149 62.1002 258.262 62.7458 258.263 62.7457C258.263 62.7457 258.276 62.7439 258.295 62.7421C258.828 61.5572 260.506 58.8939 260.687 58.3913C260.811 57.9021 261.268 56.6669 261.547 56.0411Z" fill="#BB9F50" stroke="#CDAE54" stroke-width="0.2"/>
<path d="M260.687 58.3911C260.506 58.8936 258.828 61.5569 258.295 62.7419C258.504 62.6972 259.706 62.5756 260.237 61.7531C260.807 60.8408 261.444 58.8158 261.509 58.3729C261.556 57.9595 261.541 56.1264 261.547 56.0409C261.268 56.6667 260.811 57.902 260.687 58.3911Z" fill="#BB9F50" stroke="#CDAE54" stroke-width="0.2"/>
<path d="M263.838 65.1696L263.841 65.1752C263.844 65.1509 262.632 64.8874 262.355 65.0024C262.09 65.1112 261.26 65.5475 261.01 65.5813C260.76 65.5737 259.608 64.9994 259.501 65.0325C259.397 65.0427 259.08 64.6434 259.079 64.644C259.079 64.644 259.085 64.6285 259.095 64.6064C259.985 64.2734 262.136 64.0345 262.437 64.3044C262.721 64.4921 263.461 64.9074 263.838 65.1696Z" fill="#BB9F50" stroke="#CDAE54" stroke-width="0.2"/>
<path d="M262.437 64.3043C262.136 64.0344 259.985 64.2733 259.095 64.6063C259.179 64.3615 259.836 62.9263 260.593 62.7714C261.42 62.5848 262.714 63.304 262.91 63.5518C263.121 63.793 263.813 65.1071 263.838 65.1696C263.461 64.9075 262.721 64.4921 262.437 64.3043Z" fill="#BB9F50" stroke="#CDAE54" stroke-width="0.2"/>
<path d="M258.866 63.6496L259.208 63.7999C259.213 63.7747 260.802 63.7191 261.436 63.3948C261.996 63.0434 263.384 60.7549 263.632 60.4844C261.962 61.2388 260.361 62.3155 258.866 63.6496Z" fill="#BB9F50" stroke="#CDAE54" stroke-width="0.2"/>
<path d="M263.657 60.4478C263.681 60.3572 260.761 59.9626 260.125 60.4595C259.483 60.8451 258.896 63.2305 258.917 63.2285L258.845 63.6404L258.866 63.6495C260.361 62.3153 261.962 61.2386 263.632 60.4842C263.648 60.4615 263.657 60.4478 263.657 60.4478Z" fill="#BB9F50" stroke="#CDAE54" stroke-width="0.2"/>
<path d="M258.472 57.8068L258.471 57.7988C258.454 57.7839 257.533 59.6303 257.273 59.9505C256.998 60.2753 256.108 61.248 255.953 61.6561C255.77 62.0433 255.606 64.0419 255.571 64.1982C255.52 64.3525 255.678 64.9774 255.678 64.9771C255.678 64.9771 255.692 64.9734 255.71 64.9686C256.157 63.7086 257.638 60.8032 257.783 60.2757C257.871 59.7702 258.239 58.4718 258.472 57.8068Z" fill="#BB9F50" stroke="#CDAE54" stroke-width="0.2"/>
<path d="M257.783 60.2758C257.638 60.8032 256.157 63.7086 255.71 64.9687C255.915 64.8922 257.102 64.5876 257.572 63.6884C258.075 62.6939 258.565 60.5825 258.599 60.132C258.617 59.7137 258.472 57.8928 258.472 57.8069C258.239 58.4719 257.871 59.7704 257.783 60.2758Z" fill="#BB9F50" stroke="#CDAE54" stroke-width="0.2"/>
<path d="M261.395 66.5359L261.398 66.5411C261.4 66.5164 260.176 66.4396 259.907 66.5964C259.652 66.7451 258.857 67.3059 258.61 67.3778C258.362 67.4084 257.176 67.0132 257.071 67.0626C256.969 67.0885 256.625 66.7399 256.624 66.7407C256.624 66.7407 256.63 66.7242 256.637 66.7009C257.499 66.2335 259.622 65.6671 259.94 65.8896C260.236 66.0329 261.001 66.3329 261.395 66.5359Z" fill="#BB9F50" stroke="#CDAE54" stroke-width="0.2"/>
<path d="M259.94 65.8894C259.622 65.6669 257.499 66.2333 256.637 66.7007C256.704 66.4443 257.256 64.9165 257.998 64.6467C258.808 64.3346 260.146 64.8521 260.358 65.0686C260.585 65.2763 261.365 66.4776 261.395 66.5359C261.001 66.3328 260.236 66.0329 259.94 65.8894Z" fill="#BB9F50" stroke="#CDAE54" stroke-width="0.2"/>
<path d="M256.342 65.7839L256.693 65.8812C256.696 65.8553 258.273 65.5571 258.88 65.1377C259.413 64.7025 260.631 62.2143 260.859 61.9073C259.252 62.9128 257.736 64.2284 256.342 65.7839Z" fill="#BB9F50" stroke="#CDAE54" stroke-width="0.2"/>
<path d="M260.882 61.8673C260.899 61.7736 257.967 61.8274 257.37 62.4188C256.758 62.9005 256.342 65.3628 256.363 65.3576L256.32 65.7783L256.343 65.784C257.736 64.2285 259.252 62.9129 260.859 61.9074C260.873 61.8824 260.882 61.8673 260.882 61.8673Z" fill="#BB9F50" stroke="#CDAE54" stroke-width="0.2"/>
<path d="M256.213 60.1521L256.212 60.1444C256.193 60.1341 255.507 62.1899 255.288 62.5725C255.057 62.9631 254.296 64.1509 254.193 64.5926C254.059 65.021 254.135 67.0311 254.12 67.194C254.087 67.3592 254.318 67.9334 254.318 67.9331C254.318 67.9331 254.331 67.926 254.349 67.9164C254.638 66.5606 255.75 63.3175 255.829 62.7608C255.856 62.2403 256.063 60.8671 256.213 60.1521Z" fill="#BB9F50" stroke="#CDAE54" stroke-width="0.2"/>
<path d="M255.829 62.7608C255.75 63.3173 254.638 66.5604 254.349 67.9164C254.541 67.7882 255.673 67.1815 256.029 66.1747C256.405 65.0659 256.636 62.8604 256.616 62.4083C256.583 61.9919 256.224 60.2366 256.213 60.1521C256.063 60.8671 255.856 62.2403 255.829 62.7608Z" fill="#BB9F50" stroke="#CDAE54" stroke-width="0.2"/>
<path d="M260.132 67.9899L260.135 67.9943C260.134 67.9695 258.92 68.2103 258.675 68.434C258.441 68.6464 257.725 69.4038 257.491 69.5384C257.25 69.6329 256.035 69.5503 255.938 69.626C255.84 69.678 255.46 69.4236 255.46 69.4245C255.46 69.4245 255.463 69.407 255.468 69.382C256.261 68.6991 258.283 67.5929 258.622 67.7297C258.931 67.7944 259.72 67.8919 260.132 67.9899Z" fill="#BB9F50" stroke="#CDAE54" stroke-width="0.2"/>
<path d="M258.622 67.7298C258.283 67.5929 256.261 68.6991 255.468 69.3821C255.503 69.1124 255.864 67.4658 256.562 67.0082C257.322 66.4918 258.701 66.6554 258.936 66.8137C259.184 66.9596 260.095 67.9406 260.132 67.9901C259.72 67.8921 258.931 67.7946 258.622 67.7298Z" fill="#BB9F50" stroke="#CDAE54" stroke-width="0.2"/>
<path d="M255.068 68.5558L255.424 68.5611C255.424 68.5348 256.942 67.8335 257.489 67.2638C257.962 66.6976 258.865 63.9332 259.052 63.5721C257.59 64.9774 256.254 66.6645 255.068 68.5558Z" fill="#BB9F50" stroke="#CDAE54" stroke-width="0.2"/>
<path d="M259.07 63.5268C259.076 63.4301 256.196 64.2409 255.678 64.9774C255.134 65.6096 255.018 68.1412 255.037 68.1308L255.046 68.5559L255.068 68.5559C256.254 66.6645 257.59 64.9774 259.052 63.5721C259.063 63.5438 259.07 63.5268 259.07 63.5268Z" fill="#BB9F50" stroke="#CDAE54" stroke-width="0.2"/>
<path d="M254.373 63.0449L254.371 63.0376C254.351 63.0313 253.874 65.2117 253.696 65.637C253.505 66.0727 252.869 67.4102 252.81 67.8693C252.72 68.3217 252.993 70.2944 252.994 70.4588C252.978 70.6292 253.263 71.1483 253.263 71.1479C253.263 71.1479 253.275 71.1381 253.291 71.1249C253.445 69.7216 254.226 66.2757 254.249 65.708C254.225 65.1871 254.295 63.7843 254.373 63.0449Z" fill="#BB9F50" stroke="#CDAE54" stroke-width="0.2"/>
<path d="M254.249 65.7079C254.226 66.2754 253.445 69.7214 253.292 71.1247C253.469 70.9569 254.53 70.1152 254.783 69.0433C255.046 67.8659 255.058 65.6344 254.993 65.1914C254.92 64.7864 254.392 63.1261 254.373 63.0448C254.295 63.7843 254.225 65.1871 254.249 65.7079Z" fill="#BB9F50" stroke="#CDAE54" stroke-width="0.2"/>
<path d="M259.021 69.9649L259.025 69.9685C259.021 69.9442 257.844 70.4413 257.623 70.7149C257.412 70.975 256.779 71.8768 256.56 72.06C256.331 72.2049 255.121 72.382 255.032 72.4777C254.94 72.5499 254.539 72.3793 254.539 72.3803C254.539 72.3803 254.541 72.3622 254.543 72.3365C255.26 71.4917 257.152 69.9662 257.502 70.0293C257.813 70.0275 258.604 69.9558 259.021 69.9649Z" fill="#BB9F50" stroke="#CDAE54" stroke-width="0.2"/>
<path d="M257.502 70.0291C257.152 69.966 255.26 71.4916 254.543 72.3363C254.551 72.0621 254.746 70.3559 255.393 69.7542C256.094 69.0813 257.474 68.9493 257.722 69.0558C257.982 69.1473 258.98 69.9237 259.021 69.9649C258.604 69.9558 257.813 70.0275 257.502 70.0291Z" fill="#BB9F50" stroke="#CDAE54" stroke-width="0.2"/>
<path d="M254.066 71.6041L254.419 71.5334C254.417 71.5073 255.849 70.49 256.335 69.8097C256.747 69.1487 257.368 66.221 257.518 65.8237C256.21 67.5258 255.054 69.4799 254.066 71.6041Z" fill="#BB9F50" stroke="#CDAE54" stroke-width="0.2"/>
<path d="M257.531 65.7749C257.528 65.678 254.757 67.0942 254.318 67.9331C253.842 68.6747 253.976 71.2044 253.994 71.1899L254.044 71.6088L254.066 71.604C255.054 69.4797 256.21 67.5256 257.518 65.8236C257.527 65.7931 257.531 65.7749 257.531 65.7749Z" fill="#BB9F50" stroke="#CDAE54" stroke-width="0.2"/>
<path d="M251.992 66.7752L251.989 66.7692C251.969 66.7719 251.964 69.0627 251.881 69.5477C251.79 70.0479 251.459 71.6064 251.498 72.0704C251.505 72.5417 252.172 74.2993 252.206 74.4556C252.227 74.625 252.605 74.9925 252.605 74.992C252.605 74.992 252.614 74.9775 252.627 74.9573C252.484 73.5518 252.518 69.9195 252.423 69.368C252.293 68.8825 252.07 67.5148 251.992 66.7752Z" fill="#BB9F50" stroke="#CDAE54" stroke-width="0.2"/>
<path d="M252.423 69.3678C252.518 69.9191 252.484 73.5516 252.627 74.9572C252.762 74.7179 253.599 73.4419 253.619 72.3075C253.627 71.0682 253.179 68.9366 253.025 68.5434C252.872 68.1903 252.027 66.8442 251.992 66.7751C252.07 67.5147 252.293 68.8825 252.423 69.3678Z" fill="#BB9F50" stroke="#CDAE54" stroke-width="0.2"/>
<path d="M257.847 71.292L257.852 71.2938C257.843 71.2722 256.824 72.2721 256.67 72.6313C256.523 72.9733 256.105 74.1155 255.935 74.3878C255.746 74.6284 254.63 75.3378 254.565 75.4687C254.492 75.5784 254.075 75.595 254.075 75.5961C254.075 75.5961 254.073 75.5782 254.069 75.5527C254.579 74.4272 256.067 72.1282 256.413 72.0322C256.709 71.8914 257.448 71.4698 257.847 71.292Z" fill="#BB9F50" stroke="#CDAE54" stroke-width="0.2"/>
<path d="M256.413 72.0321C256.067 72.1281 254.579 74.4271 254.069 75.5526C254.021 75.2877 253.855 73.5747 254.347 72.7126C254.876 71.7582 256.164 71.0156 256.422 71.0063C256.689 70.9774 257.8 71.2711 257.847 71.2921C257.448 71.4699 256.709 71.8914 256.413 72.0321Z" fill="#BB9F50" stroke="#CDAE54" stroke-width="0.2"/>
<path d="M253.464 75.0676L253.786 74.8425C253.778 74.8189 254.933 73.2094 255.256 72.3442C255.512 71.5303 255.501 68.463 255.562 68.0175C254.666 70.224 253.967 72.6024 253.464 75.0676Z" fill="#BB9F50" stroke="#CDAE54" stroke-width="0.2"/>
<path d="M255.564 67.9653C255.541 67.8745 253.193 70.4617 252.948 71.4573C252.646 72.377 253.296 74.7274 253.31 74.7054L253.444 75.0822L253.464 75.0676C253.967 72.6023 254.666 70.2239 255.562 68.0174C255.564 67.9847 255.564 67.9653 255.564 67.9653Z" fill="#BB9F50" stroke="#CDAE54" stroke-width="0.2"/>
<path d="M250.82 71.1369L250.816 71.1319C250.797 71.14 251.08 73.3925 251.06 73.8916C251.033 74.4081 250.905 76.0298 251.001 76.4753C251.068 76.9364 251.944 78.4816 251.998 78.6258C252.039 78.7867 252.457 79.0447 252.457 79.0441C252.457 79.0441 252.464 79.0274 252.475 79.004C252.157 77.6619 251.733 74.0833 251.57 73.5671C251.381 73.1256 250.99 71.8424 250.82 71.1369Z" fill="#BB9F50" stroke="#CDAE54" stroke-width="0.2"/>
<path d="M251.571 73.5668C251.733 74.0828 252.157 77.6616 252.475 79.0037C252.577 78.7317 253.239 77.2495 253.116 76.1293C252.968 74.9092 252.258 72.937 252.058 72.5924C251.863 72.2872 250.863 71.1952 250.82 71.1367C250.99 71.8423 251.381 73.1255 251.571 73.5668Z" fill="#BB9F50" stroke="#CDAE54" stroke-width="0.2"/>
<path d="M257.143 73.9776L257.147 73.9782C257.136 73.9593 256.26 75.22 256.154 75.6151C256.053 75.9913 255.786 77.2276 255.653 77.5417C255.498 77.8297 254.49 78.8314 254.443 78.9777C254.385 79.1052 253.978 79.2354 253.977 79.2366C253.977 79.2366 253.973 79.2196 253.967 79.1954C254.326 77.9503 255.499 75.2851 255.827 75.0964C256.1 74.8771 256.773 74.2614 257.143 73.9776Z" fill="#BB9F50" stroke="#CDAE54" stroke-width="0.2"/>
<path d="M255.827 75.0962C255.499 75.2849 254.326 77.9501 253.967 79.1952C253.885 78.9482 253.507 77.3101 253.882 76.3288C254.281 75.2465 255.454 74.1653 255.706 74.0856C255.965 73.9846 257.093 73.97 257.143 73.9776C256.773 74.2614 256.1 74.8771 255.827 75.0962Z" fill="#BB9F50" stroke="#CDAE54" stroke-width="0.2"/>
<path d="M253.311 78.8838L253.599 78.5748C253.588 78.5537 254.521 76.6569 254.729 75.7187C254.878 74.849 254.481 71.8379 254.485 71.3834C253.882 73.7962 253.495 76.324 253.311 78.8838Z" fill="#BB9F50" stroke="#CDAE54" stroke-width="0.2"/>
<path d="M254.48 71.3317C254.446 71.249 252.465 74.4318 252.349 75.4773C252.168 76.4632 253.102 78.5957 253.114 78.5701L253.293 78.9038L253.311 78.884C253.495 76.3242 253.882 73.7964 254.485 71.3836C254.482 71.351 254.48 71.3317 254.48 71.3317Z" fill="#BB9F50" stroke="#CDAE54" stroke-width="0.2"/>
<path d="M249.941 76.2998L249.936 76.2969C249.919 76.3126 250.627 78.3524 250.704 78.8393C250.779 79.3456 250.97 80.9538 251.148 81.3404C251.302 81.7544 252.441 82.867 252.521 82.9826C252.591 83.1196 253.042 83.1915 253.042 83.1908C253.042 83.1908 253.045 83.1717 253.051 83.1449C252.486 81.9922 251.386 78.7404 251.13 78.3139C250.863 77.9703 250.24 76.9048 249.941 76.2998Z" fill="#BB9F50" stroke="#CDAE54" stroke-width="0.2"/>
<path d="M251.131 78.3138C251.386 78.7402 252.486 81.9921 253.051 83.1448C253.096 82.8412 253.443 81.1424 253.108 80.1206C252.73 79.0135 251.668 77.4212 251.409 77.175C251.163 76.9644 249.993 76.338 249.941 76.2999C250.24 76.9049 250.863 77.9704 251.131 78.3138Z" fill="#BB9F50" stroke="#CDAE54" stroke-width="0.2"/>
<path d="M256.551 76.3666L256.555 76.3652C256.541 76.3517 255.946 77.9282 255.921 78.3513C255.896 78.7545 255.881 80.0513 255.814 80.4085C255.721 80.7497 254.949 82.1331 254.932 82.2932C254.902 82.4394 254.536 82.7356 254.536 82.7368C254.536 82.7368 254.529 82.7223 254.518 82.7018C254.621 81.3577 255.228 78.3105 255.506 77.9919C255.726 77.6668 256.251 76.7942 256.551 76.3666Z" fill="#BB9F50" stroke="#CDAE54" stroke-width="0.2"/>
<path d="M255.506 77.9918C255.228 78.3104 254.621 81.3576 254.518 82.7017C254.392 82.4991 253.712 81.0882 253.881 79.9902C254.054 78.7849 254.968 77.2561 255.195 77.0737C255.423 76.8683 256.502 76.3801 256.551 76.3667C256.251 76.7942 255.726 77.6669 255.506 77.9918Z" fill="#BB9F50" stroke="#CDAE54" stroke-width="0.2"/>
<path d="M253.829 82.6787L254.045 82.2616C254.031 82.2458 254.557 80.0362 254.574 79.0496C254.549 78.1532 253.585 75.4343 253.5 74.9971C253.39 77.5627 253.509 80.148 253.829 82.6787Z" fill="#BB9F50" stroke="#CDAE54" stroke-width="0.2"/>
<path d="M253.486 74.9491C253.437 74.8843 252.155 78.7672 252.247 79.8179C252.265 80.8385 253.573 82.4901 253.579 82.4607L253.816 82.7052L253.829 82.6787C253.509 80.148 253.39 77.5627 253.5 74.9971C253.492 74.9668 253.486 74.9491 253.486 74.9491Z" fill="#BB9F50" stroke="#CDAE54" stroke-width="0.2"/>
<path d="M249.962 81.8262L249.957 81.8266C249.946 81.851 251.157 83.2888 251.362 83.6869C251.571 84.1047 252.19 85.4585 252.46 85.7047C252.715 85.9907 254.063 86.3231 254.168 86.381C254.27 86.4638 254.701 86.2592 254.701 86.2585C254.701 86.2585 254.699 86.239 254.697 86.2111C253.862 85.4973 251.958 83.1877 251.606 82.9515C251.267 82.798 250.403 82.1992 249.962 81.8262Z" fill="#BB9F50" stroke="#CDAE54" stroke-width="0.2"/>
<path d="M251.606 82.9513C251.957 83.1874 253.862 85.4971 254.697 86.2109C254.654 85.9064 254.501 84.1468 253.912 83.4147C253.26 82.6308 251.85 81.8139 251.545 81.7441C251.262 81.6995 250.02 81.8295 249.962 81.8262C250.403 82.1991 251.267 82.7979 251.606 82.9513Z" fill="#BB9F50" stroke="#CDAE54" stroke-width="0.2"/>
<path d="M256.017 77.9212L256.021 77.9173C256.004 77.9135 255.897 79.7103 255.991 80.1117C256.08 80.4945 256.425 81.6882 256.462 82.0546C256.472 82.4219 256.15 84.1482 256.179 84.3047C256.192 84.4562 255.94 84.9461 255.94 84.9471C255.94 84.9471 255.93 84.9384 255.914 84.9262C255.636 83.6371 255.347 80.4898 255.513 80.0323C255.623 79.6036 255.861 78.4916 256.017 77.9212Z" fill="#BB9F50" stroke="#CDAE54" stroke-width="0.2"/>
<path d="M255.513 80.032C255.347 80.4895 255.636 83.6369 255.914 84.926C255.743 84.8164 254.731 83.9361 254.582 82.832C254.406 81.6273 254.818 79.6828 254.975 79.3802C255.126 79.056 255.976 77.9627 256.017 77.9211C255.861 78.4915 255.623 79.6035 255.513 80.032Z" fill="#BB9F50" stroke="#CDAE54" stroke-width="0.2"/>
<path d="M255.279 85.3182L255.36 84.8077C255.343 84.8019 255.212 82.4683 254.955 81.5569C254.683 80.7536 253.05 78.8493 252.852 78.5006C253.462 80.9095 254.286 83.1991 255.279 85.3182Z" fill="#BB9F50" stroke="#CDAE54" stroke-width="0.2"/>
<path d="M252.826 78.4654C252.763 78.4357 252.667 82.7506 253.042 83.6553C253.341 84.5764 254.993 85.2995 254.99 85.269L255.274 85.3506L255.279 85.3183C254.286 83.1992 253.462 80.9097 252.852 78.5007C252.836 78.4783 252.826 78.4654 252.826 78.4654Z" fill="#BB9F50" stroke="#CDAE54" stroke-width="0.2"/>
<path d="M251.488 85.4889L251.483 85.4903C251.474 85.5165 252.8 86.7144 253.039 87.0705C253.281 87.4457 254.014 88.6716 254.303 88.8649C254.58 89.1007 255.946 89.1762 256.055 89.214C256.164 89.2768 256.574 88.9927 256.573 88.9921C256.573 88.9921 256.57 88.9731 256.565 88.9459C255.675 88.3952 253.585 86.4633 253.216 86.2953C252.867 86.2068 251.958 85.7758 251.488 85.4889Z" fill="#BB9F50" stroke="#CDAE54" stroke-width="0.2"/>
<path d="M253.216 86.2951C253.585 86.4631 255.675 88.395 256.565 88.9457C256.496 88.6518 256.191 86.9355 255.544 86.3204C254.829 85.6657 253.359 85.1212 253.051 85.1093C252.767 85.1183 251.546 85.4812 251.488 85.4889C251.957 85.7758 252.867 86.2068 253.216 86.2951Z" fill="#BB9F50" stroke="#CDAE54" stroke-width="0.2"/>
<path d="M257.154 80.4755L257.157 80.4709C257.14 80.4703 257.19 82.2726 257.318 82.6529C257.44 83.0158 257.886 84.1347 257.955 84.491C257.996 84.8535 257.827 86.6262 257.869 86.776C257.895 86.9238 257.688 87.4571 257.689 87.4581C257.689 87.4581 257.677 87.4515 257.661 87.4423C257.273 86.2162 256.713 83.1491 256.837 82.6642C256.91 82.2182 257.049 81.0705 257.154 80.4755Z" fill="#BB9F50" stroke="#CDAE54" stroke-width="0.2"/>
<path d="M256.837 82.6641C256.713 83.149 257.273 86.2161 257.66 87.4422C257.481 87.3658 256.401 86.6833 256.157 85.6164C255.879 84.4546 256.118 82.4486 256.247 82.119C256.369 81.769 257.117 80.5245 257.154 80.4756C257.049 81.0706 256.91 82.2183 256.837 82.6641Z" fill="#BB9F50" stroke="#CDAE54" stroke-width="0.2"/>
<path d="M257.064 87.9509L257.101 87.4291C257.083 87.4266 256.751 85.137 256.416 84.2815C256.077 83.5359 254.292 81.9549 254.065 81.6464C254.879 83.9207 255.896 86.0362 257.064 87.9509Z" fill="#BB9F50" stroke="#CDAE54" stroke-width="0.2"/>
<path d="M254.036 81.6163C253.971 81.5987 254.251 85.8962 254.701 86.7229C255.078 87.58 256.779 87.9861 256.774 87.9563L257.062 87.9838L257.064 87.9508C255.896 86.0362 254.879 83.9207 254.065 81.6464C254.047 81.6272 254.036 81.6163 254.036 81.6163Z" fill="#BB9F50" stroke="#CDAE54" stroke-width="0.2"/>
<path d="M253.298 89.0444L253.293 89.0464C253.285 89.0735 254.669 90.1206 254.925 90.4492C255.187 90.7964 255.98 91.9375 256.278 92.0981C256.566 92.3024 257.933 92.2259 258.043 92.2515C258.155 92.302 258.549 91.9732 258.549 91.9726C258.549 91.9726 258.544 91.954 258.538 91.9275C257.622 91.4772 255.44 89.783 255.063 89.6565C254.71 89.6071 253.781 89.2783 253.298 89.0444Z" fill="#BB9F50" stroke="#CDAE54" stroke-width="0.2"/>
<path d="M255.063 89.6563C255.439 89.7828 257.622 91.4771 258.538 91.9273C258.454 91.6418 258.062 89.9643 257.385 89.4229C256.639 88.8495 255.145 88.4699 254.837 88.4922C254.554 88.5328 253.356 89.0304 253.298 89.0444C253.781 89.2783 254.71 89.6071 255.063 89.6563Z" fill="#BB9F50" stroke="#CDAE54" stroke-width="0.2"/>
<path d="M258.691 83.4157L258.694 83.4108C258.677 83.412 258.819 85.2036 258.966 85.5686C259.106 85.9169 259.608 86.9832 259.695 87.3307C259.755 87.6876 259.678 89.474 259.727 89.6187C259.761 89.7632 259.581 90.3181 259.582 90.3189C259.582 90.3189 259.57 90.3137 259.553 90.3063C259.103 89.1268 258.388 86.1306 258.487 85.6333C258.537 85.1806 258.617 84.0207 258.691 83.4157Z" fill="#BB9F50" stroke="#CDAE54" stroke-width="0.2"/>
<path d="M258.487 85.6332C258.388 86.1305 259.103 89.1267 259.553 90.3062C259.371 90.2499 258.259 89.6893 257.96 88.6526C257.623 87.525 257.759 85.4982 257.871 85.1552C257.974 84.7927 258.656 83.4686 258.691 83.4157C258.617 84.0206 258.537 85.1806 258.487 85.6332Z" fill="#BB9F50" stroke="#CDAE54" stroke-width="0.2"/>
<path d="M258.985 90.8797L258.995 90.3554C258.977 90.3549 258.528 88.1087 258.15 87.2928C257.774 86.587 255.913 85.2089 255.671 84.9264C256.599 87.1038 257.721 89.1003 258.985 90.8797Z" fill="#BB9F50" stroke="#CDAE54" stroke-width="0.2"/>
<path d="M255.641 84.8995C255.575 84.8891 256.074 89.1432 256.565 89.9176C256.985 90.7304 258.702 90.9463 258.696 90.9172L258.984 90.9125L258.985 90.8795C257.721 89.1001 256.599 87.1036 255.671 84.9262C255.652 84.9092 255.641 84.8995 255.641 84.8995Z" fill="#BB9F50" stroke="#CDAE54" stroke-width="0.2"/>
<path d="M255.657 93.0943L255.652 93.0981C255.649 93.1271 257.167 93.6357 257.47 93.8605C257.782 94.1014 258.742 94.917 259.058 94.9636C259.372 95.0561 260.683 94.4827 260.794 94.4672C260.911 94.4753 261.237 94.0128 261.237 94.0123C261.237 94.0123 261.229 93.996 261.219 93.9725C260.256 93.8709 257.856 93.0273 257.47 93.0423C257.119 93.1235 256.164 93.1444 255.657 93.0943Z" fill="#BB9F50" stroke="#CDAE54" stroke-width="0.2"/>
<path d="M257.469 93.0423C257.856 93.0272 260.256 93.8709 261.219 93.9725C261.089 93.7265 260.427 92.2446 259.68 91.9677C258.86 91.685 257.349 91.863 257.055 91.9969C256.787 92.1398 255.71 93.0597 255.657 93.0944C256.164 93.1445 257.119 93.1236 257.469 93.0423Z" fill="#BB9F50" stroke="#CDAE54" stroke-width="0.2"/>
<path d="M259.932 85.6714L259.934 85.6655C259.918 85.6729 260.357 87.3566 260.562 87.6562C260.756 87.9424 261.422 88.792 261.565 89.0968C261.683 89.4206 261.909 91.1795 261.982 91.3015C262.038 91.4293 261.958 92.0323 261.959 92.033C261.959 92.033 261.946 92.0322 261.929 92.0313C261.294 91.0529 260.096 88.4119 260.109 87.894C260.08 87.4373 259.962 86.2844 259.932 85.6714Z" fill="#BB9F50" stroke="#CDAE54" stroke-width="0.2"/>
<path d="M260.108 87.8939C260.096 88.4118 261.294 91.0528 261.929 92.0312C261.743 92.0433 260.571 91.9065 260.107 91.0113C259.59 90.0422 259.38 88.0292 259.431 87.6561C259.47 87.2671 259.908 85.7351 259.932 85.6713C259.962 86.2843 260.08 87.4373 260.108 87.8939Z" fill="#BB9F50" stroke="#CDAE54" stroke-width="0.2"/>
<path d="M261.475 92.7943L261.396 92.2827C261.379 92.2888 260.565 90.2771 260.062 89.6245C259.579 89.0782 257.543 88.4233 257.261 88.238C258.528 90.0081 259.951 91.5322 261.475 92.7943Z" fill="#BB9F50" stroke="#CDAE54" stroke-width="0.2"/>
<path d="M257.227 88.2232C257.162 88.2371 258.363 92.1756 258.969 92.7464C259.513 93.3805 261.213 92.9621 261.201 92.9364L261.48 92.8263L261.475 92.7941C259.951 91.5321 258.528 90.008 257.261 88.238C257.24 88.2284 257.227 88.2232 257.227 88.2232Z" fill="#BB9F50" stroke="#CDAE54" stroke-width="0.2"/>
<path d="M258.43 95.9367L258.425 95.9416C258.426 95.9708 259.98 96.1026 260.304 96.2503C260.638 96.4119 261.678 96.9821 261.994 96.9511C262.314 96.9658 263.543 96.0808 263.65 96.0384C263.766 96.018 264.036 95.4823 264.036 95.4819C264.036 95.4819 264.027 95.4677 264.014 95.4471C263.053 95.5816 260.591 95.3346 260.212 95.4435C259.875 95.609 258.936 95.8625 258.43 95.9367Z" fill="#BB9F50" stroke="#CDAE54" stroke-width="0.2"/>
<path d="M260.212 95.4433C260.591 95.3343 263.052 95.5814 264.013 95.4468C263.858 95.2357 263.039 93.9358 262.27 93.8448C261.43 93.7658 259.96 94.3097 259.685 94.5134C259.437 94.7196 258.478 95.8893 258.43 95.9365C258.936 95.8623 259.875 95.6089 260.212 95.4433Z" fill="#BB9F50" stroke="#CDAE54" stroke-width="0.2"/>
<path d="M261.811 87.5739L261.812 87.5676C261.797 87.5788 262.42 89.1321 262.655 89.3778C262.879 89.6126 263.631 90.2883 263.807 90.554C263.96 90.8446 264.38 92.5241 264.466 92.6268C264.536 92.7389 264.525 93.3532 264.525 93.3537C264.525 93.3537 264.513 93.3559 264.496 93.3593C263.76 92.5491 262.281 90.2365 262.235 89.7228C262.156 89.2794 261.91 88.1711 261.811 87.5739Z" fill="#BB9F50" stroke="#CDAE54" stroke-width="0.2"/>
<path d="M262.235 89.7228C262.281 90.2365 263.76 92.5491 264.496 93.3593C264.313 93.4166 263.142 93.5674 262.584 92.7975C261.966 91.9677 261.532 90.0337 261.54 89.6535C261.535 89.2604 261.794 87.6428 261.811 87.574C261.91 88.1711 262.156 89.2795 262.235 89.7228Z" fill="#BB9F50" stroke="#CDAE54" stroke-width="0.2"/>
<path d="M264.134 94.2224L263.999 93.7371C263.982 93.7473 262.953 91.9618 262.384 91.4408C261.846 91.0198 259.765 90.8701 259.466 90.7561C260.914 92.1931 262.489 93.3491 264.134 94.2224Z" fill="#BB9F50" stroke="#CDAE54" stroke-width="0.2"/>
<path d="M259.431 90.7499C259.368 90.7795 260.995 94.371 261.657 94.7861C262.265 95.279 263.894 94.452 263.88 94.4294L264.143 94.2529L264.134 94.2224C262.489 93.3492 260.914 92.1931 259.466 90.7562C259.444 90.7519 259.431 90.7499 259.431 90.7499Z" fill="#BB9F50" stroke="#CDAE54" stroke-width="0.2"/>
<path d="M261.237 97.7984L261.233 97.804C261.236 97.8328 262.789 97.6967 263.123 97.7876C263.468 97.8906 264.546 98.2782 264.858 98.193C265.177 98.1525 266.326 97.0624 266.43 97.0017C266.544 96.9616 266.769 96.3832 266.769 96.3828C266.769 96.3828 266.758 96.3703 266.744 96.352C265.8 96.6508 263.336 96.8289 262.968 97.0022C262.647 97.2244 261.734 97.6377 261.237 97.7984Z" fill="#BB9F50" stroke="#CDAE54" stroke-width="0.2"/>
<path d="M262.968 97.0021C263.335 96.8287 265.8 96.6508 266.744 96.3519C266.573 96.1689 265.656 95.0188 264.885 95.0606C264.045 95.1266 262.628 95.9195 262.371 96.1691C262.141 96.4165 261.282 97.7431 261.237 97.7983C261.734 97.6377 262.647 97.2244 262.968 97.0021Z" fill="#BB9F50" stroke="#CDAE54" stroke-width="0.2"/>
<path d="M263.932 88.9116L263.933 88.9051C263.919 88.9188 264.66 90.3544 264.914 90.5579C265.155 90.7527 265.955 91.2944 266.15 91.5281C266.325 91.7904 266.876 93.3862 266.969 93.4734C267.048 93.5727 267.085 94.1848 267.086 94.1851C267.086 94.1851 267.074 94.1894 267.057 94.1958C266.262 93.5176 264.61 91.475 264.524 90.9728C264.41 90.5461 264.077 89.4877 263.932 88.9116Z" fill="#BB9F50" stroke="#CDAE54" stroke-width="0.2"/>
<path d="M264.523 90.9729C264.61 91.4751 266.262 93.5177 267.057 94.1958C266.88 94.2841 265.73 94.6351 265.114 93.9664C264.434 93.2487 263.85 91.4025 263.827 91.0236C263.791 90.634 263.921 88.9829 263.932 88.9117C264.077 89.4877 264.409 90.5462 264.523 90.9729Z" fill="#BB9F50" stroke="#CDAE54" stroke-width="0.2"/>
<path d="M266.766 95.1152L266.593 94.6565C266.578 94.6695 265.414 93.073 264.808 92.6535C264.24 92.3279 262.161 92.537 261.855 92.4752C263.407 93.6534 265.063 94.5307 266.766 95.1152Z" fill="#BB9F50" stroke="#CDAE54" stroke-width="0.2"/>
<path d="M261.82 92.4749C261.76 92.5152 263.661 95.8023 264.351 96.1007C264.994 96.4858 266.546 95.3843 266.53 95.3643L266.777 95.1438L266.766 95.1151C265.063 94.5306 263.407 93.6533 261.855 92.4751C261.833 92.4747 261.82 92.4749 261.82 92.4749Z" fill="#BB9F50" stroke="#CDAE54" stroke-width="0.2"/>
<path d="M264.288 99.3285L264.285 99.3351C264.292 99.3626 265.802 98.8136 266.142 98.8138C266.494 98.823 267.601 98.9162 267.897 98.749C268.206 98.6239 269.202 97.2446 269.297 97.1573C269.403 97.0874 269.554 96.4584 269.553 96.4581C269.553 96.4581 269.542 96.4486 269.525 96.4345C268.634 96.9806 266.232 97.8143 265.892 98.0831C265.604 98.3874 264.757 99.0379 264.288 99.3285Z" fill="#BB9F50" stroke="#CDAE54" stroke-width="0.2"/>
<path d="M265.892 98.0829C266.232 97.8141 268.634 96.9804 269.525 96.4343C269.335 96.2999 268.291 95.4141 267.538 95.6611C266.72 95.9506 265.424 97.109 265.202 97.4232C265.007 97.7278 264.325 99.2621 264.288 99.3284C264.757 99.0377 265.604 98.3872 265.892 98.0829Z" fill="#BB9F50" stroke="#CDAE54" stroke-width="0.2"/>
<path d="M265.842 89.8692L265.843 89.8625C265.83 89.8798 266.737 91.0933 267.011 91.2257C267.272 91.3528 268.126 91.6716 268.347 91.8493C268.551 92.0604 269.29 93.4825 269.392 93.5435C269.482 93.62 269.594 94.2119 269.595 94.212C269.595 94.212 269.583 94.2195 269.567 94.2303C268.702 93.7759 266.826 92.2087 266.678 91.738C266.514 91.3489 266.057 90.3967 265.842 89.8692Z" fill="#BB9F50" stroke="#CDAE54" stroke-width="0.2"/>
<path d="M266.678 91.7379C266.826 92.2086 268.702 93.7758 269.567 94.2302C269.404 94.3642 268.316 95.0169 267.629 94.5238C266.871 93.9998 266.069 92.3404 266 91.9738C265.916 91.6004 265.84 89.9421 265.842 89.869C266.057 90.3966 266.514 91.3488 266.678 91.7379Z" fill="#BB9F50" stroke="#CDAE54" stroke-width="0.2"/>
<path d="M269.395 95.2122L269.168 94.8072C269.154 94.8241 267.813 93.5652 267.165 93.3148C266.566 93.1464 264.548 93.9075 264.24 93.9285C265.911 94.6723 267.648 95.0924 269.395 95.2122Z" fill="#BB9F50" stroke="#CDAE54" stroke-width="0.2"/>
<path d="M264.205 93.9377C264.151 93.9934 266.426 96.7178 267.141 96.8268C267.82 97.0337 269.211 95.5357 269.193 95.5202L269.409 95.2373L269.395 95.2121C267.648 95.0924 265.911 94.6723 264.24 93.9284C264.218 93.934 264.205 93.9377 264.205 93.9377Z" fill="#BB9F50" stroke="#CDAE54" stroke-width="0.2"/>
<path d="M267.141 99.8175L267.139 99.8242C267.146 99.8514 268.641 99.2177 268.98 99.1988C269.332 99.1881 270.441 99.219 270.733 99.0352C271.038 98.8928 271.998 97.4585 272.09 97.3658C272.195 97.29 272.329 96.653 272.328 96.6527C272.328 96.6527 272.316 96.6439 272.299 96.6307C271.423 97.2266 269.045 98.1949 268.712 98.4827C268.432 98.803 267.602 99.5007 267.141 99.8175Z" fill="#BB9F50" stroke="#CDAE54" stroke-width="0.2"/>
<path d="M268.712 98.4826C269.045 98.1949 271.423 97.2266 272.299 96.6307C272.106 96.5071 271.039 95.6808 270.294 95.9699C269.484 96.3054 268.219 97.5359 268.006 97.8622C267.818 98.1777 267.177 99.7492 267.141 99.8175C267.602 99.5007 268.432 98.803 268.712 98.4826Z" fill="#BB9F50" stroke="#CDAE54" stroke-width="0.2"/>
<path d="M268.449 90.2777L268.449 90.2711C268.437 90.289 269.374 91.4506 269.652 91.5675C269.916 91.6799 270.778 91.9503 271.003 92.1154C271.213 92.3149 271.987 93.6943 272.091 93.7496C272.183 93.821 272.31 94.4061 272.311 94.4062C272.311 94.4062 272.3 94.4143 272.284 94.426C271.408 94.0206 269.492 92.5602 269.333 92.0981C269.158 91.7186 268.677 90.7929 268.449 90.2777Z" fill="#BB9F50" stroke="#CDAE54" stroke-width="0.2"/>
<path d="M269.333 92.0981C269.492 92.5601 271.408 94.0206 272.284 94.4259C272.125 94.569 271.054 95.2825 270.355 94.8284C269.584 94.3474 268.74 92.7345 268.661 92.372C268.568 92.0036 268.449 90.3508 268.449 90.2776C268.677 90.7928 269.158 91.7185 269.333 92.0981Z" fill="#BB9F50" stroke="#CDAE54" stroke-width="0.2"/>
<path d="M272.137 95.4168L271.9 95.0249C271.887 95.0425 270.514 93.86 269.86 93.6463C269.258 93.5117 267.261 94.3859 266.953 94.4242C268.642 95.0734 270.389 95.3954 272.137 95.4168Z" fill="#BB9F50" stroke="#CDAE54" stroke-width="0.2"/>
<path d="M266.918 94.4355C266.866 94.4941 269.209 97.0884 269.927 97.1571C270.611 97.3257 271.963 95.7504 271.944 95.7359L272.152 95.4411L272.137 95.4167C270.389 95.3954 268.642 95.0734 266.953 94.4242C266.931 94.431 266.918 94.4355 266.918 94.4355Z" fill="#BB9F50" stroke="#CDAE54" stroke-width="0.2"/>
<path d="M270.203 99.523L270.201 99.5299C270.209 99.5565 271.681 98.8174 272.02 98.7744C272.371 98.7388 273.479 98.6909 273.765 98.4866C274.065 98.3227 274.977 96.8219 275.066 96.7228C275.168 96.6397 275.281 95.9939 275.28 95.9936C275.28 95.9936 275.268 95.9856 275.251 95.9737C274.395 96.6311 272.051 97.7671 271.728 98.0783C271.459 98.418 270.653 99.1738 270.203 99.523Z" fill="#BB9F50" stroke="#CDAE54" stroke-width="0.2"/>
<path d="M271.728 98.0784C272.051 97.7673 274.395 96.6314 275.251 95.9739C275.053 95.8642 273.961 95.1146 273.226 95.4563C272.428 95.8488 271.205 97.1677 271.002 97.5088C270.825 97.8372 270.236 99.4524 270.203 99.5232C270.653 99.174 271.459 98.4182 271.728 98.0784Z" fill="#BB9F50" stroke="#CDAE54" stroke-width="0.2"/>
<path d="M271.4 91.8013L271.4 91.7946C271.388 91.8126 272.326 92.9742 272.603 93.0911C272.867 93.2034 273.729 93.4739 273.954 93.639C274.164 93.8385 274.939 95.2179 275.042 95.2731C275.134 95.3445 275.262 95.9297 275.262 95.9297C275.262 95.9297 275.251 95.9379 275.236 95.9495C274.359 95.5442 272.443 94.0838 272.284 93.6217C272.109 93.2422 271.628 92.3164 271.4 91.8013Z" fill="#BB9F50" stroke="#CDAE54" stroke-width="0.2"/>
<path d="M272.284 93.6216C272.443 94.0837 274.359 95.5441 275.235 95.9495C275.076 96.0925 274.006 96.8061 273.306 96.352C272.535 95.871 271.691 94.258 271.612 93.8956C271.519 93.5271 271.4 91.8743 271.4 91.8012C271.628 92.3163 272.109 93.2421 272.284 93.6216Z" fill="#BB9F50" stroke="#CDAE54" stroke-width="0.2"/>
<path d="M275.236 95.9495L274.999 95.5576C274.985 95.5752 273.613 94.3927 272.958 94.179C272.356 94.0444 270.359 94.9186 270.051 94.9569C271.741 95.6061 273.487 95.9282 275.236 95.9495Z" fill="#BB9F50" stroke="#CDAE54" stroke-width="0.2"/>
<path d="M270.017 94.9682C269.964 95.0268 272.308 97.6212 273.026 97.6898C273.71 97.8584 275.061 96.2831 275.042 96.2687L275.251 95.9738L275.236 95.9494C273.487 95.9282 271.741 95.6061 270.051 94.9569C270.029 94.9637 270.017 94.9682 270.017 94.9682Z" fill="#BB9F50" stroke="#CDAE54" stroke-width="0.2"/>
<path d="M288.549 56.0082L288.549 56.0002C288.565 55.9828 289.611 57.6785 289.893 57.9571C290.188 58.2382 291.143 59.0695 291.326 59.4517C291.534 59.8089 291.839 61.7716 291.885 61.9218C291.947 62.0673 291.833 62.713 291.833 62.7129C291.833 62.7129 291.82 62.7111 291.801 62.7092C291.267 61.5243 289.589 58.861 289.409 58.3584C289.284 57.8693 288.828 56.634 288.549 56.0082Z" fill="#BB9F50" stroke="#CDAE54" stroke-width="0.2"/>
<path d="M289.408 58.3584C289.589 58.8608 291.267 61.5242 291.8 62.7092C291.591 62.6644 290.389 62.5428 289.858 61.7204C289.288 60.8081 288.651 58.7831 288.586 58.3402C288.539 57.9268 288.554 56.0937 288.549 56.0082C288.828 56.634 289.284 57.8693 289.408 58.3584Z" fill="#BB9F50" stroke="#CDAE54" stroke-width="0.2"/>
<path d="M286.257 65.1369L286.255 65.1425C286.251 65.1181 287.463 64.8547 287.741 64.9697C288.006 65.0785 288.835 65.5148 289.086 65.5486C289.336 65.541 290.487 64.9667 290.595 64.9997C290.698 65.0099 291.016 64.6107 291.017 64.6113C291.017 64.6113 291.01 64.5958 291.001 64.5737C290.11 64.2407 287.959 64.0017 287.659 64.2716C287.375 64.4594 286.635 64.8747 286.257 65.1369Z" fill="#BB9F50" stroke="#CDAE54" stroke-width="0.2"/>
<path d="M287.659 64.2713C287.959 64.0014 290.11 64.2403 291.001 64.5734C290.916 64.3286 290.26 62.8933 289.503 62.7384C288.675 62.5518 287.381 63.271 287.185 63.5188C286.974 63.7601 286.283 65.0742 286.257 65.1367C286.635 64.8745 287.375 64.4592 287.659 64.2713Z" fill="#BB9F50" stroke="#CDAE54" stroke-width="0.2"/>
<path d="M291.229 63.6168L290.888 63.7671C290.883 63.7418 289.293 63.6863 288.66 63.362C288.099 63.0105 286.712 60.7221 286.464 60.4515C288.133 61.206 289.734 62.2827 291.229 63.6168Z" fill="#BB9F50" stroke="#CDAE54" stroke-width="0.2"/>
<path d="M286.438 60.4149C286.415 60.3244 289.335 59.9297 289.97 60.4267C290.612 60.8123 291.2 63.1977 291.179 63.1957L291.251 63.6076L291.229 63.6167C289.734 62.2825 288.133 61.2058 286.464 60.4513C286.448 60.4287 286.438 60.4149 286.438 60.4149Z" fill="#BB9F50" stroke="#CDAE54" stroke-width="0.2"/>
<path d="M291.624 57.7742L291.624 57.7662C291.641 57.7513 292.562 59.5977 292.823 59.9179C293.097 60.2428 293.988 61.2154 294.142 61.6235C294.325 62.0107 294.49 64.0093 294.524 64.1656C294.576 64.3199 294.418 64.9448 294.417 64.9446C294.417 64.9446 294.404 64.9408 294.385 64.936C293.938 63.676 292.457 60.7706 292.313 60.2431C292.224 59.7376 291.857 58.4392 291.624 57.7742Z" fill="#BB9F50" stroke="#CDAE54" stroke-width="0.2"/>
<path d="M292.313 60.2429C292.457 60.7703 293.938 63.6758 294.385 64.9358C294.18 64.8594 292.993 64.5547 292.523 63.6555C292.021 62.6611 291.53 60.5496 291.496 60.0992C291.479 59.6809 291.623 57.8599 291.624 57.774C291.857 58.4391 292.224 59.7375 292.313 60.2429Z" fill="#BB9F50" stroke="#CDAE54" stroke-width="0.2"/>
<path d="M288.7 66.5031L288.698 66.5083C288.696 66.4835 289.92 66.4068 290.188 66.5636C290.444 66.7123 291.238 67.273 291.485 67.3449C291.734 67.3756 292.92 66.9803 293.025 67.0297C293.127 67.0557 293.471 66.7071 293.471 66.7078C293.471 66.7078 293.466 66.6914 293.458 66.668C292.596 66.2007 290.474 65.6343 290.156 65.8568C289.86 66.0001 289.095 66.3 288.7 66.5031Z" fill="#BB9F50" stroke="#CDAE54" stroke-width="0.2"/>
<path d="M290.156 65.8568C290.473 65.6343 292.596 66.2008 293.458 66.6681C293.392 66.4118 292.84 64.8839 292.097 64.6141C291.288 64.302 289.95 64.8195 289.738 65.036C289.511 65.2437 288.731 66.4451 288.7 66.5033C289.095 66.3002 289.86 66.0003 290.156 65.8568Z" fill="#BB9F50" stroke="#CDAE54" stroke-width="0.2"/>
<path d="M293.753 65.7511L293.403 65.8484C293.4 65.8225 291.822 65.5242 291.215 65.1049C290.683 64.6696 289.464 62.1815 289.237 61.8745C290.844 62.88 292.36 64.1956 293.753 65.7511Z" fill="#BB9F50" stroke="#CDAE54" stroke-width="0.2"/>
<path d="M289.214 61.8344C289.196 61.7407 292.129 61.7946 292.726 62.386C293.337 62.8676 293.753 65.3299 293.733 65.3248L293.775 65.7454L293.753 65.7512C292.36 64.1956 290.844 62.88 289.237 61.8745C289.222 61.8496 289.214 61.8344 289.214 61.8344Z" fill="#BB9F50" stroke="#CDAE54" stroke-width="0.2"/>
<path d="M293.882 60.1194L293.884 60.1117C293.902 60.1014 294.589 62.1571 294.807 62.5398C295.038 62.9304 295.799 64.1182 295.903 64.5599C296.037 64.9883 295.96 66.9984 295.976 67.1613C296.008 67.3265 295.778 67.9007 295.777 67.9004C295.777 67.9004 295.765 67.8933 295.747 67.8837C295.457 66.5279 294.346 63.2848 294.266 62.7281C294.239 62.2075 294.032 60.8344 293.882 60.1194Z" fill="#BB9F50" stroke="#CDAE54" stroke-width="0.2"/>
<path d="M294.266 62.7279C294.345 63.2844 295.457 66.5276 295.747 67.8835C295.554 67.7554 294.422 67.1487 294.066 66.1419C293.69 65.033 293.459 62.8276 293.48 62.3754C293.512 61.9591 293.872 60.2037 293.882 60.1193C294.032 60.8342 294.239 62.2074 294.266 62.7279Z" fill="#BB9F50" stroke="#CDAE54" stroke-width="0.2"/>
<path d="M289.964 67.9573L289.96 67.9617C289.961 67.9369 291.176 68.1777 291.421 68.4014C291.655 68.6138 292.37 69.3712 292.605 69.5058C292.846 69.6003 294.06 69.5177 294.158 69.5934C294.255 69.6454 294.635 69.3911 294.636 69.3919C294.636 69.3919 294.633 69.3744 294.628 69.3494C293.835 68.6665 291.813 67.5603 291.473 67.6972C291.165 67.7618 290.376 67.8593 289.964 67.9573Z" fill="#BB9F50" stroke="#CDAE54" stroke-width="0.2"/>
<path d="M291.473 67.697C291.813 67.5601 293.835 68.6663 294.628 69.3492C294.593 69.0796 294.232 67.4329 293.533 66.9754C292.773 66.459 291.394 66.6226 291.16 66.7808C290.912 66.9267 290 67.9077 289.964 67.9573C290.376 67.8592 291.165 67.7617 291.473 67.697Z" fill="#BB9F50" stroke="#CDAE54" stroke-width="0.2"/>
<path d="M295.027 68.523L294.671 68.5283C294.671 68.502 293.154 67.8007 292.606 67.231C292.134 66.6648 291.231 63.9004 291.043 63.5393C292.505 64.9445 293.841 66.6316 295.027 68.523Z" fill="#BB9F50" stroke="#CDAE54" stroke-width="0.2"/>
<path d="M291.026 63.494C291.02 63.3972 293.9 64.2081 294.417 64.9445C294.962 65.5768 295.078 68.1084 295.058 68.098L295.05 68.5231L295.027 68.523C293.841 66.6316 292.505 64.9445 291.043 63.5393C291.032 63.511 291.026 63.494 291.026 63.494Z" fill="#BB9F50" stroke="#CDAE54" stroke-width="0.2"/>
<path d="M295.722 63.012L295.725 63.0047C295.744 62.9985 296.221 65.1789 296.4 65.6041C296.59 66.0399 297.226 67.3773 297.285 67.8365C297.375 68.2889 297.102 70.2615 297.102 70.426C297.117 70.5963 296.833 71.1154 296.833 71.115C296.833 71.115 296.821 71.1053 296.804 71.092C296.651 69.6887 295.87 66.2429 295.846 65.6752C295.87 65.1543 295.801 63.7515 295.722 63.012Z" fill="#BB9F50" stroke="#CDAE54" stroke-width="0.2"/>
<path d="M295.846 65.675C295.87 66.2426 296.651 69.6885 296.804 71.0919C296.626 70.9241 295.565 70.0824 295.313 69.0104C295.049 67.8331 295.038 65.6016 295.102 65.1586C295.176 64.7536 295.704 63.0933 295.722 63.012C295.801 63.7514 295.87 65.1542 295.846 65.675Z" fill="#BB9F50" stroke="#CDAE54" stroke-width="0.2"/>
<path d="M291.074 69.9321L291.071 69.9357C291.074 69.9114 292.252 70.4085 292.473 70.682C292.683 70.9422 293.316 71.844 293.535 72.0271C293.765 72.172 294.975 72.3492 295.064 72.4449C295.155 72.5171 295.556 72.3465 295.556 72.3475C295.556 72.3475 295.555 72.3294 295.553 72.3037C294.835 71.4589 292.943 69.9333 292.594 69.9964C292.282 69.9947 291.492 69.923 291.074 69.9321Z" fill="#BB9F50" stroke="#CDAE54" stroke-width="0.2"/>
<path d="M292.594 69.9964C292.943 69.9333 294.835 71.4589 295.553 72.3036C295.544 72.0294 295.349 70.3232 294.703 69.7215C294.002 69.0486 292.621 68.9166 292.373 69.0231C292.114 69.1146 291.115 69.891 291.074 69.9322C291.492 69.9231 292.282 69.9948 292.594 69.9964Z" fill="#BB9F50" stroke="#CDAE54" stroke-width="0.2"/>
<path d="M296.029 71.5712L295.676 71.5006C295.679 71.4745 294.246 70.4572 293.761 69.7768C293.349 69.1158 292.727 66.1881 292.577 65.7909C293.886 67.493 295.042 69.447 296.029 71.5712Z" fill="#BB9F50" stroke="#CDAE54" stroke-width="0.2"/>
<path d="M292.564 65.7423C292.568 65.6454 295.338 67.0616 295.777 67.9005C296.254 68.6421 296.12 71.1718 296.101 71.1573L296.051 71.5762L296.029 71.5714C295.042 69.4471 293.886 67.493 292.577 65.791C292.569 65.7605 292.564 65.7423 292.564 65.7423Z" fill="#BB9F50" stroke="#CDAE54" stroke-width="0.2"/>
<path d="M298.103 66.7424L298.107 66.7364C298.127 66.7391 298.132 69.0298 298.214 69.5148C298.306 70.0151 298.636 71.5736 298.598 72.0376C298.59 72.5089 297.924 74.2664 297.889 74.4228C297.869 74.5921 297.491 74.9597 297.491 74.9591C297.491 74.9591 297.481 74.9446 297.468 74.9245C297.612 73.519 297.578 69.8866 297.672 69.3351C297.803 68.8497 298.026 67.482 298.103 66.7424Z" fill="#BB9F50" stroke="#CDAE54" stroke-width="0.2"/>
<path d="M297.672 69.335C297.578 69.8863 297.612 73.5188 297.468 74.9243C297.333 74.685 296.496 73.4091 296.476 72.2747C296.468 71.0353 296.917 68.9037 297.07 68.5106C297.223 68.1574 298.069 66.8114 298.103 66.7423C298.026 67.4819 297.803 68.8496 297.672 69.335Z" fill="#BB9F50" stroke="#CDAE54" stroke-width="0.2"/>
<path d="M292.248 71.2593L292.244 71.261C292.252 71.2395 293.272 72.2393 293.426 72.5986C293.573 72.9406 293.99 74.0828 294.161 74.3551C294.35 74.5957 295.466 75.3051 295.531 75.436C295.603 75.5457 296.02 75.5623 296.021 75.5634C296.021 75.5634 296.023 75.5455 296.026 75.52C295.517 74.3945 294.028 72.0955 293.682 71.9995C293.386 71.8586 292.648 71.4371 292.248 71.2593Z" fill="#BB9F50" stroke="#CDAE54" stroke-width="0.2"/>
<path d="M293.682 71.9993C294.028 72.0953 295.517 74.3942 296.026 75.5198C296.075 75.2548 296.241 73.5419 295.749 72.6798C295.22 71.7254 293.931 70.9827 293.673 70.9734C293.407 70.9445 292.296 71.2383 292.248 71.2592C292.648 71.437 293.386 71.8586 293.682 71.9993Z" fill="#BB9F50" stroke="#CDAE54" stroke-width="0.2"/>
<path d="M296.631 75.0348L296.309 74.8097C296.317 74.786 295.162 73.1766 294.84 72.3114C294.583 71.4975 294.595 68.4302 294.534 67.9846C295.43 70.1911 296.128 72.5695 296.631 75.0348Z" fill="#BB9F50" stroke="#CDAE54" stroke-width="0.2"/>
<path d="M294.531 67.9324C294.555 67.8417 296.902 70.4288 297.148 71.4245C297.449 72.3441 296.8 74.6946 296.785 74.6725L296.651 75.0493L296.631 75.0348C296.128 72.5695 295.43 70.1911 294.534 67.9846C294.532 67.9518 294.531 67.9324 294.531 67.9324Z" fill="#BB9F50" stroke="#CDAE54" stroke-width="0.2"/>
<path d="M299.275 71.104L299.279 71.0991C299.298 71.1072 299.015 73.3596 299.035 73.8588C299.062 74.3753 299.19 75.9969 299.095 76.4425C299.028 76.9036 298.151 78.4487 298.098 78.5929C298.057 78.7538 297.639 79.0119 297.639 79.0113C297.639 79.0113 297.631 78.9946 297.621 78.9711C297.939 77.6291 298.363 74.0504 298.525 73.5343C298.714 73.0928 299.106 71.8096 299.275 71.104Z" fill="#BB9F50" stroke="#CDAE54" stroke-width="0.2"/>
<path d="M298.525 73.534C298.363 74.05 297.939 77.6288 297.621 78.9708C297.519 78.6989 296.857 77.2166 296.98 76.0965C297.128 74.8764 297.837 72.9041 298.037 72.5596C298.232 72.2544 299.232 71.1623 299.275 71.1039C299.106 71.8094 298.714 73.0926 298.525 73.534Z" fill="#BB9F50" stroke="#CDAE54" stroke-width="0.2"/>
<path d="M292.953 73.9449L292.948 73.9454C292.959 73.9265 293.835 75.1873 293.941 75.5824C294.043 75.9586 294.309 77.1949 294.443 77.509C294.598 77.797 295.605 78.7987 295.653 78.945C295.71 79.0725 296.118 79.2027 296.118 79.2039C296.118 79.2039 296.123 79.1868 296.129 79.1627C295.77 77.9176 294.597 75.2524 294.269 75.0637C293.995 74.8444 293.323 74.2287 292.953 73.9449Z" fill="#BB9F50" stroke="#CDAE54" stroke-width="0.2"/>
<path d="M294.269 75.0634C294.597 75.2521 295.77 77.9173 296.129 79.1624C296.21 78.9154 296.589 77.2773 296.214 76.2959C295.814 75.2137 294.642 74.1324 294.389 74.0528C294.131 73.9517 293.002 73.9372 292.953 73.9448C293.323 74.2286 293.995 74.8443 294.269 75.0634Z" fill="#BB9F50" stroke="#CDAE54" stroke-width="0.2"/>
<path d="M296.785 78.8512L296.497 78.5422C296.507 78.5211 295.575 76.6243 295.367 75.6861C295.217 74.8164 295.615 71.8053 295.611 71.3508C296.213 73.7636 296.601 76.2914 296.785 78.8512Z" fill="#BB9F50" stroke="#CDAE54" stroke-width="0.2"/>
<path d="M295.615 71.2989C295.65 71.2161 297.631 74.399 297.747 75.4444C297.927 76.4303 296.993 78.5629 296.982 78.5373L296.802 78.871L296.784 78.8512C296.601 76.2913 296.213 73.7635 295.611 71.3508C295.613 71.3181 295.615 71.2989 295.615 71.2989Z" fill="#BB9F50" stroke="#CDAE54" stroke-width="0.2"/>
<path d="M300.155 76.2672L300.16 76.2643C300.177 76.28 299.469 78.3198 299.391 78.8067C299.317 79.313 299.125 80.9212 298.947 81.3078C298.794 81.7218 297.654 82.8344 297.575 82.9501C297.504 83.087 297.054 83.1589 297.054 83.1582C297.054 83.1582 297.05 83.1392 297.045 83.1123C297.609 81.9596 298.709 78.7078 298.965 78.2813C299.232 77.9377 299.856 76.8723 300.155 76.2672Z" fill="#BB9F50" stroke="#CDAE54" stroke-width="0.2"/>
<path d="M298.965 78.281C298.709 78.7074 297.61 81.9592 297.045 83.112C296.999 82.8084 296.652 81.1096 296.987 80.0877C297.366 78.9807 298.428 77.3884 298.686 77.1422C298.932 76.9316 300.103 76.3051 300.155 76.2671C299.856 76.8721 299.232 77.9376 298.965 78.281Z" fill="#BB9F50" stroke="#CDAE54" stroke-width="0.2"/>
<path d="M293.545 76.3337L293.54 76.3324C293.554 76.3189 294.15 77.8953 294.175 78.3184C294.199 78.7217 294.215 80.0185 294.282 80.3756C294.375 80.7168 295.146 82.1002 295.164 82.2604C295.194 82.4066 295.559 82.7027 295.559 82.7039C295.559 82.7039 295.567 82.6895 295.578 82.669C295.475 81.3248 294.867 78.2776 294.589 77.959C294.37 77.634 293.845 76.7613 293.545 76.3337Z" fill="#BB9F50" stroke="#CDAE54" stroke-width="0.2"/>
<path d="M294.589 77.9589C294.867 78.2775 295.475 81.3247 295.578 82.6689C295.703 82.4663 296.384 81.0554 296.215 79.9573C296.041 78.7521 295.127 77.2233 294.9 77.0408C294.673 76.8355 293.593 76.3473 293.545 76.3338C293.845 76.7614 294.37 77.634 294.589 77.9589Z" fill="#BB9F50" stroke="#CDAE54" stroke-width="0.2"/>
<path d="M296.266 82.6457L296.05 82.2286C296.065 82.2129 295.538 80.0032 295.521 79.0166C295.546 78.1203 296.511 75.4014 296.595 74.9641C296.705 77.5298 296.586 80.1151 296.266 82.6457Z" fill="#BB9F50" stroke="#CDAE54" stroke-width="0.2"/>
<path d="M296.609 74.9164C296.658 74.8516 297.94 78.7345 297.849 79.7852C297.831 80.8058 296.522 82.4573 296.516 82.4279L296.28 82.6725L296.266 82.646C296.586 80.1153 296.705 77.53 296.595 74.9643C296.604 74.9341 296.609 74.9164 296.609 74.9164Z" fill="#BB9F50" stroke="#CDAE54" stroke-width="0.2"/>
<path d="M300.134 81.7934L300.139 81.7938C300.15 81.8181 298.939 83.256 298.733 83.6541C298.525 84.0719 297.905 85.4257 297.635 85.6718C297.381 85.9579 296.032 86.2902 295.928 86.3482C295.825 86.4309 295.394 86.2264 295.394 86.2257C295.394 86.2257 295.396 86.2061 295.399 86.1783C296.233 85.4644 298.138 83.1549 298.489 82.9187C298.828 82.7652 299.693 82.1664 300.134 81.7934Z" fill="#BB9F50" stroke="#CDAE54" stroke-width="0.2"/>
<path d="M298.489 82.9185C298.138 83.1546 296.233 85.4642 295.399 86.1781C295.441 85.8736 295.594 84.114 296.183 83.3819C296.835 82.598 298.246 81.7811 298.55 81.7113C298.833 81.6666 300.075 81.7967 300.133 81.7933C299.693 82.1663 298.828 82.7651 298.489 82.9185Z" fill="#BB9F50" stroke="#CDAE54" stroke-width="0.2"/>
<path d="M294.079 77.8884L294.075 77.8845C294.092 77.8807 294.199 79.6775 294.105 80.0788C294.015 80.4617 293.671 81.6554 293.633 82.0217C293.623 82.3891 293.945 84.1153 293.916 84.2718C293.903 84.4234 294.155 84.9133 294.155 84.9143C294.155 84.9143 294.166 84.9056 294.181 84.8934C294.46 83.6042 294.748 80.4569 294.583 79.9994C294.472 79.5708 294.234 78.4588 294.079 77.8884Z" fill="#BB9F50" stroke="#CDAE54" stroke-width="0.2"/>
<path d="M294.583 79.9992C294.748 80.4567 294.46 83.604 294.181 84.8932C294.352 84.7836 295.364 83.9033 295.514 82.7992C295.689 81.5944 295.277 79.65 295.121 79.3473C294.97 79.0232 294.119 77.9299 294.079 77.8883C294.234 78.4587 294.472 79.5707 294.583 79.9992Z" fill="#BB9F50" stroke="#CDAE54" stroke-width="0.2"/>
<path d="M294.817 85.2855L294.735 84.775C294.752 84.7691 294.884 82.4356 295.141 81.5242C295.412 80.7209 297.045 78.8166 297.243 78.4679C296.634 80.8768 295.809 83.1664 294.817 85.2855Z" fill="#BB9F50" stroke="#CDAE54" stroke-width="0.2"/>
<path d="M297.27 78.4326C297.332 78.4029 297.428 82.7178 297.054 83.6225C296.755 84.5436 295.103 85.2667 295.105 85.2362L294.822 85.3177L294.817 85.2855C295.809 83.1664 296.634 80.8768 297.243 78.4679C297.26 78.4455 297.27 78.4326 297.27 78.4326Z" fill="#BB9F50" stroke="#CDAE54" stroke-width="0.2"/>
<path d="M298.608 85.4563L298.613 85.4577C298.622 85.4839 297.295 86.6818 297.057 87.0379C296.814 87.4131 296.082 88.639 295.793 88.8323C295.516 89.0681 294.149 89.1436 294.04 89.1814C293.932 89.2442 293.522 88.9601 293.522 88.9595C293.522 88.9595 293.526 88.9405 293.53 88.9133C294.42 88.3626 296.51 86.4307 296.879 86.2627C297.229 86.1742 298.138 85.7432 298.608 85.4563Z" fill="#BB9F50" stroke="#CDAE54" stroke-width="0.2"/>
<path d="M296.879 86.2624C296.51 86.4304 294.42 88.3623 293.53 88.913C293.599 88.6191 293.904 86.9028 294.552 86.2876C295.267 85.633 296.736 85.0885 297.044 85.0765C297.329 85.0856 298.549 85.4485 298.607 85.4562C298.138 85.7431 297.229 86.1741 296.879 86.2624Z" fill="#BB9F50" stroke="#CDAE54" stroke-width="0.2"/>
<path d="M292.942 80.4427L292.938 80.4381C292.955 80.4375 292.906 82.2397 292.777 82.62C292.655 82.9829 292.21 84.1019 292.141 84.4581C292.099 84.8207 292.268 86.5933 292.226 86.7431C292.2 86.891 292.407 87.4243 292.407 87.4252C292.407 87.4252 292.419 87.4187 292.435 87.4095C292.823 86.1833 293.383 83.1162 293.258 82.6313C293.186 82.1854 293.046 81.0377 292.942 80.4427Z" fill="#BB9F50" stroke="#CDAE54" stroke-width="0.2"/>
<path d="M293.258 82.6314C293.383 83.1163 292.823 86.1834 292.435 87.4095C292.614 87.3331 293.694 86.6506 293.938 85.5837C294.217 84.4219 293.978 82.4158 293.849 82.0863C293.727 81.7363 292.979 80.4918 292.942 80.4428C293.046 81.0379 293.186 82.1856 293.258 82.6314Z" fill="#BB9F50" stroke="#CDAE54" stroke-width="0.2"/>
<path d="M293.031 87.918L292.994 87.3963C293.012 87.3938 293.345 85.1042 293.679 84.2487C294.018 83.5031 295.803 81.9221 296.03 81.6135C295.216 83.8878 294.2 86.0033 293.031 87.918Z" fill="#BB9F50" stroke="#CDAE54" stroke-width="0.2"/>
<path d="M296.059 81.5835C296.124 81.5658 295.844 85.8633 295.394 86.69C295.017 87.5472 293.316 87.9532 293.321 87.9235L293.033 87.9509L293.031 87.918C294.2 86.0033 295.216 83.8878 296.03 81.6135C296.048 81.5944 296.059 81.5835 296.059 81.5835Z" fill="#BB9F50" stroke="#CDAE54" stroke-width="0.2"/>
<path d="M296.797 89.0116L296.803 89.0136C296.81 89.0407 295.426 90.0878 295.17 90.4164C294.909 90.7635 294.116 91.9046 293.818 92.0652C293.529 92.2695 292.163 92.193 292.052 92.2187C291.941 92.2692 291.547 91.9404 291.547 91.9398C291.547 91.9398 291.551 91.9212 291.558 91.8946C292.473 91.4443 294.656 89.7502 295.033 89.6236C295.386 89.5743 296.315 89.2455 296.797 89.0116Z" fill="#BB9F50" stroke="#CDAE54" stroke-width="0.2"/>
<path d="M295.033 89.6235C294.656 89.75 292.473 91.4442 291.558 91.8945C291.641 91.609 292.033 89.9315 292.711 89.3901C293.457 88.8167 294.951 88.4371 295.258 88.4593C295.541 88.5 296.74 88.9975 296.797 89.0116C296.315 89.2455 295.386 89.5743 295.033 89.6235Z" fill="#BB9F50" stroke="#CDAE54" stroke-width="0.2"/>
<path d="M291.405 83.3829L291.402 83.3779C291.419 83.3792 291.277 85.1708 291.129 85.5357C290.989 85.8841 290.487 86.9503 290.4 87.2979C290.34 87.6548 290.418 89.4412 290.368 89.5858C290.335 89.7304 290.514 90.2852 290.514 90.2861C290.514 90.2861 290.525 90.2808 290.542 90.2735C290.992 89.0939 291.707 86.0978 291.608 85.6005C291.559 85.1477 291.479 83.9878 291.405 83.3829Z" fill="#BB9F50" stroke="#CDAE54" stroke-width="0.2"/>
<path d="M291.608 85.6005C291.707 86.0978 290.992 89.0939 290.542 90.2735C290.725 90.2171 291.837 89.6566 292.135 88.6199C292.472 87.4923 292.337 85.4654 292.225 85.1225C292.121 84.7599 291.439 83.4359 291.405 83.383C291.479 83.9879 291.559 85.1478 291.608 85.6005Z" fill="#BB9F50" stroke="#CDAE54" stroke-width="0.2"/>
<path d="M291.111 90.847L291.101 90.3227C291.119 90.3222 291.568 88.076 291.945 87.2601C292.321 86.5543 294.182 85.1761 294.424 84.8937C293.496 87.071 292.374 89.0676 291.111 90.847Z" fill="#BB9F50" stroke="#CDAE54" stroke-width="0.2"/>
<path d="M294.455 84.8669C294.52 84.8565 294.021 89.1106 293.53 89.885C293.11 90.6979 291.393 90.9137 291.4 90.8846L291.111 90.8799L291.111 90.8469C292.374 89.0675 293.496 87.071 294.424 84.8936C294.443 84.8766 294.455 84.8669 294.455 84.8669Z" fill="#BB9F50" stroke="#CDAE54" stroke-width="0.2"/>
<path d="M294.439 93.0614L294.443 93.0653C294.446 93.0942 292.929 93.6029 292.625 93.8277C292.314 94.0685 291.353 94.8841 291.037 94.9308C290.723 95.0232 289.413 94.4498 289.301 94.4343C289.185 94.4425 288.858 93.98 288.859 93.9794C288.859 93.9794 288.866 93.9631 288.877 93.9397C289.84 93.838 292.24 92.9945 292.626 93.0095C292.976 93.0907 293.931 93.1116 294.439 93.0614Z" fill="#BB9F50" stroke="#CDAE54" stroke-width="0.2"/>
<path d="M292.626 93.0094C292.24 92.9944 289.84 93.8381 288.877 93.9396C289.006 93.6936 289.668 92.2118 290.416 91.9348C291.236 91.6521 292.747 91.8302 293.041 91.9641C293.308 92.107 294.385 93.0269 294.439 93.0615C293.931 93.1117 292.976 93.0907 292.626 93.0094Z" fill="#BB9F50" stroke="#CDAE54" stroke-width="0.2"/>
<path d="M290.164 85.6385L290.161 85.6326C290.178 85.64 289.738 87.3237 289.534 87.6233C289.339 87.9095 288.674 88.7592 288.53 89.0639C288.412 89.3878 288.186 91.1467 288.114 91.2687C288.057 91.3965 288.137 91.9995 288.137 92.0001C288.137 92.0001 288.149 91.9994 288.167 91.9984C288.801 91.0201 289.999 88.379 289.987 87.8611C290.015 87.4045 290.133 86.2515 290.164 85.6385Z" fill="#BB9F50" stroke="#CDAE54" stroke-width="0.2"/>
<path d="M289.987 87.861C289.999 88.3789 288.801 91.02 288.167 91.9983C288.353 92.0104 289.525 91.8737 289.988 90.9784C290.505 90.0093 290.715 87.9963 290.665 87.6233C290.626 87.2343 290.188 85.7023 290.164 85.6385C290.133 86.2515 290.015 87.4045 289.987 87.861Z" fill="#BB9F50" stroke="#CDAE54" stroke-width="0.2"/>
<path d="M288.621 92.7614L288.699 92.2499C288.717 92.2559 289.531 90.2442 290.033 89.5917C290.517 89.0454 292.552 88.3905 292.834 88.2052C291.568 89.9752 290.144 91.4993 288.621 92.7614Z" fill="#BB9F50" stroke="#CDAE54" stroke-width="0.2"/>
<path d="M292.868 88.1903C292.933 88.2043 291.732 92.1428 291.126 92.7136C290.583 93.3476 288.883 92.9293 288.894 92.9035L288.615 92.7935L288.62 92.7613C290.144 91.4993 291.568 89.9752 292.834 88.2051C292.855 88.1955 292.868 88.1903 292.868 88.1903Z" fill="#BB9F50" stroke="#CDAE54" stroke-width="0.2"/>
<path d="M291.666 95.9037L291.67 95.9086C291.669 95.9378 290.116 96.0696 289.791 96.2174C289.457 96.379 288.418 96.9492 288.101 96.9182C287.781 96.9328 286.553 96.0478 286.445 96.0054C286.329 95.985 286.059 95.4494 286.06 95.4489C286.06 95.4489 286.069 95.4347 286.082 95.4141C287.043 95.5486 289.505 95.3016 289.884 95.4106C290.22 95.576 291.16 95.8295 291.666 95.9037Z" fill="#BB9F50" stroke="#CDAE54" stroke-width="0.2"/>
<path d="M289.884 95.4107C289.505 95.3017 287.043 95.5488 286.082 95.4142C286.237 95.2031 287.057 93.9032 287.825 93.8122C288.665 93.7332 290.135 94.2771 290.41 94.4808C290.658 94.687 291.617 95.8567 291.666 95.9039C291.16 95.8297 290.22 95.5763 289.884 95.4107Z" fill="#BB9F50" stroke="#CDAE54" stroke-width="0.2"/>
<path d="M288.284 87.5411L288.283 87.5347C288.298 87.546 287.675 89.0993 287.44 89.3449C287.216 89.5798 286.464 90.2555 286.289 90.5211C286.136 90.8117 285.715 92.4913 285.63 92.5939C285.559 92.7061 285.571 93.3204 285.57 93.3208C285.57 93.3208 285.582 93.3231 285.6 93.3264C286.336 92.5163 287.814 90.2036 287.86 89.6899C287.94 89.2466 288.186 88.1382 288.284 87.5411Z" fill="#BB9F50" stroke="#CDAE54" stroke-width="0.2"/>
<path d="M287.86 89.69C287.814 90.2037 286.336 92.5163 285.6 93.3264C285.782 93.3838 286.953 93.5345 287.511 92.7646C288.13 91.9349 288.563 90.0009 288.556 89.6207C288.561 89.2275 288.301 87.61 288.284 87.5411C288.186 88.1383 287.94 89.2466 287.86 89.69Z" fill="#BB9F50" stroke="#CDAE54" stroke-width="0.2"/>
<path d="M285.962 94.1896L286.097 93.7043C286.113 93.7145 287.142 91.9289 287.711 91.4079C288.25 90.987 290.331 90.8372 290.629 90.7233C289.182 92.1602 287.606 93.3163 285.962 94.1896Z" fill="#BB9F50" stroke="#CDAE54" stroke-width="0.2"/>
<path d="M290.665 90.7171C290.727 90.7467 289.1 94.3382 288.438 94.7533C287.831 95.2461 286.202 94.4192 286.216 94.3966L285.953 94.22L285.962 94.1896C287.606 93.3164 289.182 92.1603 290.629 90.7233C290.652 90.7191 290.665 90.7171 290.665 90.7171Z" fill="#BB9F50" stroke="#CDAE54" stroke-width="0.2"/>
<path d="M288.858 97.7655L288.862 97.7712C288.859 97.8 287.306 97.6638 286.972 97.7548C286.627 97.8578 285.55 98.2454 285.238 98.1602C284.919 98.1197 283.769 97.0296 283.665 96.9689C283.552 96.9287 283.326 96.3503 283.327 96.3499C283.327 96.3499 283.337 96.3374 283.352 96.3192C284.295 96.618 286.76 96.796 287.128 96.9694C287.449 97.1916 288.362 97.6049 288.858 97.7655Z" fill="#BB9F50" stroke="#CDAE54" stroke-width="0.2"/>
<path d="M287.128 96.9695C286.76 96.7961 284.296 96.6182 283.352 96.3193C283.522 96.1363 284.44 94.9862 285.21 95.028C286.051 95.094 287.468 95.8869 287.725 96.1365C287.954 96.3839 288.814 97.7105 288.858 97.7657C288.362 97.6051 287.449 97.1918 287.128 96.9695Z" fill="#BB9F50" stroke="#CDAE54" stroke-width="0.2"/>
<path d="M286.164 88.8789L286.163 88.8723C286.177 88.8861 285.435 90.3217 285.182 90.5252C284.941 90.72 284.14 91.2617 283.945 91.4954C283.77 91.7577 283.219 93.3534 283.126 93.4407C283.048 93.54 283.01 94.152 283.009 94.1524C283.009 94.1524 283.021 94.1567 283.038 94.163C283.833 93.4849 285.485 91.4423 285.572 90.9401C285.686 90.5134 286.018 89.4549 286.164 88.8789Z" fill="#BB9F50" stroke="#CDAE54" stroke-width="0.2"/>
<path d="M285.572 90.94C285.485 91.4423 283.833 93.4848 283.039 94.163C283.215 94.2513 284.366 94.6023 284.981 93.9336C285.661 93.2159 286.246 91.3697 286.268 90.9908C286.304 90.6012 286.175 88.9501 286.164 88.8788C286.018 89.4549 285.686 90.5134 285.572 90.94Z" fill="#BB9F50" stroke="#CDAE54" stroke-width="0.2"/>
<path d="M283.329 95.0824L283.502 94.6237C283.518 94.6366 284.681 93.0402 285.288 92.6207C285.856 92.2951 287.934 92.5042 288.24 92.4424C286.688 93.6206 285.032 94.4979 283.329 95.0824Z" fill="#BB9F50" stroke="#CDAE54" stroke-width="0.2"/>
<path d="M288.276 92.4424C288.336 92.4826 286.435 95.7697 285.744 96.0682C285.102 96.4532 283.549 95.3518 283.565 95.3317L283.318 95.1112L283.329 95.0825C285.032 94.498 286.688 93.6207 288.24 92.4425C288.262 92.4421 288.276 92.4424 288.276 92.4424Z" fill="#BB9F50" stroke="#CDAE54" stroke-width="0.2"/>
<path d="M285.807 99.2957L285.81 99.3023C285.804 99.3298 284.293 98.7808 283.954 98.781C283.602 98.7901 282.495 98.8834 282.198 98.7161C281.889 98.5911 280.893 97.2118 280.799 97.1244C280.692 97.0546 280.542 96.4255 280.542 96.4252C280.542 96.4252 280.554 96.4157 280.57 96.4017C281.462 96.9477 283.863 97.7815 284.204 98.0503C284.492 98.3545 285.339 99.005 285.807 99.2957Z" fill="#BB9F50" stroke="#CDAE54" stroke-width="0.2"/>
<path d="M284.204 98.05C283.863 97.7812 281.462 96.9476 280.57 96.4014C280.761 96.267 281.805 95.3813 282.557 95.6282C283.376 95.9178 284.671 97.0762 284.893 97.3903C285.089 97.695 285.77 99.2293 285.807 99.2955C285.339 99.0049 284.492 98.3544 284.204 98.05Z" fill="#BB9F50" stroke="#CDAE54" stroke-width="0.2"/>
<path d="M284.253 89.8362L284.253 89.8295C284.265 89.8468 283.359 91.0603 283.085 91.1928C282.823 91.3199 281.97 91.6387 281.749 91.8163C281.544 92.0275 280.806 93.4495 280.704 93.5105C280.614 93.587 280.502 94.1789 280.501 94.179C280.501 94.179 280.512 94.1865 280.528 94.1973C281.394 93.7429 283.27 92.1757 283.417 91.705C283.582 91.3159 284.039 90.3638 284.253 89.8362Z" fill="#BB9F50" stroke="#CDAE54" stroke-width="0.2"/>
<path d="M283.417 91.7052C283.27 92.1759 281.394 93.7431 280.528 94.1974C280.691 94.3315 281.779 94.9842 282.467 94.4911C283.224 93.967 284.026 92.3077 284.095 91.9411C284.179 91.5677 284.255 89.9094 284.253 89.8363C284.039 90.3639 283.582 91.3161 283.417 91.7052Z" fill="#BB9F50" stroke="#CDAE54" stroke-width="0.2"/>
<path d="M280.701 95.1796L280.927 94.7746C280.941 94.7915 282.282 93.5326 282.93 93.2822C283.529 93.1138 285.547 93.8749 285.856 93.8959C284.184 94.6397 282.447 95.0599 280.701 95.1796Z" fill="#BB9F50" stroke="#CDAE54" stroke-width="0.2"/>
<path d="M285.891 93.905C285.945 93.9606 283.67 96.6851 282.954 96.7941C282.275 97.001 280.884 95.503 280.902 95.4875L280.686 95.2046L280.701 95.1794C282.447 95.0597 284.184 94.6395 285.856 93.8957C285.878 93.9013 285.891 93.905 285.891 93.905Z" fill="#BB9F50" stroke="#CDAE54" stroke-width="0.2"/>
<path d="M282.954 99.7847L282.957 99.7914C282.95 99.8185 281.454 99.1849 281.115 99.166C280.763 99.1553 279.654 99.1862 279.363 99.0023C279.057 98.86 278.098 97.4257 278.005 97.333C277.901 97.2572 277.767 96.6201 277.767 96.6199C277.767 96.6199 277.779 96.611 277.796 96.5979C278.672 97.1938 281.051 98.1621 281.384 98.4499C281.664 98.7701 282.493 99.4678 282.954 99.7847Z" fill="#BB9F50" stroke="#CDAE54" stroke-width="0.2"/>
<path d="M281.384 98.4498C281.051 98.162 278.673 97.1938 277.796 96.5979C277.99 96.4743 279.056 95.648 279.801 95.9371C280.612 96.2725 281.876 97.503 282.09 97.8294C282.277 98.1449 282.919 99.7164 282.954 99.7847C282.493 99.4678 281.664 98.7701 281.384 98.4498Z" fill="#BB9F50" stroke="#CDAE54" stroke-width="0.2"/>
<path d="M281.647 90.2449L281.647 90.2382C281.658 90.2562 280.721 91.4178 280.444 91.5347C280.18 91.647 279.318 91.9175 279.093 92.0826C278.883 92.2821 278.108 93.6615 278.004 93.7167C277.913 93.7881 277.785 94.3733 277.784 94.3733C277.784 94.3733 277.795 94.3815 277.811 94.3931C278.688 93.9878 280.603 92.5274 280.763 92.0653C280.937 91.6858 281.419 90.76 281.647 90.2449Z" fill="#BB9F50" stroke="#CDAE54" stroke-width="0.2"/>
<path d="M280.763 92.0652C280.603 92.5273 278.688 93.9877 277.811 94.3931C277.97 94.5361 279.041 95.2497 279.741 94.7956C280.511 94.3146 281.356 92.7016 281.434 92.3392C281.528 91.9707 281.647 90.3179 281.647 90.2448C281.419 90.7599 280.937 91.6857 280.763 92.0652Z" fill="#BB9F50" stroke="#CDAE54" stroke-width="0.2"/>
<path d="M277.958 95.384L278.195 94.9921C278.208 95.0098 279.581 93.8273 280.235 93.6136C280.838 93.479 282.835 94.3532 283.143 94.3915C281.453 95.0407 279.707 95.3627 277.958 95.384Z" fill="#BB9F50" stroke="#CDAE54" stroke-width="0.2"/>
<path d="M283.177 94.4029C283.23 94.4615 280.886 97.0558 280.168 97.1245C279.484 97.2931 278.133 95.7178 278.151 95.7033L277.943 95.4085L277.958 95.3841C279.707 95.3629 281.453 95.0408 283.143 94.3916C283.164 94.3984 283.177 94.4029 283.177 94.4029Z" fill="#BB9F50" stroke="#CDAE54" stroke-width="0.2"/>
<path d="M279.892 99.4904L279.895 99.4973C279.887 99.5239 278.414 98.7848 278.076 98.7418C277.725 98.7062 276.616 98.6583 276.331 98.454C276.03 98.2901 275.119 96.7893 275.03 96.6902C274.928 96.6071 274.815 95.9613 274.815 95.961C274.815 95.961 274.827 95.9531 274.845 95.9411C275.701 96.5985 278.044 97.7346 278.368 98.0457C278.637 98.3854 279.443 99.1412 279.892 99.4904Z" fill="#BB9F50" stroke="#CDAE54" stroke-width="0.2"/>
<path d="M278.368 98.0456C278.044 97.7345 275.701 96.5985 274.845 95.9411C275.042 95.8314 276.134 95.0817 276.869 95.4234C277.668 95.816 278.891 97.1349 279.093 97.476C279.27 97.8044 279.859 99.4196 279.892 99.4904C279.443 99.1412 278.637 98.3854 278.368 98.0456Z" fill="#BB9F50" stroke="#CDAE54" stroke-width="0.2"/>
<path d="M278.695 91.7685L278.695 91.7618C278.707 91.7797 277.77 92.9414 277.492 93.0583C277.228 93.1706 276.367 93.4411 276.141 93.6061C275.932 93.8057 275.157 95.1851 275.053 95.2403C274.961 95.3117 274.834 95.8968 274.833 95.8969C274.833 95.8969 274.844 95.905 274.86 95.9167C275.736 95.5114 277.652 94.0509 277.811 93.5889C277.986 93.2093 278.468 92.2836 278.695 91.7685Z" fill="#BB9F50" stroke="#CDAE54" stroke-width="0.2"/>
<path d="M277.811 93.5888C277.652 94.0508 275.737 95.5113 274.86 95.9166C275.019 96.0597 276.09 96.7732 276.79 96.3192C277.56 95.8382 278.405 94.2252 278.483 93.8627C278.576 93.4943 278.696 91.8415 278.695 91.7684C278.468 92.2835 277.986 93.2092 277.811 93.5888Z" fill="#BB9F50" stroke="#CDAE54" stroke-width="0.2"/>
<path d="M274.86 95.9169L275.097 95.525C275.11 95.5427 276.483 94.3601 277.137 94.1464C277.74 94.0118 279.737 94.886 280.044 94.9243C278.355 95.5735 276.608 95.8956 274.86 95.9169Z" fill="#BB9F50" stroke="#CDAE54" stroke-width="0.2"/>
<path d="M280.079 94.9353C280.132 94.994 277.788 97.5883 277.07 97.657C276.386 97.8255 275.035 96.2502 275.053 96.2358L274.845 95.941L274.86 95.9166C276.608 95.8953 278.355 95.5732 280.044 94.9241C280.066 94.9308 280.079 94.9353 280.079 94.9353Z" fill="#BB9F50" stroke="#CDAE54" stroke-width="0.2"/>
<path d="M283.98 92.9847C283.98 92.9847 281.563 92.9081 277.931 90.4141C277.931 90.4141 277.182 89.9844 275.483 88.2536C275.692 88.0263 275.9 87.8002 276.138 87.5216C276.138 87.5216 278.46 84.92 280.108 81.8727C281.289 82.0398 281.713 80.8837 281.713 80.8837L281.792 80.9398L282.017 81.0615C282.017 81.0615 282.613 81.316 282.79 82.1053C282.79 82.1053 282.708 83.5255 284.275 83.671C284.275 83.671 285.078 83.8407 285.365 84.4947L289.967 91.2618C289.967 91.2618 288.084 93.3835 283.98 92.9847ZM274.213 86.9048C274.213 86.9048 272.135 84.5719 270.526 81.7345C270.805 81.5749 271.72 80.965 271.616 79.7946L271.559 79.5844C271.559 79.5844 271.471 79.2424 271.526 78.9657L273.488 77.7618L275.038 76.7827H275.094L276.619 77.7156L278.627 78.9753C278.671 79.2532 278.531 79.5579 278.531 79.5579L278.484 79.7565C278.357 81.1489 279.653 81.7569 279.653 81.7569L279.696 81.7749C278.086 84.6048 276.021 86.9048 276.021 86.9048C275.703 87.2745 275.408 87.6007 275.123 87.8937C274.845 87.6007 274.54 87.2745 274.213 86.9048ZM272.295 90.4141C268.676 92.9145 266.04 93.0682 266.04 93.0682C261.926 93.4894 260.234 91.1349 260.234 91.1349C261.232 89.64 264.747 84.5312 264.747 84.5312C265.014 83.8741 265.829 83.7042 265.829 83.7042C267.385 83.5542 267.293 82.1342 267.293 82.1342C267.477 81.3421 268.072 81.0999 268.072 81.0999L268.287 80.9556C268.287 80.9556 268.371 80.911 268.381 80.911C268.408 80.9767 268.891 82.1389 270.131 81.8727C271.79 84.92 274.097 87.5173 274.097 87.5173C274.335 87.787 274.541 88.0163 274.762 88.2369C273.076 89.9563 272.295 90.4141 272.295 90.4141ZM270.015 81.6351L269.967 81.6505C269.967 81.6505 269.022 81.8727 268.615 80.7679L269.369 80.2923C269.565 80.745 269.784 81.1929 270.015 81.6351ZM269.679 80.0981L270.056 79.8718C270.056 79.8718 269.784 80.6237 270.614 80.8943C270.614 80.8943 270.786 81.0393 270.643 80.829C270.643 80.829 270.043 80.4243 270.431 79.64C270.431 79.64 271.041 79.2699 271.058 79.2699C271.058 79.2699 271.404 79.5896 271.358 80.1092C271.358 80.1092 271.19 81.1489 270.39 81.5197C270.131 81.0545 269.907 80.5681 269.679 80.0981ZM266.944 71.7783C266.925 71.7783 267.117 71.9002 267.117 71.9002L271.349 74.4589L272.065 74.9079L270.619 75.6758L270.445 75.4725C270.318 75.2492 270.192 75.3321 270.192 75.3321L270.001 75.4334L269.939 75.643L268.305 76.5168C267.758 74.9564 267.14 73.0285 266.944 71.7783ZM280.857 80.3424C280.857 80.3424 281.456 80.7234 281.48 80.7234C281.078 81.8521 280.296 81.6641 280.219 81.6417C280.45 81.2156 280.659 80.7773 280.857 80.3424ZM279.411 80.9445C280.006 80.7457 280.168 80.0479 280.193 79.9448L280.529 80.1415C280.316 80.6237 280.067 81.1042 279.812 81.5479C278.81 81.2257 278.671 80.0723 278.671 80.0723C278.627 79.6791 278.891 79.3416 279.012 79.1975L279.714 79.6456C280.048 80.3749 279.448 80.7673 279.448 80.7673C279.303 80.9934 279.411 80.9445 279.411 80.9445ZM278.731 74.4923L282.971 71.9173C282.971 71.9173 283.15 71.811 283.164 71.811C282.958 73.0452 282.37 74.9848 281.868 76.5266L280.165 75.5978L280.089 75.423L279.896 75.3006C279.896 75.3006 279.772 75.2337 279.63 75.4663L279.476 75.643L278.077 74.9071C278.061 74.9071 278.731 74.4923 278.731 74.4923ZM294.401 87.5173L293.812 87.0517L287.073 81.3765C287.073 81.3765 286.633 80.966 286.043 81.2257C286.043 81.2257 285.435 81.4964 284.948 80.8558L283.816 79.1046L283.464 78.5784C283.464 78.5784 282.809 78.1354 283.113 77.019L282.426 76.5817L282.168 76.6883L282.102 76.6538C282.668 74.8905 283.334 72.8072 283.531 71.5739L287.753 68.9857C288.076 68.859 287.849 68.5008 287.849 68.5008L289.443 67.6048C289.695 67.4668 289.677 67.3063 289.677 67.3063L293.226 65.4659L293.263 65.5869L293.821 65.2771L293.577 64.7241L293.019 65.0281L293.079 65.1553L289.56 67.0191L289.298 66.372L294.021 63.8348L293.853 63.3258L293.301 63.5406L293.108 63.3035C292.139 62.43 292.003 63.7078 292.003 63.7078L292.139 64.1489L287.283 66.8358L287.082 66.7641L286.493 67.0909L286.541 67.2843L286.114 67.5333L286.054 67.3949L285.594 67.6428L285.567 67.8695L283.042 69.2253L282.584 69.1028L282.322 69.4287H282.002L278.127 71.3855C277.998 71.746 277.285 71.6786 277.285 71.6786L275.821 72.2711C275.741 72.5472 275.505 72.7183 275.505 72.7183L275.066 72.9565L274.592 72.6909C274.592 72.6909 274.355 72.5031 274.27 72.2431L272.804 71.6562C272.804 71.6562 272.089 71.7285 271.967 71.3521L268.085 69.4125H267.758L267.5 69.0801L267.057 69.1909L264.527 67.841L264.499 67.6262L264.046 67.3621L263.971 67.5052L263.554 67.2452L263.592 67.0625L263.011 66.7318L262.805 66.8068L257.949 64.1154L258.091 63.6672C258.091 63.6672 257.949 62.4076 256.986 63.2598L256.789 63.5192L256.246 63.3087L256.001 63.7792L260.744 66.3328L260.534 66.98L257.008 65.1212L257.065 64.9832L256.526 64.6909L256.273 65.2544L256.817 65.5478L256.864 65.4419L260.423 67.2843C260.423 67.2843 260.404 67.4378 260.67 67.5615L262.248 68.4827C262.248 68.4827 262.018 68.8363 262.351 68.9698L266.532 71.5404C266.742 72.7672 267.406 74.8905 268.038 76.6538L267.931 76.7144L267.674 76.6057L266.995 77.0542C267.276 78.1584 266.629 78.6288 266.629 78.6288L266.283 79.1301L265.152 80.8837C264.663 81.5253 264.046 81.2589 264.046 81.2589C263.459 81.0057 263.011 81.4034 263.011 81.4034L256.273 87.0717L255.697 87.5329C255.207 88.2079 255.844 88.5631 255.844 88.5631C257.406 89.424 258.414 92.478 258.414 92.478C258.834 93.1619 259.317 92.4657 259.317 92.4657L259.949 91.538C259.949 91.538 262.037 93.976 266.153 93.554C266.153 93.554 268.798 93.5261 272.42 91.0277C272.42 91.0277 273.253 90.5703 275.117 88.6222L277.814 91.0277C281.438 93.5261 284.101 93.554 284.101 93.554C288.052 93.9636 290.079 91.7741 290.215 91.6248L290.767 92.438C290.767 92.438 291.245 93.1296 291.685 92.4492C291.685 92.4492 292.687 89.403 294.246 88.5508C294.246 88.5508 294.888 88.1701 294.401 87.5173Z" fill="#A28530"/>
</g>
<defs>
<filter id="filter0_d_110_3994" x="164" y="108" width="119" height="56" filterUnits="userSpaceOnUse" color-interpolation-filters="sRGB">
<feFlood flood-opacity="0" result="BackgroundImageFix"/>
<feColorMatrix in="SourceAlpha" type="matrix" values="0 0 0 0 0 0 0 0 0 0 0 0 0 0 0 0 0 0 127 0" result="hardAlpha"/>
<feOffset dy="4"/>
<feGaussianBlur stdDeviation="2"/>
<feComposite in2="hardAlpha" operator="out"/>
<feColorMatrix type="matrix" values="0 0 0 0 0 0 0 0 0 0 0 0 0 0 0 0 0 0 0.25 0"/>
<feBlend mode="normal" in2="BackgroundImageFix" result="effect1_dropShadow_110_3994"/>
<feBlend mode="normal" in="SourceGraphic" in2="effect1_dropShadow_110_3994" result="shape"/>
</filter>
<linearGradient id="paint0_linear_110_3994" x1="255.496" y1="336.063" x2="317.556" y2="145.443" gradientUnits="userSpaceOnUse">
<stop stop-color="#D09288"/>
<stop offset="0.67033" stop-color="#9D6B60"/>
<stop offset="1" stop-color="#9D6B60"/>
</linearGradient>
<linearGradient id="paint1_linear_110_3994" x1="243.633" y1="232.881" x2="263.777" y2="139.546" gradientUnits="userSpaceOnUse">
<stop stop-color="#D09288"/>
<stop offset="0.67033" stop-color="#9D6B60"/>
<stop offset="1" stop-color="#9D6B60"/>
</linearGradient>
<linearGradient id="paint2_linear_110_3994" x1="239.382" y1="219.269" x2="252.472" y2="137.651" gradientUnits="userSpaceOnUse">
<stop stop-color="#D09288"/>
<stop offset="0.67033" stop-color="#9D6B60"/>
<stop offset="1" stop-color="#9D6B60"/>
</linearGradient>
</defs>
</svg>
